<?xml version="1.0" encoding="UTF-8"?>
<!DOCTYPE svg PUBLIC "-//W3C//DTD SVG 1.1//EN" "http://www.w3.org/Graphics/SVG/1.1/DTD/svg11.dtd">
<!-- Creator: CorelDRAW 2019 (64 Bit) -->
<svg xmlns="http://www.w3.org/2000/svg" xml:space="preserve" width="7.5352mm" height="7.5352mm" version="1.1" style="shape-rendering:geometricPrecision; text-rendering:geometricPrecision; image-rendering:optimizeQuality; fill-rule:evenodd; clip-rule:evenodd"
viewBox="0 0 753.52 753.52"
 xmlns:xlink="http://www.w3.org/1999/xlink">
 <defs>
  <style type="text/css">
   <![CDATA[
    .fil0 {fill:#006633}
    .fil1 {fill:white}
    .fil2 {fill:white}
   ]]>
  </style>
 </defs>
 <g id="Camada_x0020_1">
  <metadata id="CorelCorpID_0Corel-Layer"/>
  <g id="_2458305927776">
   <rect class="fil0" x="-4.24" y="4.22" width="753.53" height="753.53"/>
   <g>
    <path class="fil1" d="M379.99 434.61c0,0 11.15,-33.62 12.74,-36.99 1.59,-3.36 3.18,-8.85 14.34,-8.85 11.15,0 62.83,0 62.83,0 0,0 8.67,-2.48 12.39,6.55 3.72,9.03 14.51,36.46 14.51,36.46l0 54.87c0,0 -0.61,6.55 -9.38,6.55 -8.76,0 -10.95,-3.26 -10.95,-6.32 0,-3.06 0,-8.1 0,-8.1l-77.19 0 0 8.49c0,0 -0.79,5.68 -9.84,5.68 -9.06,0 -10.61,-6.12 -10.61,-6.12l1.16 -52.22zm224.98 97.11l-40.98 -40.99 0.79 -0.79 -126.96 103.88c-59.48,-48.64 -118.94,-97.3 -178.4,-145.96l-109.47 -3.32c-0.52,17.96 -8.02,34.18 -19.87,46.03 -12.29,12.29 -29.27,19.89 -48.02,19.89 -18.76,0 -35.74,-7.6 -48.03,-19.89 -12.29,-12.29 -19.89,-29.27 -19.89,-48.03 0,-18.75 7.6,-35.73 19.89,-48.02 12.29,-12.29 29.27,-19.9 48.03,-19.9 18.75,0 35.73,7.61 48.02,19.9 12.29,12.29 19.9,29.27 19.9,48.02l0.05 -1.99 109.56 3.31 91.16 -74.6 -58.11 -58.11 2.86 -2.85c-14.09,10.36 -31.48,16.48 -50.3,16.48 -23.46,0 -44.7,-9.51 -60.07,-24.88 -15.38,-15.37 -24.89,-36.62 -24.89,-60.07 0,-23.47 9.51,-44.71 24.89,-60.08 15.37,-15.38 36.61,-24.89 60.07,-24.89 23.46,0 44.7,9.51 60.08,24.89 15.37,15.37 24.88,36.61 24.88,60.08 0,23.45 -9.51,44.7 -24.88,60.07 -2.09,2.09 -4.29,4.08 -6.6,5.94l58.32 58.31 80.82 -66.11c31.58,25.83 63.15,51.66 94.72,77.5l35.36 -30.77c-14.92,-15.95 -24.05,-37.4 -24.05,-60.97 0,-24.65 9.99,-46.98 26.15,-63.13 16.16,-16.16 38.48,-26.16 63.14,-26.16 24.65,0 46.98,10 63.13,26.16 16.16,16.15 26.16,38.48 26.16,63.13 0,24.66 -10,46.98 -26.16,63.14 -16.15,16.16 -38.48,26.15 -63.13,26.15 -24.66,0 -46.98,-9.99 -63.13,-26.14l1.96 2.26 -34.7 30.2 81.3 66.52 -1.42 1.16 -50.9 41.65 40.67 40.67c1.61,-2.17 3.38,-4.22 5.29,-6.13 9.78,-9.78 23.3,-15.83 38.22,-15.83 14.93,0 28.45,6.05 38.23,15.83 9.79,9.79 15.84,23.3 15.84,38.23 0,14.93 -6.05,28.45 -15.84,38.23 -9.78,9.78 -23.3,15.84 -38.23,15.84 -14.92,0 -28.44,-6.06 -38.22,-15.84 -9.79,-9.78 -15.84,-23.3 -15.84,-38.23 0,-11.47 3.57,-22.11 9.67,-30.86l-1.07 1.07zm-247.2 -164.3l-4.43 4.43 -0.44 -0.45 -91.09 74.53 0 0 176.01 144.01 176 -144.01 -176 -144.01 -80.05 65.5zm275.37 -2.55c22.38,0 42.65,-9.08 57.32,-23.75 14.67,-14.67 23.74,-34.93 23.74,-57.32 0,-22.38 -9.07,-42.65 -23.74,-57.32 -14.67,-14.67 -34.94,-23.74 -57.32,-23.74 -22.39,0 -42.66,9.07 -57.32,23.74 -14.67,14.67 -23.75,34.94 -23.75,57.32 0,22.39 9.08,42.65 23.75,57.32 14.66,14.67 34.93,23.75 57.32,23.75zm17.29 245.72c13.56,0 25.83,-5.49 34.71,-14.37 8.88,-8.88 14.38,-21.16 14.38,-34.71 0,-13.55 -5.5,-25.82 -14.38,-34.71 -8.88,-8.88 -21.15,-14.37 -34.71,-14.37 -13.55,0 -25.82,5.49 -34.7,14.37 -8.88,8.89 -14.38,21.16 -14.38,34.71 0,13.55 5.5,25.83 14.38,34.71 8.88,8.88 21.15,14.37 34.7,14.37zm-405.23 -293.63c21.31,0 40.59,-8.64 54.55,-22.6 13.95,-13.95 22.59,-33.24 22.59,-54.53 0,-21.31 -8.64,-40.59 -22.59,-54.55 -13.96,-13.95 -33.24,-22.59 -54.55,-22.59 -21.3,0 -40.58,8.64 -54.54,22.59 -13.96,13.96 -22.59,33.24 -22.59,54.55 0,21.29 8.63,40.58 22.59,54.53 13.96,13.96 33.24,22.6 54.54,22.6zm192.62 235.29l129.93 -106.32 -129.93 -106.31 -129.94 106.31 129.94 106.32zm143.24 -101.66l-143.24 117.2 -148.94 -121.86 148.94 -121.86 148.94 121.86 -5.7 4.66zm-499 53.62c17.03,0 32.44,-6.91 43.6,-18.06 11.16,-11.16 18.06,-26.58 18.06,-43.61 0,-17.02 -6.9,-32.44 -18.06,-43.6 -11.16,-11.16 -26.57,-18.06 -43.6,-18.06 -17.03,0 -32.45,6.9 -43.6,18.06 -11.16,11.16 -18.07,26.58 -18.07,43.6 0,17.03 6.91,32.45 18.07,43.61 11.15,11.15 26.57,18.06 43.6,18.06zm320.76 -105.7l70.09 0 10.62 28.32 -91.16 0 10.45 -28.32zm71.11 60.62c4.7,0 8.5,-3.8 8.5,-8.5 0,-4.69 -3.8,-8.49 -8.5,-8.49 -4.69,0 -8.49,3.8 -8.49,8.49 0,4.7 3.8,8.5 8.49,8.5zm-71.88 0c4.69,0 8.49,-3.8 8.49,-8.5 0,-4.69 -3.8,-8.49 -8.49,-8.49 -4.69,0 -8.5,3.8 -8.5,8.49 0,4.7 3.81,8.5 8.5,8.5z"/>
    <path class="fil2" d="M663.79 565.62c8.06,3.36 14.25,9.65 16.74,17.27 -7.53,8.26 -18.31,13.44 -30.29,13.44 -11.83,0 -22.49,-5.05 -30,-13.13 2.42,-7.76 8.67,-14.18 16.84,-17.58 3.75,2.86 8.36,4.55 13.35,4.55 5,0 9.61,-1.69 13.36,-4.55z"/>
    <ellipse class="fil2" cx="650.43" cy="545.4" rx="16.67" ry="19.92"/>
    <path class="fil2" d="M62.46 481.13l4.48 0 0.85 -5.26c1.61,-0.24 3.15,-0.66 4.62,-1.24l3.36 4.13 3.88 -2.23 -1.89 -4.99c1.25,-0.99 2.38,-2.13 3.38,-3.38l4.98 1.9 2.24 -3.88 -4.13 -3.37c0.58,-1.46 1,-3.01 1.23,-4.62l5.27 -0.85 0 -4.48 -5.27 -0.84c-0.23,-1.61 -0.65,-3.16 -1.23,-4.63l4.13 -3.36 -2.24 -3.88 -4.98 1.9c-1,-1.25 -2.13,-2.39 -3.38,-3.38l1.89 -4.99 -3.88 -2.24 -3.36 4.13c-1.47,-0.58 -3.02,-1 -4.62,-1.23l-0.85 -5.27 -4.48 0 -0.85 5.27c-1.61,0.23 -3.16,0.65 -4.62,1.23l-3.37 -4.13 -3.87 2.24 1.89 4.99c-1.25,0.99 -2.38,2.13 -3.38,3.38l-4.98 -1.9 -2.24 3.88 4.13 3.36c-0.58,1.47 -1,3.02 -1.24,4.63l-5.26 0.84 0 4.48 5.26 0.85c0.24,1.61 0.66,3.16 1.24,4.63l-4.13 3.36 2.24 3.88 4.98 -1.9c1,1.25 2.13,2.39 3.38,3.38l-1.89 4.99 3.87 2.23 3.37 -4.13c1.46,0.58 3.01,1 4.62,1.24l0.85 5.26zm2.24 -37.68c6.43,0 11.65,5.22 11.65,11.65 0,6.44 -5.22,11.66 -11.65,11.66 -6.44,0 -11.65,-5.22 -11.65,-11.66 0,-6.43 5.21,-11.65 11.65,-11.65z"/>
    <path class="fil2" d="M80.08 431.01l2.66 0.44 1.02 -3.04c0.98,0.02 1.94,-0.07 2.87,-0.27l1.59 2.78 2.52 -0.94 -0.63 -3.15c0.84,-0.47 1.63,-1.03 2.34,-1.67l2.77 1.62 1.71 -2.08 -2.11 -2.41c0.48,-0.81 0.89,-1.69 1.19,-2.62l3.2 0.02 0.45 -2.66 -3.04 -1.03c0.02,-0.97 -0.08,-1.93 -0.28,-2.86l2.79 -1.59 -0.95 -2.52 -3.15 0.63c-0.46,-0.84 -1.02,-1.63 -1.67,-2.34l1.62 -2.77 -2.08 -1.72 -2.41 2.12c-0.81,-0.49 -1.69,-0.89 -2.62,-1.19l0.02 -3.21 -2.66 -0.44 -1.02 3.04c-0.98,-0.02 -1.94,0.08 -2.87,0.28l-1.59 -2.79 -2.52 0.95 0.63 3.14c-0.84,0.47 -1.63,1.03 -2.34,1.68l-2.77 -1.62 -1.72 2.08 2.12 2.4c-0.49,0.82 -0.89,1.69 -1.19,2.63l-3.21 -0.02 -0.44 2.66 3.04 1.02c-0.02,0.98 0.08,1.94 0.28,2.87l-2.79 1.59 0.95 2.52 3.14 -0.63c0.47,0.84 1.03,1.62 1.68,2.34l-1.62 2.77 2.08 1.71 2.4 -2.12c0.82,0.49 1.7,0.89 2.63,1.19l-0.02 3.21zm5.06 -22.14c3.82,0.63 6.4,4.24 5.76,8.07 -0.64,3.82 -4.25,6.4 -8.07,5.76 -3.82,-0.64 -6.4,-4.25 -5.76,-8.07 0.63,-3.82 4.25,-6.4 8.07,-5.76z"/>
    <path class="fil2" d="M104.55 462.13l2.92 0.49 1.12 -3.33c1.07,0.02 2.12,-0.09 3.14,-0.31l1.74 3.06 2.77 -1.04 -0.69 -3.45c0.92,-0.51 1.78,-1.13 2.57,-1.83l3.03 1.77 1.88 -2.28 -2.32 -2.64c0.53,-0.89 0.97,-1.85 1.3,-2.87l3.52 0.02 0.49 -2.92 -3.34 -1.12c0.02,-1.07 -0.08,-2.13 -0.3,-3.14l3.05 -1.75 -1.03 -2.76 -3.45 0.69c-0.51,-0.92 -1.13,-1.78 -1.84,-2.57l1.78 -3.04 -2.28 -1.87 -2.64 2.32c-0.89,-0.54 -1.85,-0.98 -2.88,-1.31l0.02 -3.51 -2.91 -0.49 -1.12 3.33c-1.08,-0.02 -2.13,0.09 -3.15,0.31l-1.74 -3.06 -2.77 1.04 0.7 3.45c-0.93,0.51 -1.79,1.13 -2.57,1.83l-3.04 -1.77 -1.88 2.28 2.33 2.64c-0.54,0.89 -0.98,1.85 -1.31,2.87l-3.52 -0.02 -0.48 2.92 3.33 1.12c-0.02,1.07 0.09,2.13 0.3,3.15l-3.05 1.74 1.04 2.76 3.45 -0.69c0.51,0.92 1.12,1.78 1.83,2.57l-1.77 3.04 2.28 1.87 2.63 -2.32c0.9,0.54 1.86,0.98 2.88,1.31l-0.02 3.51zm5.55 -24.28c4.18,0.7 7.01,4.66 6.32,8.85 -0.7,4.19 -4.66,7.02 -8.85,6.32 -4.19,-0.7 -7.02,-4.66 -6.32,-8.85 0.7,-4.19 4.66,-7.02 8.85,-6.32z"/>
    <path class="fil2" d="M234.08 281.96l40.21 6.25c23.25,-1.88 -7.36,-13.51 7.46,-11.21 8.48,1.32 11.19,0.65 11.96,-0.16 -0.01,0.01 9.32,-59.92 11.21,-72.12l-57.45 -8.93 -13.39 86.17zm8.88 -21.17l46.53 7.23 1.19 -7.66 -46.53 -7.23 -1.19 7.66zm1.94 -12.45l46.53 7.24 1.19 -7.66 -46.53 -7.24 -1.19 7.66zm1.93 -12.44l46.53 7.23 1.19 -7.66 -46.53 -7.23 -1.19 7.66zm1.94 -12.45l46.53 7.23 1.19 -7.66 -46.53 -7.23 -1.19 7.66zm2.08 -13.4l46.53 7.23 1.19 -7.66 -46.53 -7.23 -1.19 7.66z"/>
    <g>
     <path class="fil2" d="M233.64 215.78l-4.05 5.36 -13.96 18.48 -20.26 26.83 -12.52 -9.46 20.26 -26.82 13.96 -18.48 4.05 -5.37 0.43 -0.57 15.32 -7.27 0 0 -2.8 16.72 -0.43 0.58zm-2.55 1.13l-3.81 5.04 -13.13 17.39 -19.07 25.24 -10.36 -7.82 19.06 -25.25 13.14 -17.38 3.81 -5.05 0.41 -0.54 13.7 -7.37 0 0 -3.34 15.2 -0.41 0.54z"/>
     <path class="fil2" d="M230.93 213.73l-4.06 5.36 -13.95 18.48 -20.27 26.83 -7.09 -5.36 20.26 -26.82 13.96 -18.48 4.05 -5.37 0.44 -0.57 12.6 -9.32 0 0 -5.51 14.68 -0.43 0.57zm-2.08 1.48l-3.82 5.05 -13.13 17.39 -19.06 25.24 -5.87 -4.44 19.06 -25.24 13.13 -17.39 3.82 -5.05 0.4 -0.53 11.46 -9.07 0 0 -5.59 13.5 -0.4 0.54z"/>
     <rect class="fil2" transform="matrix(0.0486613 -0.0644293 0.0644293 0.0486613 188.827 260.716)" width="938.83" height="22.99"/>
     <polygon class="fil0" points="221.8,207.66 232.16,215.49 235.83,201.9 227.81,203.62 "/>
     <polygon class="fil2" points="229.21,202.12 235.47,206.84 236.87,198.48 "/>
    </g>
    <path class="fil1" d="M675.77 277.85l0 12.43c-0.05,0.84 -0.22,1.09 -0.28,1.93 -0.06,0.81 0.03,1.71 0.01,2.53 -0.02,1.14 -0.26,1.24 -0.29,2.3l-0.7 6.83c-1.93,10.58 -3.79,21.77 -12.35,30.11 -0.59,0.58 -0.99,0.8 -1.54,1.35 -1.35,1.37 -3.36,2.61 -5.82,2.92l-18.14 0.82c-1.17,-0.68 -0.57,-1.54 -3.71,-2.8 -1.87,-0.75 -3.86,-2.02 -4.78,-1.32 -1.22,1.08 1.38,1.72 2.56,2.17 1.6,0.61 2.53,0.88 3.22,2l-17.94 -0.42c0,-0.09 0.04,-0.21 0.1,-0.37 11.56,-1.51 20.76,-25.28 20.76,-54.38 0,-29.27 -9.3,-53.14 -20.96,-54.41 -0.07,-0.14 -0.13,-0.29 -0.18,-0.43l14.05 0c3.18,0.23 9.17,4.28 11.41,2.17 0.52,-1.48 -0.97,-1.44 -2.11,-2.17l8.65 0c-0.46,1.53 -2.89,3.5 -0.05,4.45 2.24,-0.42 2.08,-3.18 3.58,-4.23 4.15,-0.1 7.34,1.27 9.43,2.88 9.77,7.51 13.85,27.62 14.53,38.33 0.06,0.95 0.28,1.15 0.28,2.31 0,0.88 -0.06,1.6 0.11,2.44 0.08,0.4 0.13,1.33 0.16,2.56zm-4.91 -16.6c-1.38,-0.27 -3.37,0.45 -4.81,0.82 -4.02,1.06 -10.47,6.24 -8.88,7.54 1.65,1.36 3.9,-2.39 6.77,-4.1 2.58,-1.52 8.38,-0.9 6.92,-4.26zm-24.64 72.49c2.78,0.85 5.07,-1.58 8.34,-1.6 2.63,-0.02 8.38,2.01 7.17,-1.47 -2.06,-0.79 -6.84,-1.31 -9.46,-0.67 -1.45,0.36 -2.57,0.76 -3.93,1.21 -1.83,0.6 -2.77,0.76 -2.12,2.53zm19.74 -92.52c-1.47,-0.25 -3.31,0.7 -4.68,1.23 -3.25,1.25 -4.41,2.8 -6.52,5.11 -0.52,0.57 -2.68,2.41 -1.51,3.39 1.3,1.09 2.88,-1.22 3.48,-1.88 0.84,-0.91 1.87,-2.27 2.79,-2.92 2.28,-1.62 7.63,-1.73 6.44,-4.93zm-5.34 -6.55c0.33,-1.81 -0.47,-2.79 -2.44,-1.98 -1.07,0.45 -2.84,1.18 -3.78,1.76 -1.27,0.79 -3.82,4.19 -4.4,5.91 -0.54,1.59 1.03,2.76 2.23,1.71 0.45,-0.39 1.58,-2.56 1.93,-3.18 1.51,-2.62 3.64,-2.59 6.46,-4.22zm10.52 46.13c-4.45,0.75 -6.05,0.94 -8.56,3.02 -1.02,0.85 -2.26,1.51 -3.21,2.38 -1.04,0.96 -1.3,3 0.75,2.48 1.46,-0.37 4.03,-3.69 6.69,-4.36 1.41,-0.36 3.78,-0.59 4.91,-1.09 1.43,-0.63 1.48,-2.78 -0.58,-2.43zm-12.7 16.86c1.82,0.45 2.54,-0.59 3.74,-1.31 1.01,-0.6 2.38,-1.66 3.64,-2.06 2.65,-0.82 9.29,-0.1 6.93,-3.32 -5.95,-0.62 -9.41,1.87 -12.65,3.79 -1.21,0.71 -2.37,1.44 -1.66,2.9zm9.11 -46.72c-6.87,1.9 -6.42,2.15 -10.92,6.46 -1.26,1.21 -1.41,3.6 0.96,2.46 0.54,-0.26 2.33,-2.16 2.86,-2.7 3.42,-3.4 5.27,-2.44 7.9,-3.85 1.42,-0.77 1.56,-3.02 -0.8,-2.37zm-3.23 50.91c-2.68,0.48 -5.33,2.2 -7.18,3.26 -1.22,0.7 -1.93,2.51 0.16,2.51 1.47,0 4.59,-2.89 7.19,-3.21 1.52,-0.19 4.08,0 5.36,-0.32 1.38,-0.35 2.05,-2.34 -0.11,-2.53 -0.85,-0.07 -4.64,0.15 -5.42,0.29zm6.13 -30.58c-5.76,0.72 -8.17,2.4 -11.49,5.15 -0.41,0.34 -1.08,0.85 -1.19,1.51 -0.15,0.9 0.44,1.52 1.64,1.24 1.49,-0.35 3.74,-3.59 6.57,-4.32 1.38,-0.36 3.52,-0.59 4.73,-1.01 1.79,-0.62 1.83,-2.83 -0.26,-2.57zm-7.98 40.17c-2.45,0.36 -5.87,2.18 -7.67,3.04 -0.92,0.44 -2.9,2.22 -0.76,2.57 1.04,0.17 3.17,-1.14 4.02,-1.55 5.85,-2.79 5.42,-0.9 9.38,-1.68 1.35,-0.27 2.75,-2.06 0.87,-2.49 -0.59,-0.13 -5.15,0.01 -5.84,0.11zm-2.2 9.27c-1.81,0.33 -7.08,1.96 -8.06,2.73 -1.3,1.02 -0.58,2.38 1.46,1.77 1.35,-0.41 2.83,-1.02 4.15,-1.49 3.81,-1.34 7.78,0.43 9.51,-0.71 3.76,-2.5 -5.52,-2.59 -7.06,-2.3zm-27.5 7.41c-3.87,1.55 3.89,3.72 4.87,4.36 2.19,1.42 2.52,6.1 5.39,4.8 1.5,-0.69 -0.17,-5.8 -5.98,-8.13 -1.17,-0.47 -3.04,-1.53 -4.28,-1.03zm5.61 -84.57c-1.62,0.12 -3.95,-0.08 -3.57,1.69 0.31,1.43 2.66,0.97 4.58,0.83 5.19,-0.41 5.19,0.36 8.96,1.87 2.15,0.87 6.24,-0.71 -0.35,-3.09 -4.48,-1.62 -4.01,-1.71 -9.62,-1.3zm2.98 51.73c-0.23,1.79 1.01,1.86 2.96,2.23 5.09,0.95 4.23,0.73 7.63,3.42 1.18,0.94 1.3,1.96 3.84,1.44 1.19,-1.78 -0.21,-2.17 -1.51,-3.21 -3.29,-2.63 -3.11,-3.04 -8.05,-3.96 -2.43,-0.46 -3.07,-1.04 -4.87,0.08zm1.51 -26.41c-2.02,0.61 -1.33,2.17 0.48,2.43 1.76,0.25 3.77,0.14 5.56,0.43 2.84,0.46 5.76,3.79 7.71,3.34 0.79,-0.18 1.24,-0.75 0.99,-1.53 -0.26,-0.82 -5.54,-4.2 -9.38,-4.52 -1.43,-0.12 -4.24,-0.49 -5.36,-0.15zm-1.68 -9.44c-1.62,0.92 -0.89,2.1 1.23,2.32 1.64,0.17 3.9,0.12 5.44,0.45 2.48,0.53 5.72,3.94 7.64,3.19 0.7,-0.27 1.04,-1 0.68,-1.71 -0.26,-0.51 -1.02,-0.76 -1.63,-1.12 -2.65,-1.59 -4.4,-2.9 -7.98,-3.15 -1.51,-0.11 -4.27,-0.61 -5.38,0.02zm-5.72 -24.14c-1.91,0.16 -3.96,-0.07 -4.41,1.1 -0.65,1.71 1.61,1.71 3.41,1.58 5.38,-0.4 5.25,-0.34 9.33,1.46 1.28,0.57 3.45,1.31 3.82,-0.29 0.3,-1.27 -1.5,-1.76 -2.72,-2.22 -3.5,-1.35 -4.67,-2.03 -9.43,-1.63zm18.53 75.71c0.3,-1.63 -1.06,-2.35 -2.08,-3.31 -2.95,-2.75 -3.1,-2.83 -7.52,-3.93 -1.27,-0.31 -3.99,-1.37 -4.65,0.1 -0.72,1.58 1.73,1.89 3.2,2.27 4.68,1.19 4.14,0.95 7.28,4.11 1.1,1.1 1.64,1.88 3.77,0.76zm-14.78 0.95c-1.31,0.46 -2.16,1.67 0.59,2.67 1.34,0.48 3.28,1.06 4.4,1.69 3.16,1.78 3.48,5.91 6.28,4.98 1.97,-0.65 0.36,-2.28 -0.26,-3.05 -0.88,-1.1 -1.61,-2.11 -2.62,-3.04 -1.18,-1.09 -1.99,-1.32 -3.93,-2.06 -1.03,-0.4 -3.48,-1.53 -4.46,-1.19zm3.73 -25.51c-1.59,0.46 -1.74,2.2 0.78,2.53 1.64,0.21 3.73,0.17 5.32,0.49 2.82,0.58 5.55,3.95 7.65,3.41 1.79,-0.47 1.14,-1.71 -0.65,-2.85 -1.03,-0.66 -2.17,-1.39 -3.37,-2.04 -2.65,-1.44 -8.79,-1.81 -9.73,-1.54zm-0.15 -35.32c-1.67,0.1 -4.27,-0.12 -4.9,0.84 -1.12,1.73 1.39,1.92 3.06,1.84 5.36,-0.25 5.51,-0.13 9.37,1.68 1.09,0.51 3.14,1.37 3.82,0.01 0.69,-1.37 -1.37,-1.94 -2.57,-2.44 -3.34,-1.41 -4.22,-2.18 -8.78,-1.93zm3.94 77.89c2.75,0.14 2.86,-1.21 1.66,-2.65 -1.91,-2.29 -2.79,-3.99 -5.87,-5.19 -0.81,-0.31 -3.96,-1.54 -4.55,-1.62 -2.4,-0.35 -2.92,1.58 -1.15,2.4 4.17,1.95 4.64,0.7 7.33,4.08 0.94,1.17 1.43,1.95 2.58,2.98zm-3.97 -51.11c-1.45,0.73 -1.11,2.09 1.32,2.35 5.79,0.63 4.45,-0.36 8.98,2.37 1.25,0.75 2.56,1.94 3.95,1.39 0.68,-0.27 1.05,-0.85 0.76,-1.59 -0.28,-0.7 -4.11,-2.77 -4.95,-3.19 -1.27,-0.63 -2.56,-1.1 -4.37,-1.26 -1.57,-0.14 -4.49,-0.68 -5.69,-0.07z"/>
    <path class="fil1" d="M613.14 338.41c12.11,0 21.93,-24.39 21.93,-54.46 0,-30.08 -9.82,-54.47 -21.93,-54.47 -12.11,0 -21.93,24.39 -21.93,54.47 0,30.07 9.82,54.46 21.93,54.46zm0 -16.42c7.59,0 13.74,-17.04 13.74,-38.04 0,-21.01 -6.15,-38.05 -13.74,-38.05 -7.58,0 -13.73,17.04 -13.73,38.05 0,21 6.15,38.04 13.73,38.04z"/>
   </g>
  </g>
 </g>
</svg>
