<?xml version="1.0" encoding="UTF-8"?>
<!DOCTYPE svg PUBLIC "-//W3C//DTD SVG 1.1//EN" "http://www.w3.org/Graphics/SVG/1.1/DTD/svg11.dtd">
<!-- Creator: CorelDRAW 2019 (64 Bit) -->
<svg xmlns="http://www.w3.org/2000/svg" xml:space="preserve" width="500px" height="500px" version="1.1" shape-rendering="geometricPrecision" text-rendering="geometricPrecision" image-rendering="optimizeQuality" fill-rule="evenodd" clip-rule="evenodd"
viewBox="0 0 500 500"
 xmlns:xlink="http://www.w3.org/1999/xlink">
 <g id="Camada_x0020_1">
  <metadata id="CorelCorpID_0Corel-Layer"/>
  <g id="_2458212112384">
   <polygon fill="#006633" points="0,500 500,500 500,0 0,0 "/>
   <g>
    <path fill="white" d="M257.03 241.7c0,0 6.69,-20.19 7.65,-22.21 0.95,-2.02 1.91,-5.31 8.6,-5.31 6.7,0 37.72,0 37.72,0 0,0 5.21,-1.49 7.44,3.93 2.23,5.42 8.71,21.89 8.71,21.89l0 32.93c0,0 -0.37,3.94 -5.63,3.94 -5.26,0 -6.57,-1.96 -6.57,-3.8 0,-1.83 0,-4.86 0,-4.86l-46.34 0 0 5.1c0,0 -0.47,3.41 -5.91,3.41 -5.43,0 -6.37,-3.68 -6.37,-3.68l0.7 -31.34zm135.05 58.29l-24.6 -24.6 0.48 -0.48 -76.22 62.36c-35.7,-29.2 -71.39,-58.41 -107.08,-87.62l-65.72 -1.99c-0.31,10.78 -4.81,20.51 -11.92,27.63 -7.38,7.37 -17.57,11.94 -28.83,11.94 -11.26,0 -21.45,-4.57 -28.83,-11.94 -7.38,-7.38 -11.94,-17.57 -11.94,-28.83 0,-11.26 4.56,-21.45 11.94,-28.83 7.38,-7.38 17.57,-11.94 28.83,-11.94 11.26,0 21.45,4.56 28.83,11.94 7.37,7.38 11.94,17.57 11.94,28.83l0.03 -1.2 65.77 1.99 54.72 -44.78 -34.88 -34.88 1.71 -1.71c-8.45,6.22 -18.89,9.89 -30.19,9.89 -14.08,0 -26.83,-5.71 -36.06,-14.94 -9.23,-9.23 -14.94,-21.98 -14.94,-36.06 0,-14.08 5.71,-26.83 14.94,-36.06 9.23,-9.23 21.98,-14.94 36.06,-14.94 14.08,0 26.84,5.71 36.06,14.94 9.23,9.23 14.94,21.98 14.94,36.06 0,14.08 -5.71,26.83 -14.94,36.06 -1.25,1.26 -2.57,2.45 -3.95,3.57l35 35 48.51 -39.69c18.96,15.51 37.91,31.02 56.87,46.53l21.22 -18.47c-8.96,-9.58 -14.44,-22.45 -14.44,-36.6 0,-14.8 6,-28.2 15.7,-37.9 9.7,-9.7 23.1,-15.7 37.9,-15.7 14.8,0 28.2,6 37.9,15.7 9.7,9.7 15.7,23.1 15.7,37.9 0,14.8 -6,28.2 -15.7,37.9 -9.7,9.7 -23.1,15.7 -37.9,15.7 -14.8,0 -28.2,-6 -37.9,-15.7l1.19 1.36 -20.84 18.13 48.81 39.93 -0.86 0.7 -30.55 25 24.42 24.41c0.96,-1.3 2.02,-2.53 3.17,-3.68 5.87,-5.87 13.98,-9.5 22.94,-9.5 8.97,0 17.08,3.63 22.95,9.5 5.87,5.88 9.51,13.99 9.51,22.95 0,8.96 -3.64,17.08 -9.51,22.95 -5.87,5.87 -13.98,9.51 -22.95,9.51 -8.96,0 -17.07,-3.64 -22.94,-9.51 -5.88,-5.87 -9.51,-13.99 -9.51,-22.95 0,-6.88 2.14,-13.27 5.8,-18.52l-0.64 0.64zm-148.39 -98.63l-2.66 2.66 -0.26 -0.26 -54.68 44.73 0 0 105.65 86.45 105.65 -86.45 -105.65 -86.44 -48.05 39.31zm165.3 -1.53c13.44,0 25.6,-5.44 34.41,-14.25 8.81,-8.81 14.25,-20.97 14.25,-34.41 0,-13.44 -5.44,-25.6 -14.25,-34.41 -8.81,-8.8 -20.97,-14.25 -34.41,-14.25 -13.44,0 -25.6,5.45 -34.41,14.25 -8.8,8.81 -14.25,20.97 -14.25,34.41 0,13.44 5.45,25.6 14.25,34.41 8.81,8.81 20.97,14.25 34.41,14.25zm10.38 147.5c8.14,0 15.51,-3.29 20.84,-8.62 5.33,-5.34 8.63,-12.7 8.63,-20.84 0,-8.13 -3.3,-15.5 -8.63,-20.83 -5.33,-5.33 -12.7,-8.63 -20.84,-8.63 -8.13,0 -15.5,3.3 -20.83,8.63 -5.33,5.33 -8.63,12.7 -8.63,20.83 0,8.14 3.3,15.5 8.63,20.84 5.33,5.33 12.7,8.62 20.83,8.62zm-243.25 -176.26c12.79,0 24.36,-5.18 32.74,-13.56 8.38,-8.38 13.56,-19.95 13.56,-32.74 0,-12.78 -5.18,-24.36 -13.56,-32.74 -8.38,-8.38 -19.95,-13.56 -32.74,-13.56 -12.78,0 -24.36,5.18 -32.74,13.56 -8.38,8.38 -13.56,19.96 -13.56,32.74 0,12.79 5.18,24.36 13.56,32.74 8.38,8.38 19.96,13.56 32.74,13.56zm115.62 141.24l78 -63.82 -78 -63.82 -77.99 63.82 77.99 63.82zm85.99 -61.02l-85.99 70.35 -89.4 -73.15 89.4 -73.15 89.41 73.15 -3.42 2.8zm-299.54 32.18c10.22,0 19.47,-4.14 26.17,-10.84 6.7,-6.7 10.84,-15.95 10.84,-26.17 0,-10.22 -4.14,-19.48 -10.84,-26.17 -6.7,-6.7 -15.95,-10.84 -26.17,-10.84 -10.22,0 -19.48,4.14 -26.18,10.84 -6.69,6.69 -10.84,15.95 -10.84,26.17 0,10.22 4.15,19.47 10.84,26.17 6.7,6.7 15.96,10.84 26.18,10.84zm192.54 -63.45l42.08 0 6.37 17 -54.71 0 6.26 -17zm42.69 36.39c2.82,0 5.11,-2.28 5.11,-5.1 0,-2.81 -2.29,-5.1 -5.11,-5.1 -2.81,0 -5.09,2.29 -5.09,5.1 0,2.82 2.28,5.1 5.09,5.1zm-43.15 0c2.82,0 5.1,-2.28 5.1,-5.1 0,-2.81 -2.28,-5.1 -5.1,-5.1 -2.81,0 -5.1,2.29 -5.1,5.1 0,2.82 2.29,5.1 5.1,5.1z"/>
    <path fill="white" d="M427.39 320.34c4.84,2.01 8.55,5.79 10.05,10.37 -4.52,4.96 -10.99,8.07 -18.18,8.07 -7.1,0 -13.5,-3.04 -18.01,-7.89 1.45,-4.66 5.2,-8.51 10.11,-10.55 2.25,1.72 5.02,2.73 8.01,2.73 3,0 5.77,-1.01 8.02,-2.73z"/>
    <path fill="white" d="M429.38 308.2c0,-6.6 -4.48,-11.95 -10.01,-11.95 -5.52,0 -10,5.35 -10,11.95 0,6.61 4.48,11.96 10,11.96 5.53,0 10.01,-5.35 10.01,-11.96z"/>
    <path fill="white" d="M66.43 269.62l2.68 0 0.51 -3.16c0.97,-0.14 1.9,-0.39 2.78,-0.74l2.02 2.48 2.33 -1.34 -1.14 -2.99c0.75,-0.6 1.43,-1.28 2.03,-2.03l2.99 1.13 1.34 -2.32 -2.48 -2.02c0.35,-0.88 0.6,-1.81 0.74,-2.78l3.16 -0.51 0 -2.69 -3.16 -0.51c-0.14,-0.96 -0.39,-1.89 -0.74,-2.77l2.48 -2.02 -1.34 -2.33 -2.99 1.14c-0.6,-0.75 -1.28,-1.43 -2.03,-2.03l1.14 -2.99 -2.33 -1.34 -2.02 2.47c-0.88,-0.34 -1.81,-0.59 -2.78,-0.74l-0.51 -3.16 -2.68 0 -0.51 3.16c-0.97,0.15 -1.9,0.4 -2.78,0.75l-2.02 -2.48 -2.33 1.34 1.14 2.99c-0.75,0.6 -1.43,1.28 -2.03,2.03l-2.99 -1.14 -1.34 2.33 2.48 2.02c-0.35,0.88 -0.6,1.81 -0.75,2.77l-3.16 0.51 0 2.69 3.16 0.51c0.15,0.97 0.4,1.9 0.75,2.78l-2.48 2.02 1.34 2.32 2.99 -1.14c0.6,0.76 1.28,1.44 2.03,2.04l-1.14 2.99 2.33 1.34 2.02 -2.48c0.88,0.35 1.81,0.6 2.78,0.74l0.51 3.16zm1.34 -22.62c3.86,0 6.99,3.13 6.99,7 0,3.86 -3.13,6.99 -6.99,6.99 -3.86,0 -7,-3.13 -7,-6.99 0,-3.87 3.14,-7 7,-7z"/>
    <path fill="white" d="M77 239.54l1.6 0.26 0.61 -1.82c0.59,0.01 1.17,-0.05 1.72,-0.17l0.96 1.67 1.51 -0.56 -0.38 -1.89c0.51,-0.28 0.98,-0.62 1.41,-1.01l1.66 0.98 1.03 -1.25 -1.27 -1.45c0.29,-0.49 0.53,-1.01 0.71,-1.57l1.93 0.01 0.26 -1.6 -1.82 -0.61c0.01,-0.59 -0.05,-1.17 -0.17,-1.72l1.67 -0.96 -0.56 -1.51 -1.89 0.38c-0.28,-0.51 -0.62,-0.98 -1.01,-1.41l0.98 -1.66 -1.25 -1.03 -1.45 1.27c-0.49,-0.29 -1.01,-0.53 -1.57,-0.71l0.01 -1.93 -1.6 -0.26 -0.61 1.82c-0.59,-0.01 -1.17,0.05 -1.72,0.17l-0.96 -1.67 -1.51 0.56 0.38 1.89c-0.51,0.28 -0.98,0.62 -1.41,1.01l-1.66 -0.98 -1.03 1.25 1.27 1.45c-0.29,0.49 -0.53,1.01 -0.71,1.57l-1.93 -0.01 -0.26 1.6 1.82 0.61c-0.01,0.59 0.05,1.17 0.17,1.72l-1.67 0.96 0.56 1.51 1.89 -0.38c0.28,0.51 0.62,0.98 1.01,1.41l-0.97 1.66 1.24 1.03 1.45 -1.27c0.49,0.29 1.01,0.53 1.57,0.71l-0.01 1.93zm3.04 -13.3c2.29,0.39 3.84,2.55 3.46,4.85 -0.38,2.29 -2.55,3.84 -4.85,3.46 -2.29,-0.39 -3.84,-2.55 -3.46,-4.85 0.39,-2.29 2.55,-3.84 4.85,-3.46z"/>
    <path fill="white" d="M91.69 258.22l1.75 0.29 0.68 -2c0.64,0.01 1.27,-0.05 1.88,-0.18l1.05 1.83 1.66 -0.62 -0.42 -2.07c0.56,-0.31 1.07,-0.68 1.54,-1.1l1.83 1.06 1.12 -1.37 -1.39 -1.58c0.32,-0.54 0.59,-1.11 0.78,-1.73l2.12 0.01 0.29 -1.75 -2 -0.67c0.01,-0.64 -0.05,-1.28 -0.19,-1.89l1.84 -1.04 -0.62 -1.66 -2.08 0.41c-0.3,-0.55 -0.67,-1.07 -1.1,-1.54l1.07 -1.82 -1.37 -1.13 -1.58 1.4c-0.54,-0.33 -1.12,-0.59 -1.73,-0.79l0.01 -2.11 -1.75 -0.29 -0.67 2c-0.65,-0.01 -1.28,0.05 -1.89,0.18l-1.05 -1.83 -1.66 0.62 0.42 2.07c-0.55,0.31 -1.07,0.68 -1.54,1.1l-1.83 -1.06 -1.12 1.37 1.39 1.58c-0.32,0.54 -0.58,1.11 -0.78,1.73l-2.11 -0.01 -0.29 1.75 2 0.67c-0.02,0.64 0.05,1.27 0.18,1.89l-1.83 1.04 0.62 1.66 2.07 -0.41c0.31,0.55 0.68,1.07 1.1,1.54l-1.07 1.82 1.37 1.13 1.59 -1.4c0.53,0.33 1.11,0.59 1.72,0.79l-0.01 2.11zm3.33 -14.58c2.51,0.42 4.21,2.8 3.79,5.31 -0.42,2.52 -2.79,4.22 -5.31,3.8 -2.51,-0.42 -4.21,-2.8 -3.79,-5.31 0.42,-2.52 2.8,-4.22 5.31,-3.8z"/>
    <path fill="white" d="M169.45 150.07l24.13 3.75c13.96,-1.13 -4.42,-8.12 4.48,-6.73 5.09,0.79 6.72,0.39 7.18,-0.1 -0.01,0.01 5.59,-35.97 6.73,-43.29l-34.48 -5.36 -8.04 51.73zm5.33 -12.71l27.93 4.34 0.71 -4.6 -27.93 -4.34 -0.71 4.6zm1.16 -7.47l27.93 4.34 0.71 -4.6 -27.93 -4.34 -0.71 4.6zm1.16 -7.48l27.93 4.34 0.72 -4.59 -27.94 -4.35 -0.71 4.6zm1.16 -7.47l27.93 4.34 0.72 -4.6 -27.93 -4.34 -0.72 4.6zm1.25 -8.05l27.93 4.35 0.72 -4.6 -27.93 -4.34 -0.72 4.59z"/>
    <path fill="white" d="M169.18 110.33l-2.43 3.23 -8.38 11.09 -12.16 16.1 -7.52 -5.67 12.16 -16.11 8.38 -11.09 2.44 -3.22 0.25 -0.34 9.2 -4.37 0 0 -1.68 10.04 -0.26 0.34zm-1.53 0.68l-2.29 3.03 -7.88 10.44 -11.44 15.15 -6.23 -4.69 11.45 -15.16 7.88 -10.44 2.29 -3.03 0.24 -0.32 8.23 -4.42 0 0 -2 9.12 -0.25 0.32z"/>
    <path fill="white" d="M167.55 109.1l-2.43 3.23 -8.38 11.09 -12.16 16.1 -4.26 -3.21 12.16 -16.11 8.38 -11.09 2.44 -3.22 0.25 -0.34 7.57 -5.6 0 0 -3.31 8.81 -0.26 0.34zm-1.25 0.89l-2.28 3.03 -7.89 10.44 -11.44 15.16 -3.53 -2.67 11.45 -15.15 7.88 -10.44 2.29 -3.03 0.24 -0.32 6.88 -5.44 0 0 -3.35 8.1 -0.25 0.32z"/>
    <polygon fill="white" points="143.17,137.98 170.59,101.67 169.7,101 142.28,137.31 "/>
    <polygon fill="#006633" points="162.07,105.46 168.29,110.16 170.49,102.01 165.68,103.04 "/>
    <polygon fill="white" points="166.52,102.14 170.28,104.97 171.12,99.95 "/>
    <path fill="white" d="M434.58 147.6l0 7.46c-0.03,0.5 -0.13,0.65 -0.17,1.16 -0.03,0.48 0.02,1.03 0.01,1.52 -0.01,0.68 -0.15,0.74 -0.17,1.38l-0.43 4.1c-1.15,6.35 -2.27,13.06 -7.41,18.07 -0.35,0.35 -0.59,0.48 -0.92,0.81 -0.81,0.82 -2.02,1.57 -3.49,1.75l-10.89 0.49c-0.71,-0.4 -0.35,-0.92 -2.23,-1.67 -1.13,-0.46 -2.32,-1.22 -2.87,-0.8 -0.73,0.65 0.82,1.03 1.54,1.31 0.96,0.36 1.51,0.52 1.93,1.2l-10.77 -0.26c0,-0.05 0.02,-0.12 0.06,-0.22 6.94,-0.91 12.46,-15.17 12.46,-32.64 0,-17.57 -5.58,-31.9 -12.58,-32.66 -0.04,-0.09 -0.08,-0.18 -0.11,-0.26l8.43 0c1.92,0.14 5.51,2.57 6.86,1.3 0.3,-0.89 -0.59,-0.86 -1.27,-1.3l5.19 0c-0.28,0.92 -1.73,2.1 -0.03,2.67 1.34,-0.25 1.25,-1.91 2.15,-2.54 2.49,-0.06 4.4,0.76 5.66,1.73 5.86,4.51 8.31,16.58 8.72,23.01 0.04,0.57 0.17,0.69 0.17,1.39 0,0.52 -0.04,0.95 0.07,1.46 0.04,0.24 0.07,0.8 0.09,1.54zm-2.94 -9.97c-0.84,-0.16 -2.03,0.27 -2.89,0.5 -2.42,0.63 -6.28,3.74 -5.33,4.52 0.99,0.82 2.34,-1.44 4.06,-2.46 1.55,-0.92 5.03,-0.54 4.16,-2.56zm-14.8 43.52c1.67,0.51 3.05,-0.95 5.01,-0.97 1.58,-0.01 5.03,1.21 4.3,-0.88 -1.23,-0.47 -4.1,-0.78 -5.67,-0.4 -0.87,0.22 -1.54,0.46 -2.36,0.73 -1.1,0.36 -1.67,0.45 -1.28,1.52zm11.85 -55.54c-0.88,-0.15 -1.98,0.42 -2.81,0.74 -1.95,0.75 -2.65,1.68 -3.91,3.07 -0.31,0.34 -1.61,1.44 -0.91,2.03 0.79,0.65 1.73,-0.73 2.09,-1.13 0.51,-0.55 1.12,-1.36 1.68,-1.75 1.37,-0.97 4.58,-1.04 3.86,-2.96zm-3.2 -3.93c0.19,-1.09 -0.28,-1.68 -1.46,-1.19 -0.65,0.27 -1.71,0.71 -2.27,1.05 -0.77,0.48 -2.3,2.52 -2.65,3.55 -0.32,0.96 0.62,1.66 1.34,1.03 0.27,-0.24 0.95,-1.54 1.16,-1.91 0.91,-1.57 2.19,-1.55 3.88,-2.53zm6.31 27.69c-2.67,0.45 -3.63,0.56 -5.13,1.81 -0.62,0.51 -1.36,0.91 -1.93,1.43 -0.63,0.57 -0.78,1.8 0.45,1.49 0.87,-0.23 2.42,-2.22 4.01,-2.62 0.85,-0.22 2.27,-0.35 2.95,-0.65 0.86,-0.38 0.89,-1.67 -0.35,-1.46zm-7.62 10.12c1.09,0.27 1.52,-0.35 2.25,-0.79 0.6,-0.36 1.42,-1 2.18,-1.23 1.59,-0.5 5.58,-0.06 4.16,-1.99 -3.57,-0.38 -5.65,1.12 -7.59,2.27 -0.73,0.43 -1.43,0.86 -1,1.74zm5.47 -28.05c-4.13,1.14 -3.86,1.29 -6.56,3.88 -0.75,0.73 -0.84,2.17 0.58,1.48 0.32,-0.16 1.4,-1.3 1.72,-1.62 2.05,-2.04 3.16,-1.47 4.74,-2.32 0.85,-0.46 0.93,-1.81 -0.48,-1.42zm-1.94 30.56c-1.61,0.29 -3.2,1.32 -4.31,1.96 -0.73,0.42 -1.16,1.51 0.09,1.51 0.89,-0.01 2.76,-1.74 4.32,-1.93 0.91,-0.12 2.45,0 3.22,-0.19 0.82,-0.21 1.23,-1.41 -0.07,-1.52 -0.51,-0.04 -2.78,0.09 -3.25,0.17zm3.68 -18.35c-3.46,0.43 -4.91,1.44 -6.9,3.09 -0.24,0.2 -0.65,0.51 -0.71,0.91 -0.09,0.54 0.26,0.9 0.98,0.74 0.89,-0.21 2.25,-2.15 3.95,-2.59 0.83,-0.22 2.11,-0.36 2.84,-0.61 1.07,-0.37 1.1,-1.7 -0.16,-1.54zm-4.79 24.11c-1.48,0.21 -3.52,1.31 -4.61,1.83 -0.55,0.26 -1.74,1.33 -0.45,1.54 0.62,0.1 1.9,-0.69 2.41,-0.93 3.51,-1.68 3.25,-0.54 5.63,-1.01 0.81,-0.16 1.65,-1.24 0.53,-1.49 -0.36,-0.09 -3.1,0 -3.51,0.06zm-1.32 5.56c-1.09,0.21 -4.25,1.18 -4.84,1.65 -0.78,0.61 -0.35,1.42 0.88,1.05 0.81,-0.24 1.7,-0.61 2.49,-0.89 2.28,-0.8 4.67,0.26 5.71,-0.43 2.25,-1.49 -3.32,-1.55 -4.24,-1.38zm-16.51 4.45c-2.32,0.94 2.33,2.24 2.92,2.62 1.32,0.85 1.52,3.66 3.24,2.88 0.9,-0.41 -0.1,-3.48 -3.59,-4.88 -0.7,-0.28 -1.83,-0.91 -2.57,-0.62zm3.37 -50.76c-0.97,0.07 -2.38,-0.05 -2.14,1.01 0.18,0.86 1.59,0.59 2.74,0.5 3.12,-0.24 3.12,0.22 5.38,1.13 1.29,0.51 3.75,-0.43 -0.21,-1.86 -2.69,-0.98 -2.4,-1.03 -5.77,-0.78zm1.78 31.05c-0.13,1.08 0.61,1.12 1.78,1.34 3.06,0.57 2.54,0.44 4.58,2.05 0.71,0.56 0.78,1.18 2.31,0.86 0.71,-1.06 -0.13,-1.3 -0.91,-1.92 -1.97,-1.58 -1.87,-1.83 -4.83,-2.38 -1.46,-0.27 -1.84,-0.62 -2.93,0.05zm0.91 -15.85c-1.21,0.36 -0.8,1.3 0.29,1.45 1.06,0.15 2.26,0.09 3.34,0.26 1.71,0.28 3.45,2.28 4.62,2.01 0.48,-0.11 0.75,-0.45 0.6,-0.92 -0.15,-0.49 -3.32,-2.52 -5.63,-2.72 -0.86,-0.07 -2.54,-0.29 -3.22,-0.08zm-1.01 -5.67c-0.96,0.55 -0.53,1.26 0.74,1.39 0.99,0.1 2.34,0.08 3.27,0.27 1.49,0.32 3.43,2.37 4.58,1.92 0.42,-0.16 0.63,-0.6 0.41,-1.03 -0.15,-0.3 -0.61,-0.46 -0.97,-0.67 -1.59,-0.96 -2.64,-1.74 -4.8,-1.89 -0.9,-0.07 -2.56,-0.37 -3.23,0.01zm-3.43 -14.49c-1.15,0.1 -2.38,-0.04 -2.65,0.66 -0.39,1.03 0.97,1.03 2.05,0.95 3.23,-0.24 3.15,-0.2 5.6,0.87 0.77,0.34 2.07,0.79 2.3,-0.17 0.17,-0.76 -0.91,-1.05 -1.64,-1.34 -2.1,-0.8 -2.8,-1.21 -5.66,-0.97zm11.13 45.45c0.18,-0.98 -0.64,-1.42 -1.26,-1.99 -1.76,-1.65 -1.86,-1.7 -4.51,-2.36 -0.76,-0.19 -2.39,-0.82 -2.79,0.06 -0.43,0.95 1.04,1.14 1.92,1.36 2.81,0.72 2.48,0.57 4.37,2.47 0.66,0.66 0.99,1.13 2.27,0.46zm-8.88 0.57c-0.78,0.27 -1.3,1 0.36,1.6 0.8,0.29 1.97,0.64 2.64,1.01 1.9,1.07 2.08,3.55 3.77,3 1.18,-0.4 0.21,-1.38 -0.16,-1.84 -0.53,-0.66 -0.97,-1.27 -1.57,-1.83 -0.71,-0.65 -1.19,-0.78 -2.36,-1.23 -0.62,-0.24 -2.09,-0.92 -2.68,-0.71zm2.24 -15.32c-0.95,0.28 -1.04,1.32 0.47,1.52 0.98,0.13 2.24,0.1 3.2,0.3 1.68,0.34 3.32,2.37 4.58,2.04 1.08,-0.28 0.69,-1.02 -0.38,-1.71 -0.63,-0.39 -1.31,-0.83 -2.03,-1.23 -1.59,-0.86 -5.27,-1.08 -5.84,-0.92zm-0.09 -21.2c-1,0.06 -2.56,-0.07 -2.94,0.51 -0.67,1.03 0.84,1.15 1.83,1.1 3.22,-0.15 3.31,-0.08 5.63,1.01 0.65,0.3 1.89,0.82 2.3,0 0.41,-0.81 -0.83,-1.16 -1.55,-1.46 -2,-0.85 -2.53,-1.31 -5.27,-1.16zm2.36 46.76c1.66,0.08 1.72,-0.73 1,-1.59 -1.14,-1.38 -1.67,-2.4 -3.52,-3.12 -0.49,-0.18 -2.38,-0.92 -2.73,-0.97 -1.45,-0.21 -1.75,0.95 -0.7,1.44 2.51,1.17 2.79,0.42 4.41,2.45 0.56,0.7 0.86,1.17 1.54,1.79zm-2.38 -30.68c-0.87,0.44 -0.67,1.25 0.8,1.41 3.47,0.38 2.67,-0.22 5.39,1.42 0.74,0.45 1.53,1.17 2.37,0.83 0.4,-0.16 0.63,-0.5 0.45,-0.95 -0.16,-0.42 -2.46,-1.66 -2.97,-1.92 -0.76,-0.37 -1.54,-0.66 -2.62,-0.75 -0.95,-0.09 -2.7,-0.41 -3.42,-0.04z"/>
    <path fill="white" d="M396.99 183.95c7.27,0 13.16,-14.64 13.16,-32.69 0,-18.06 -5.89,-32.7 -13.16,-32.7 -7.27,0 -13.16,14.64 -13.16,32.7 0,18.05 5.89,32.69 13.16,32.69zm0 -9.86c4.55,0 8.24,-10.22 8.24,-22.83 0,-12.62 -3.69,-22.84 -8.24,-22.84 -4.55,0 -8.25,10.22 -8.25,22.84 0,12.61 3.7,22.83 8.25,22.83z"/>
   </g>
   <polygon fill="white" points="0,500 500,500 500,414.65 0,414.65 "/>
   <path fill="#006633" fill-rule="nonzero" d="M42.05 480.56c-3.08,0 -5.42,-0.88 -7.03,-2.63 -1.62,-1.75 -2.42,-4.22 -2.42,-7.41l0 -21.93c0,-3.19 0.8,-5.66 2.42,-7.41 1.61,-1.75 3.95,-2.62 7.03,-2.62 3.07,0 5.41,0.87 7.03,2.62 1.61,1.75 2.42,4.22 2.42,7.41l0 4.32 -6.07 0 0 -4.73c0,-2.53 -1.07,-3.79 -3.21,-3.79 -2.14,0 -3.21,1.26 -3.21,3.79l0 22.81c0,2.49 1.07,3.73 3.21,3.73 2.14,0 3.21,-1.24 3.21,-3.73l0 -6.24 6.07 0 0 5.77c0,3.19 -0.81,5.66 -2.42,7.41 -1.62,1.75 -3.96,2.63 -7.03,2.63zm18.25 -41.42l8.7 0 6.65 40.83 -6.42 0 -1.17 -8.1 0 0.11 -7.29 0 -1.17 7.99 -5.94 0 6.64 -40.83zm7.01 27.3l-2.86 -20.18 -0.12 0 -2.8 20.18 5.78 0zm11.43 -27.3l9.8 0c3.19,0 5.58,0.86 7.17,2.57 1.6,1.71 2.4,4.22 2.4,7.52l0 20.65c0,3.31 -0.8,5.82 -2.4,7.53 -1.59,1.71 -3.98,2.56 -7.17,2.56l-9.8 0 0 -40.83zm9.68 35c1.05,0 1.86,-0.31 2.42,-0.93 0.57,-0.62 0.85,-1.64 0.85,-3.04l0 -21.23c0,-1.4 -0.28,-2.41 -0.85,-3.03 -0.56,-0.62 -1.37,-0.94 -2.42,-0.94l-3.26 0 0 29.17 3.26 0zm18.84 -35l8.7 0 6.64 40.83 -6.41 0 -1.17 -8.1 0 0.11 -7.29 0 -1.17 7.99 -5.95 0 6.65 -40.83zm7 27.3l-2.85 -20.18 -0.12 0 -2.8 20.18 5.77 0zm19.6 14.12c-3.11,0 -5.46,-0.89 -7.05,-2.66 -1.6,-1.77 -2.4,-4.3 -2.4,-7.61l0 -2.33 6.07 0 0 2.8c0,2.64 1.11,3.96 3.33,3.96 1.08,0 1.91,-0.32 2.47,-0.96 0.57,-0.64 0.85,-1.68 0.85,-3.12 0,-1.71 -0.39,-3.22 -1.17,-4.52 -0.77,-1.3 -2.21,-2.87 -4.31,-4.7 -2.65,-2.33 -4.49,-4.44 -5.54,-6.32 -1.05,-1.89 -1.58,-4.02 -1.58,-6.39 0,-3.23 0.82,-5.73 2.45,-7.5 1.63,-1.77 4.01,-2.65 7.12,-2.65 3.07,0 5.39,0.88 6.97,2.65 1.57,1.77 2.36,4.31 2.36,7.61l0 1.7 -6.07 0 0 -2.1c0,-1.4 -0.27,-2.42 -0.81,-3.07 -0.55,-0.64 -1.34,-0.96 -2.39,-0.96 -2.14,0 -3.21,1.3 -3.21,3.91 0,1.48 0.4,2.86 1.19,4.14 0.8,1.28 2.25,2.84 4.35,4.67 2.68,2.33 4.53,4.45 5.54,6.36 1.01,1.9 1.52,4.14 1.52,6.7 0,3.35 -0.83,5.91 -2.48,7.7 -1.65,1.79 -4.06,2.69 -7.21,2.69zm18.38 -35.59l-6.71 0 0 -5.83 19.83 0 0 5.83 -6.7 0 0 35 -6.42 0 0 -35zm16.22 -5.83l9.5 0c3.31,0 5.72,0.77 7.24,2.31 1.52,1.53 2.27,3.89 2.27,7.08l0 2.51c0,4.24 -1.4,6.92 -4.2,8.05l0 0.12c1.56,0.46 2.66,1.42 3.3,2.86 0.64,1.44 0.96,3.36 0.96,5.77l0 7.18c0,1.16 0.04,2.11 0.12,2.82 0.08,0.72 0.27,1.43 0.58,2.13l-6.53 0c-0.23,-0.66 -0.39,-1.28 -0.47,-1.86 -0.08,-0.59 -0.12,-1.64 -0.12,-3.15l0 -7.47c0,-1.87 -0.3,-3.17 -0.9,-3.91 -0.6,-0.74 -1.64,-1.11 -3.12,-1.11l-2.22 0 0 17.5 -6.41 0 0 -40.83zm8.75 17.5c1.28,0 2.24,-0.33 2.88,-0.99 0.65,-0.66 0.97,-1.77 0.97,-3.33l0 -3.15c0,-1.47 -0.27,-2.54 -0.79,-3.2 -0.53,-0.67 -1.35,-1 -2.48,-1l-2.92 0 0 11.67 2.34 0zm24.03 23.92c-3.15,0 -5.56,-0.9 -7.23,-2.69 -1.68,-1.79 -2.51,-4.31 -2.51,-7.58l0 -21.47c0,-3.26 0.83,-5.79 2.51,-7.58 1.67,-1.79 4.08,-2.68 7.23,-2.68 3.15,0 5.56,0.89 7.23,2.68 1.68,1.79 2.51,4.32 2.51,7.58l0 21.47c0,3.27 -0.83,5.79 -2.51,7.58 -1.67,1.79 -4.08,2.69 -7.23,2.69zm0 -5.84c2.22,0 3.33,-1.34 3.33,-4.02l0 -22.28c0,-2.69 -1.11,-4.03 -3.33,-4.03 -2.22,0 -3.32,1.34 -3.32,4.03l0 22.28c0,2.68 1.1,4.02 3.32,4.02zm22.4 5.84c-3.11,0 -5.46,-0.89 -7.06,-2.66 -1.59,-1.77 -2.39,-4.3 -2.39,-7.61l0 -2.33 6.07 0 0 2.8c0,2.64 1.11,3.96 3.32,3.96 1.09,0 1.92,-0.32 2.48,-0.96 0.57,-0.64 0.85,-1.68 0.85,-3.12 0,-1.71 -0.39,-3.22 -1.17,-4.52 -0.78,-1.3 -2.22,-2.87 -4.32,-4.7 -2.64,-2.33 -4.49,-4.44 -5.54,-6.32 -1.05,-1.89 -1.57,-4.02 -1.57,-6.39 0,-3.23 0.81,-5.73 2.45,-7.5 1.63,-1.77 4,-2.65 7.11,-2.65 3.08,0 5.4,0.88 6.97,2.65 1.58,1.77 2.37,4.31 2.37,7.61l0 1.7 -6.07 0 0 -2.1c0,-1.4 -0.27,-2.42 -0.82,-3.07 -0.54,-0.64 -1.34,-0.96 -2.39,-0.96 -2.14,0 -3.21,1.3 -3.21,3.91 0,1.48 0.4,2.86 1.2,4.14 0.8,1.28 2.25,2.84 4.35,4.67 2.68,2.33 4.53,4.45 5.54,6.36 1.01,1.9 1.51,4.14 1.51,6.7 0,3.35 -0.82,5.91 -2.48,7.7 -1.65,1.79 -4.05,2.69 -7.2,2.69zm22.69 -41.42l17.5 0 0 5.83 -11.08 0 0 10.8 8.81 0 0 5.83 -8.81 0 0 12.54 11.08 0 0 5.83 -17.5 0 0 -40.83zm39.55 41.42c-3.07,0 -5.41,-0.88 -7.03,-2.63 -1.61,-1.75 -2.42,-4.22 -2.42,-7.41l0 -21.93c0,-3.19 0.81,-5.66 2.42,-7.41 1.62,-1.75 3.96,-2.62 7.03,-2.62 3.07,0 5.42,0.87 7.03,2.62 1.61,1.75 2.42,4.22 2.42,7.41l0 4.32 -6.07 0 0 -4.73c0,-2.53 -1.07,-3.79 -3.2,-3.79 -2.14,0 -3.21,1.26 -3.21,3.79l0 22.81c0,2.49 1.07,3.73 3.21,3.73 2.13,0 3.2,-1.24 3.2,-3.73l0 -6.24 6.07 0 0 5.77c0,3.19 -0.81,5.66 -2.42,7.41 -1.61,1.75 -3.96,2.63 -7.03,2.63zm22.69 0c-3.15,0 -5.56,-0.9 -7.23,-2.69 -1.67,-1.79 -2.51,-4.31 -2.51,-7.58l0 -21.47c0,-3.26 0.84,-5.79 2.51,-7.58 1.67,-1.79 4.08,-2.68 7.23,-2.68 3.15,0 5.56,0.89 7.24,2.68 1.67,1.79 2.51,4.32 2.51,7.58l0 21.47c0,3.27 -0.84,5.79 -2.51,7.58 -1.68,1.79 -4.09,2.69 -7.24,2.69zm0 -5.84c2.22,0 3.33,-1.34 3.33,-4.02l0 -22.28c0,-2.69 -1.11,-4.03 -3.33,-4.03 -2.21,0 -3.32,1.34 -3.32,4.03l0 22.28c0,2.68 1.11,4.02 3.32,4.02zm14.06 -35.58l8.05 0 6.24 24.44 0.12 0 0 -24.44 5.72 0 0 40.83 -6.59 0 -7.7 -29.8 -0.12 0 0 29.8 -5.72 0 0 -40.83zm33.25 41.42c-3.11,0 -5.46,-0.89 -7.06,-2.66 -1.59,-1.77 -2.39,-4.3 -2.39,-7.61l0 -2.33 6.07 0 0 2.8c0,2.64 1.11,3.96 3.32,3.96 1.09,0 1.92,-0.32 2.48,-0.96 0.57,-0.64 0.85,-1.68 0.85,-3.12 0,-1.71 -0.39,-3.22 -1.17,-4.52 -0.78,-1.3 -2.21,-2.87 -4.31,-4.7 -2.65,-2.33 -4.5,-4.44 -5.55,-6.32 -1.05,-1.89 -1.57,-4.02 -1.57,-6.39 0,-3.23 0.82,-5.73 2.45,-7.5 1.63,-1.77 4,-2.65 7.12,-2.65 3.07,0 5.39,0.88 6.97,2.65 1.57,1.77 2.36,4.31 2.36,7.61l0 1.7 -6.07 0 0 -2.1c0,-1.4 -0.27,-2.42 -0.82,-3.07 -0.54,-0.64 -1.34,-0.96 -2.39,-0.96 -2.13,0 -3.2,1.3 -3.2,3.91 0,1.48 0.39,2.86 1.19,4.14 0.8,1.28 2.25,2.84 4.35,4.67 2.68,2.33 4.53,4.45 5.54,6.36 1.01,1.9 1.52,4.14 1.52,6.7 0,3.35 -0.83,5.91 -2.48,7.7 -1.66,1.79 -4.06,2.69 -7.21,2.69zm22.69 0c-3.11,0 -5.48,-0.89 -7.11,-2.66 -1.64,-1.77 -2.45,-4.3 -2.45,-7.61l0 -31.15 6.41 0 0 31.62c0,1.4 0.29,2.41 0.85,3.03 0.56,0.62 1.37,0.93 2.42,0.93 1.05,0 1.86,-0.31 2.42,-0.93 0.57,-0.62 0.85,-1.63 0.85,-3.03l0 -31.62 6.18 0 0 31.15c0,3.31 -0.82,5.84 -2.45,7.61 -1.63,1.77 -4,2.66 -7.12,2.66zm14.12 -41.42l6.42 0 0 35 10.56 0 0 5.83 -16.98 0 0 -40.83zm20.53 5.83l-6.7 0 0 -5.83 19.83 0 0 5.83 -6.71 0 0 35 -6.42 0 0 -35zm18.5 -5.83l8.69 0 6.65 40.83 -6.42 0 -1.17 -8.1 0 0.11 -7.29 0 -1.16 7.99 -5.95 0 6.65 -40.83zm7 27.3l-2.86 -20.18 -0.12 0 -2.8 20.18 5.78 0zm19.6 14.12c-3.12,0 -5.47,-0.89 -7.06,-2.66 -1.6,-1.77 -2.39,-4.3 -2.39,-7.61l0 -2.33 6.06 0 0 2.8c0,2.64 1.11,3.96 3.33,3.96 1.09,0 1.91,-0.32 2.48,-0.96 0.56,-0.64 0.84,-1.68 0.84,-3.12 0,-1.71 -0.39,-3.22 -1.16,-4.52 -0.78,-1.3 -2.22,-2.87 -4.32,-4.7 -2.65,-2.33 -4.49,-4.44 -5.54,-6.32 -1.05,-1.89 -1.58,-4.02 -1.58,-6.39 0,-3.23 0.82,-5.73 2.45,-7.5 1.64,-1.77 4.01,-2.65 7.12,-2.65 3.07,0 5.4,0.88 6.97,2.65 1.58,1.77 2.36,4.31 2.36,7.61l0 1.7 -6.06 0 0 -2.1c0,-1.4 -0.28,-2.42 -0.82,-3.07 -0.54,-0.64 -1.34,-0.96 -2.39,-0.96 -2.14,0 -3.21,1.3 -3.21,3.91 0,1.48 0.4,2.86 1.2,4.14 0.79,1.28 2.24,2.84 4.34,4.67 2.68,2.33 4.53,4.45 5.54,6.36 1.01,1.9 1.52,4.14 1.52,6.7 0,3.35 -0.83,5.91 -2.48,7.7 -1.65,1.79 -4.05,2.69 -7.2,2.69z"/>
  </g>
 </g>
</svg>
