<?xml version="1.0" encoding="UTF-8"?>
<!DOCTYPE svg PUBLIC "-//W3C//DTD SVG 1.1//EN" "http://www.w3.org/Graphics/SVG/1.1/DTD/svg11.dtd">
<!-- Creator: CorelDRAW 2019 (64 Bit) -->
<svg xmlns="http://www.w3.org/2000/svg" xml:space="preserve" width="7.5352mm" height="7.5352mm" version="1.1" style="shape-rendering:geometricPrecision; text-rendering:geometricPrecision; image-rendering:optimizeQuality; fill-rule:evenodd; clip-rule:evenodd"
viewBox="0 0 753.52 753.52"
 xmlns:xlink="http://www.w3.org/1999/xlink">
 <defs>
  <style type="text/css">
   <![CDATA[
    .str0 {stroke:#663300;stroke-width:8.47;stroke-miterlimit:22.9256}
    .fil0 {fill:#663300}
    .fil1 {fill:white}
    .fil2 {fill:white}
   ]]>
  </style>
 </defs>
 <g id="Camada_x0020_1">
  <metadata id="CorelCorpID_0Corel-Layer"/>
  <g id="_2458304917632">
   <rect class="fil0" x="-4.23" y="4.23" width="753.53" height="753.53"/>
   <path class="fil1" d="M252.98 324.25c-12.17,-2.03 -16.63,-17.53 -13.4,-23.3 9.26,0.6 5.43,-0.09 10.37,8.09 5.86,-9.56 4.76,-16.39 18.68,-17.73 8.93,2.64 6.5,23.2 25.81,10.65 13.75,-8.94 10.97,-3.47 12.36,-2.79 -3.54,5.81 -13.66,12.21 -21.73,12.68 -11.38,0.66 -16.31,-7.96 -20.59,-13.13 -4.05,6.45 -7.3,20.16 -11.5,25.53zm31.83 -169.18l-12.33 1.95c-0.62,-1.56 -1.18,-2.64 -1.67,-3.24 -0.5,-0.59 -1.31,-1.2 -2.46,-1.81l0 9.56c6.69,1.8 11.17,3.69 13.42,5.66 2.98,2.68 4.47,6.06 4.47,10.17 0,2.39 -0.53,4.61 -1.61,6.61 -1.07,2.01 -2.44,3.68 -4.1,5.04 -1.66,1.34 -3.43,2.31 -5.31,2.92 -1.87,0.61 -4.16,0.96 -6.87,1.07l0 6.24 -4.82 0 0 -6.24c-3.24,-0.28 -5.87,-0.8 -7.89,-1.56 -2.01,-0.75 -3.77,-1.8 -5.23,-3.15 -1.46,-1.33 -2.6,-2.78 -3.39,-4.32 -0.79,-1.55 -1.39,-3.42 -1.79,-5.62l13.35 -1.54c0.4,2.16 0.94,3.74 1.62,4.7 0.67,0.96 1.79,1.81 3.33,2.56l0 -11.7c-4.47,-1.24 -7.63,-2.31 -9.5,-3.21 -1.86,-0.91 -3.48,-2.36 -4.84,-4.36 -1.37,-2 -2.06,-4.43 -2.06,-7.3 0,-3.93 1.38,-7.22 4.12,-9.85 2.76,-2.64 6.85,-4.11 12.28,-4.39l0 -3.26 4.82 0 0 3.26c4.94,0.3 8.73,1.47 11.35,3.5 2.61,2.02 4.32,4.79 5.11,8.31zm-21.28 -3.27c-1.42,0.46 -2.4,1.04 -2.96,1.71 -0.55,0.68 -0.83,1.49 -0.83,2.42 0,0.96 0.28,1.81 0.84,2.52 0.57,0.72 1.55,1.32 2.95,1.81l0 -8.46zm4.82 32.6c1.87,-0.42 3.24,-1.12 4.11,-2.08 0.87,-0.96 1.31,-2.05 1.31,-3.23 0,-1.04 -0.38,-2 -1.11,-2.88 -0.73,-0.87 -2.18,-1.69 -4.31,-2.43l0 10.62zm-221.41 195.31l61.18 61.17c8.92,8.92 23.52,8.92 32.44,0l0 0c8.92,-8.92 8.92,-23.52 0,-32.44l-61.18 -61.17c-8.92,-8.92 -23.51,-8.92 -32.44,0l0 0c-8.92,8.92 -8.92,23.51 0,32.44zm86.58 -187.02c10.12,-3.19 8.52,0.45 9.66,-9.44 0.67,-5.74 -1.17,-14.55 0.2,-20.26 1.66,-6.91 18.06,-19.28 27.47,-30.11 7.59,-8.73 19.12,-17.87 30.18,-31.39l96.64 0.09c25.69,0.01 27.78,-0.28 27.78,27.42l0 186.77c0,33.92 -1.69,27.31 -77.57,27.25 -25.59,-0.02 -84.81,4.12 -102.53,-3.88 -4.32,-33.66 -2.72,-48.59 -2.5,-82.59l-8.43 1.83 -0.97 57.39c0.1,44.52 18.72,36.42 85.38,36.42l76.77 -0.01c33.11,-0.01 39.13,-2.32 39.13,-36.41l0 -186.77c0,-39.08 -12.12,-36.45 -47.43,-36.47 -104.8,-0.03 -74.65,-14.03 -129.07,40.18 -33.48,33.34 -22.31,17.39 -24.71,59.98zm96.89 167.9c-27.3,-2.66 -78.94,7.72 -96.12,-10.05 -11.11,-11.49 -8.46,-24.98 -8.45,-43.07 0.02,-17.78 -0.26,-35.71 -0.09,-53.43 11.15,-4.15 52.93,-20.11 59.07,-26.2 15,-14.86 3.43,-48.25 -30.71,-34.58 -43.33,17.35 -76.43,21.75 -78.07,49.78 -0.81,13.94 -1.06,29.04 -1.29,43.04 -0.74,43.73 -6.67,38.63 18.58,63.91 15.08,15.11 28.96,27.95 43.88,43.28 28.52,29.32 28.49,33.66 72.32,-12.08 5,-5.21 15.86,-16.88 20.88,-20.6zm-62.25 -84.25c2.99,-10.83 27.12,-6.53 50.67,-6.53 35.95,0 49.68,-5.38 49.92,9.55 -12.78,2.06 -58.05,0.63 -76.9,0.87 -9.22,0.12 -18.63,2.48 -23.69,-3.89zm-0.43 -22.83c5.87,-8.67 7.73,-5.23 30.36,-5.16l95.48 0.18c9.45,2.44 3.18,-1.77 7.28,4.98 -5.28,8.66 -6.3,5.6 -30.15,5.43l-95.46 -0.14c-10.38,-2.72 -1.68,1.11 -7.51,-5.29zm87.98 -121.47c46.24,-13.78 63.3,57.92 18.5,69.17 -44.2,11.09 -66.08,-54.99 -18.5,-69.17zm-107.1 33.66l-0.03 21.44c28.24,-17.53 61.24,8.1 47.35,39.13l81.01 0.5c10.76,-0.16 19.86,-3.41 23.88,5.99 -6.55,8.46 -27.51,4.47 -38.42,4.47 -36.67,0 -82.11,-5.85 -113.22,16.28 -1.53,11.84 -2.84,74.27 1.65,80.35 6.22,7.29 159.78,4.08 166.88,1.74 4,-10.23 3.64,-219.33 0.03,-226.4 -13.07,-6.12 -88.34,-1.47 -110.22,-2.14 -9.05,65.61 19.32,56.43 -58.91,58.64z"/>
   <path class="fil2 str0" d="M586.61 591.98c-1.57,-6.4 -2.16,-5.97 -6.58,-10.48l-22.52 -21.5c-5.84,-4.97 -26.78,-24.08 -28.31,-31.7 6.21,3.27 72.51,70.85 82.35,81.19 -7.45,5.78 -24.22,27.67 -33.82,30.2 -19.79,5.24 -31.73,-13.19 -39.9,-21.25 -21.16,-20.92 -61.88,-49.69 -22.41,-75.18 5.52,2.57 25.03,23.59 33,31.12 16.19,15.32 14.19,24.36 38.19,17.6zm-14.04 -106.34c2.81,-4.32 3.9,-12.4 2.53,-18.71 -1.41,-6.51 -5.16,-9.37 -8.64,-12.77 -5.21,-5.09 -15.01,-18.15 -24.78,-19.61 -16.51,-2.46 -21.12,8.63 -28.62,15.39 -8.85,7.99 -14.22,13.8 -22.17,21.95 -6.44,6.6 -14.66,15.57 -21.72,22.29 -3.44,3.26 -8.23,8.15 -11.76,11.13 -20.92,17.64 -28.23,50.26 -17.98,79.32 7.48,21.22 22.15,28.32 29.41,37.64l42.97 43.32c14.77,17.72 53.28,26.64 82.68,12.08 18.89,-9.35 32.14,-27.67 45.89,-39.9 3.6,4.78 4.97,6.7 11.85,9.51 7.03,-12.71 29.3,-26.51 38.61,-41.66 -13.01,-16.45 -111.68,-109.36 -118.27,-119.98z"/>
   <path class="fil2 str0" d="M350.91 370.8c-1.5,8.64 -3.32,28.06 0.55,35.71 15.19,8.18 71.19,2.65 86.01,12.71 9.87,6.7 37.42,38.98 49.75,48.69 5.67,-4.81 23.59,-21.65 26.83,-28.9 -6.66,-4.66 -22.17,-20.87 -29.34,-28.22 -33.29,-34.08 -29.38,-32.51 -79.94,-36.57 -8.09,-0.65 -50.11,-5.23 -53.86,-3.42z"/>
   <path class="fil2 str0" d="M352.31 440.65c-5.67,2.5 -6.48,4.21 -10.09,9.45 -6.5,9.4 -15.55,22.3 -19.29,33.64 -17.24,52.34 69.54,54.06 54.94,2.33 -5.47,-19.39 -19.98,-32.18 -25.56,-45.42z"/>
   <path class="fil2 str0" d="M650.49 667.56c16.85,8.6 16.57,1.11 38.07,-19.74 13.31,-12.9 31.98,-26.51 26,-37.66 -10.73,-20.01 -39.58,17.86 -56.08,34 -7.91,7.73 -10.68,8.53 -7.99,23.4z"/>
  </g>
 </g>
</svg>
