<?xml version="1.0" encoding="UTF-8"?>
<!DOCTYPE svg PUBLIC "-//W3C//DTD SVG 1.1//EN" "http://www.w3.org/Graphics/SVG/1.1/DTD/svg11.dtd">
<!-- Creator: CorelDRAW 2019 (64 Bit) -->
<svg xmlns="http://www.w3.org/2000/svg" xml:space="preserve" width="500px" height="500px" version="1.1" shape-rendering="geometricPrecision" text-rendering="geometricPrecision" image-rendering="optimizeQuality" fill-rule="evenodd" clip-rule="evenodd"
viewBox="0 0 500 500"
 xmlns:xlink="http://www.w3.org/1999/xlink">
 <g id="Camada_x0020_1">
  <metadata id="CorelCorpID_0Corel-Layer"/>
  <g id="_2458211571936">
   <polygon fill="#663300" points="0,500 500,500 500,0 0,0 "/>
   <g>
    <path fill="white" d="M167.61 195.23c-7.07,-1.18 -9.67,-10.19 -7.79,-13.55 5.39,0.35 3.16,-0.05 6.03,4.71 3.41,-5.56 2.77,-9.53 10.86,-10.31 5.19,1.54 3.78,13.48 15,6.19 8,-5.2 6.38,-2.02 7.19,-1.62 -2.06,3.37 -7.94,7.1 -12.63,7.37 -6.62,0.38 -9.48,-4.62 -11.97,-7.64 -2.36,3.76 -4.24,11.72 -6.69,14.85zm18.51 -98.35l-7.17 1.13c-0.36,-0.91 -0.68,-1.53 -0.97,-1.88 -0.29,-0.35 -0.77,-0.7 -1.43,-1.06l0 5.57c3.89,1.04 6.49,2.14 7.8,3.29 1.73,1.55 2.6,3.52 2.6,5.91 0,1.39 -0.31,2.68 -0.94,3.84 -0.62,1.17 -1.41,2.14 -2.38,2.93 -0.97,0.78 -2,1.34 -3.09,1.7 -1.09,0.35 -2.42,0.56 -3.99,0.62l0 3.63 -2.8 0 0 -3.63c-1.89,-0.16 -3.42,-0.47 -4.59,-0.91 -1.17,-0.44 -2.19,-1.05 -3.04,-1.83 -0.85,-0.77 -1.51,-1.61 -1.97,-2.51 -0.46,-0.9 -0.81,-1.99 -1.04,-3.27l7.76 -0.9c0.23,1.27 0.55,2.18 0.94,2.74 0.39,0.56 1.04,1.05 1.94,1.49l0 -6.81c-2.6,-0.71 -4.44,-1.34 -5.53,-1.86 -1.08,-0.53 -2.02,-1.37 -2.81,-2.54 -0.8,-1.16 -1.2,-2.57 -1.2,-4.24 0,-2.28 0.8,-4.19 2.4,-5.72 1.6,-1.54 3.98,-2.39 7.14,-2.56l0 -1.89 2.8 0 0 1.89c2.87,0.18 5.07,0.85 6.59,2.04 1.52,1.17 2.52,2.78 2.98,4.83zm-12.37 -1.9c-0.83,0.27 -1.4,0.6 -1.72,0.99 -0.33,0.4 -0.49,0.87 -0.49,1.41 0,0.56 0.16,1.05 0.49,1.46 0.33,0.42 0.9,0.77 1.72,1.05l0 -4.91zm2.8 18.95c1.08,-0.24 1.88,-0.65 2.39,-1.21 0.5,-0.56 0.76,-1.19 0.76,-1.88 0,-0.6 -0.22,-1.16 -0.65,-1.67 -0.42,-0.51 -1.26,-0.98 -2.5,-1.42l0 6.18zm-128.71 113.54l35.56 35.56c5.19,5.18 13.67,5.18 18.86,0l0 0c5.18,-5.19 5.18,-13.68 0,-18.86l-35.56 -35.56c-5.19,-5.19 -13.67,-5.19 -18.86,0l0 0c-5.19,5.18 -5.19,13.67 0,18.86zm50.33 -108.72c5.88,-1.85 4.95,0.26 5.62,-5.49 0.38,-3.33 -0.69,-8.46 0.11,-11.78 0.96,-4.01 10.5,-11.2 15.97,-17.5 4.41,-5.07 11.11,-10.39 17.54,-18.25l56.18 0.05c14.94,0.01 16.15,-0.16 16.15,15.95l0 108.57c0,19.71 -0.98,15.87 -45.09,15.84 -14.88,-0.01 -49.31,2.4 -59.61,-2.26 -2.5,-19.56 -1.58,-28.24 -1.45,-48.01l-4.9 1.06 -0.56 33.37c0.05,25.88 10.88,21.17 49.63,21.17l44.63 -0.01c19.25,0 22.74,-1.34 22.74,-21.16l0 -108.57c0,-22.72 -7.04,-21.2 -27.57,-21.2 -60.92,-0.03 -43.39,-8.16 -75.03,23.35 -19.46,19.38 -12.97,10.11 -14.36,34.87zm56.32 97.6c-15.87,-1.54 -45.89,4.49 -55.87,-5.84 -6.46,-6.68 -4.92,-14.52 -4.91,-25.04 0,-10.33 -0.15,-20.76 -0.06,-31.06 6.48,-2.41 30.77,-11.69 34.34,-15.23 8.72,-8.63 1.99,-28.05 -17.85,-20.1 -25.19,10.09 -44.43,12.64 -45.39,28.94 -0.47,8.1 -0.61,16.88 -0.75,25.02 -0.43,25.42 -3.87,22.45 10.8,37.15 8.77,8.78 16.84,16.25 25.51,25.16 16.58,17.04 16.57,19.57 42.05,-7.02 2.9,-3.03 9.22,-9.81 12.13,-11.98zm-36.19 -48.97c1.75,-6.3 15.77,-3.8 29.46,-3.8 20.9,0 28.88,-3.13 29.02,5.55 -7.43,1.2 -33.75,0.37 -44.7,0.51 -5.37,0.06 -10.83,1.44 -13.78,-2.26zm-0.25 -13.27c3.42,-5.05 4.5,-3.04 17.65,-3.01l55.51 0.11c5.49,1.42 1.85,-1.03 4.23,2.9 -3.07,5.03 -3.66,3.25 -17.52,3.15l-55.5 -0.08c-6.03,-1.58 -0.97,0.64 -4.37,-3.07zm51.15 -70.62c26.88,-8.01 36.8,33.67 10.75,40.21 -25.69,6.45 -38.41,-31.96 -10.75,-40.21zm-62.26 19.57l-0.02 12.46c16.42,-10.19 35.6,4.71 27.53,22.75l47.09 0.29c6.26,-0.09 11.55,-1.98 13.89,3.48 -3.81,4.92 -16,2.6 -22.34,2.6 -21.32,0 -47.73,-3.4 -65.82,9.47 -0.89,6.88 -1.65,43.17 0.96,46.71 3.61,4.23 92.89,2.37 97.01,1 2.33,-5.94 2.12,-127.5 0.02,-131.61 -7.6,-3.56 -51.35,-0.85 -64.07,-1.24 -5.27,38.14 11.22,32.8 -34.25,34.09z"/>
    <path fill="white" stroke="#663300" stroke-miterlimit="22.9256" d="M381 298.15c-0.91,-3.71 -1.26,-3.46 -3.83,-6.09l-13.09 -12.5c-3.39,-2.88 -15.57,-14 -16.46,-18.42 3.61,1.9 42.16,41.18 47.88,47.19 -4.33,3.36 -14.08,16.09 -19.66,17.56 -11.51,3.05 -18.45,-7.67 -23.2,-12.35 -12.3,-12.16 -35.97,-28.89 -13.02,-43.71 3.21,1.5 14.55,13.71 19.18,18.1 9.41,8.9 8.25,14.15 22.2,10.22zm-8.17 -61.81c1.64,-2.52 2.27,-7.21 1.48,-10.88 -0.82,-3.78 -3,-5.44 -5.03,-7.42 -3.02,-2.96 -8.72,-10.55 -14.4,-11.4 -9.6,-1.43 -12.28,5.01 -16.64,8.95 -5.14,4.64 -8.26,8.02 -12.88,12.75 -3.75,3.84 -8.53,9.06 -12.63,12.96 -2,1.9 -4.78,4.74 -6.84,6.47 -12.16,10.26 -16.41,29.22 -10.45,46.11 4.35,12.34 12.88,16.47 17.1,21.89l24.98 25.18c8.58,10.3 30.97,15.48 48.06,7.02 10.98,-5.43 18.68,-16.09 26.67,-23.2 2.1,2.78 2.9,3.9 6.89,5.54 4.09,-7.39 17.04,-15.42 22.45,-24.22 -7.56,-9.57 -64.92,-63.58 -68.76,-69.75z"/>
    <path fill="white" stroke="#663300" stroke-miterlimit="22.9256" d="M243.98 169.58c-0.87,5.02 -1.93,16.31 0.32,20.76 8.83,4.76 41.38,1.54 50,7.39 5.74,3.89 21.75,22.66 28.92,28.3 3.3,-2.79 13.72,-12.59 15.6,-16.8 -3.87,-2.71 -12.89,-12.13 -17.06,-16.4 -19.35,-19.81 -17.08,-18.9 -46.47,-21.26 -4.7,-0.38 -29.13,-3.04 -31.31,-1.99z"/>
    <path fill="white" stroke="#663300" stroke-miterlimit="22.9256" d="M244.79 210.18c-3.29,1.46 -3.76,2.45 -5.86,5.5 -3.78,5.47 -9.04,12.96 -11.22,19.56 -10.02,30.42 40.43,31.42 31.94,1.35 -3.18,-11.28 -11.61,-18.71 -14.86,-26.41z"/>
    <path fill="white" stroke="#663300" stroke-miterlimit="22.9256" d="M418.14 342.09c9.79,5 9.63,0.64 22.13,-11.47 7.73,-7.5 18.58,-15.42 15.11,-21.89 -6.24,-11.64 -23.01,10.38 -32.6,19.76 -4.6,4.5 -6.21,4.96 -4.64,13.6z"/>
   </g>
   <polygon fill="white" points="0,500 500,500 500,414.65 0,414.65 "/>
   <path fill="#663300" fill-rule="nonzero" d="M27.13 478.63c-2.79,0 -4.92,-0.79 -6.38,-2.38 -1.47,-1.59 -2.2,-3.83 -2.2,-6.73l0 -19.92c0,-2.9 0.73,-5.14 2.2,-6.73 1.46,-1.59 3.59,-2.38 6.38,-2.38 2.79,0 4.92,0.79 6.39,2.38 1.46,1.59 2.19,3.83 2.19,6.73l0 3.92 -5.51 0 0 -4.29c0,-2.3 -0.97,-3.44 -2.91,-3.44 -1.94,0 -2.91,1.14 -2.91,3.44l0 20.71c0,2.26 0.97,3.39 2.91,3.39 1.94,0 2.91,-1.13 2.91,-3.39l0 -5.67 5.51 0 0 5.25c0,2.9 -0.73,5.14 -2.19,6.73 -1.47,1.59 -3.6,2.38 -6.39,2.38zm20.61 0c-2.86,0 -5.05,-0.81 -6.57,-2.44 -1.52,-1.62 -2.28,-3.92 -2.28,-6.88l0 -19.5c0,-2.96 0.76,-5.26 2.28,-6.88 1.52,-1.63 3.71,-2.44 6.57,-2.44 2.86,0 5.05,0.81 6.57,2.44 1.52,1.62 2.28,3.92 2.28,6.88l0 19.5c0,2.96 -0.76,5.26 -2.28,6.88 -1.52,1.63 -3.71,2.44 -6.57,2.44zm0 -5.3c2.01,0 3.02,-1.21 3.02,-3.65l0 -20.24c0,-2.44 -1.01,-3.65 -3.02,-3.65 -2.01,0 -3.02,1.21 -3.02,3.65l0 20.24c0,2.44 1.01,3.65 3.02,3.65zm12.77 -32.31l8.31 0 3.71 26.54 0.11 0 3.71 -26.54 8.31 0 0 37.08 -5.51 0 0 -28.08 -0.1 0 -4.24 28.08 -4.87 0 -4.24 -28.08 -0.11 0 0 28.08 -5.08 0 0 -37.08zm28.5 0l8.58 0c2.89,0 5.07,0.78 6.52,2.33 1.44,1.55 2.17,3.83 2.17,6.83l0 3.66c0,3 -0.73,5.28 -2.17,6.83 -1.45,1.56 -3.63,2.33 -6.52,2.33l-2.76 0 0 15.1 -5.82 0 0 -37.08zm8.58 16.69c0.95,0 1.67,-0.27 2.14,-0.8 0.48,-0.53 0.72,-1.43 0.72,-2.7l0 -4.4c0,-1.27 -0.24,-2.17 -0.72,-2.7 -0.47,-0.53 -1.19,-0.79 -2.14,-0.79l-2.76 0 0 11.39 2.76 0zm11.87 -16.69l8.63 0c3,0 5.19,0.69 6.57,2.09 1.38,1.4 2.07,3.54 2.07,6.44l0 2.28c0,3.84 -1.28,6.28 -3.82,7.31l0 0.1c1.41,0.43 2.41,1.29 2.99,2.6 0.59,1.3 0.88,3.05 0.88,5.24l0 6.52c0,1.06 0.03,1.91 0.11,2.57 0.06,0.65 0.24,1.3 0.52,1.93l-5.93 0c-0.21,-0.6 -0.35,-1.16 -0.42,-1.69 -0.07,-0.53 -0.11,-1.49 -0.11,-2.86l0 -6.79c0,-1.69 -0.27,-2.87 -0.82,-3.55 -0.55,-0.67 -1.49,-1 -2.83,-1l-2.02 0 0 15.89 -5.82 0 0 -37.08zm7.94 15.89c1.17,0 2.04,-0.3 2.62,-0.9 0.59,-0.6 0.88,-1.61 0.88,-3.02l0 -2.86c0,-1.34 -0.24,-2.31 -0.72,-2.91 -0.47,-0.6 -1.22,-0.9 -2.25,-0.9l-2.65 0 0 10.59 2.12 0zm17.91 -15.89l7.89 0 6.04 37.08 -5.83 0 -1.06 -7.36 0 0.1 -6.62 0 -1.06 7.26 -5.4 0 6.04 -37.08zm6.36 24.79l-2.6 -18.33 -0.11 0 -2.54 18.33 5.25 0zm17.79 12.82c-2.82,0 -4.96,-0.8 -6.41,-2.41 -1.44,-1.61 -2.17,-3.91 -2.17,-6.91l0 -2.12 5.51 0 0 2.54c0,2.4 1.01,3.6 3.02,3.6 0.99,0 1.74,-0.29 2.25,-0.87 0.52,-0.58 0.77,-1.53 0.77,-2.83 0,-1.56 -0.35,-2.93 -1.06,-4.11 -0.7,-1.18 -2.01,-2.61 -3.92,-4.27 -2.4,-2.11 -4.08,-4.03 -5.03,-5.74 -0.95,-1.72 -1.43,-3.65 -1.43,-5.8 0,-2.94 0.74,-5.2 2.22,-6.81 1.49,-1.61 3.64,-2.41 6.47,-2.41 2.79,0 4.9,0.8 6.33,2.41 1.43,1.61 2.14,3.91 2.14,6.91l0 1.54 -5.51 0 0 -1.91c0,-1.27 -0.24,-2.2 -0.74,-2.78 -0.49,-0.58 -1.22,-0.87 -2.17,-0.87 -1.94,0 -2.91,1.18 -2.91,3.55 0,1.34 0.36,2.59 1.08,3.76 0.73,1.16 2.04,2.57 3.95,4.23 2.44,2.12 4.11,4.05 5.03,5.78 0.92,1.73 1.38,3.76 1.38,6.09 0,3.04 -0.75,5.37 -2.25,6.99 -1.5,1.63 -3.68,2.44 -6.55,2.44zm20.61 -37.61l15.89 0 0 5.3 -10.06 0 0 9.8 8 0 0 5.29 -8 0 0 11.39 10.06 0 0 5.3 -15.89 0 0 -37.08zm32.21 0l7.89 0 6.04 37.08 -5.82 0 -1.06 -7.36 0 0.1 -6.63 0 -1.06 7.26 -5.4 0 6.04 -37.08zm6.36 24.79l-2.6 -18.33 -0.1 0 -2.55 18.33 5.25 0zm10.38 -24.79l8.8 0c3,0 5.19,0.69 6.56,2.09 1.38,1.4 2.07,3.54 2.07,6.44l0 1.48c0,1.91 -0.31,3.46 -0.93,4.66 -0.62,1.2 -1.56,2.07 -2.83,2.6l0 0.1c2.9,0.99 4.34,3.57 4.34,7.74l0 3.18c0,2.86 -0.75,5.04 -2.25,6.54 -1.5,1.5 -3.7,2.25 -6.59,2.25l-9.17 0 0 -37.08zm8.11 15.1c1.16,0 2.04,-0.3 2.62,-0.9 0.58,-0.61 0.87,-1.61 0.87,-3.02l0 -2.07c0,-1.34 -0.24,-2.31 -0.71,-2.91 -0.48,-0.6 -1.23,-0.9 -2.25,-0.9l-2.81 0 0 9.8 2.28 0zm1.06 16.68c1.02,0 1.78,-0.27 2.27,-0.82 0.5,-0.55 0.75,-1.49 0.75,-2.83l0 -3.23c0,-1.7 -0.3,-2.87 -0.88,-3.53 -0.58,-0.65 -1.54,-0.98 -2.89,-0.98l-2.59 0 0 11.39 3.34 0zm16.74 -31.78l7.89 0 6.04 37.08 -5.83 0 -1.06 -7.36 0 0.1 -6.62 0 -1.06 7.26 -5.4 0 6.04 -37.08zm6.35 24.79l-2.59 -18.33 -0.11 0 -2.54 18.33 5.24 0zm17.8 12.82c-2.82,0 -4.96,-0.8 -6.41,-2.41 -1.45,-1.61 -2.17,-3.91 -2.17,-6.91l0 -2.12 5.51 0 0 2.54c0,2.4 1.01,3.6 3.02,3.6 0.99,0 1.74,-0.29 2.25,-0.87 0.51,-0.58 0.77,-1.53 0.77,-2.83 0,-1.56 -0.35,-2.93 -1.06,-4.11 -0.71,-1.18 -2.01,-2.61 -3.92,-4.27 -2.4,-2.11 -4.08,-4.03 -5.03,-5.74 -0.96,-1.72 -1.43,-3.65 -1.43,-5.8 0,-2.94 0.74,-5.2 2.22,-6.81 1.48,-1.61 3.64,-2.41 6.46,-2.41 2.79,0 4.9,0.8 6.33,2.41 1.43,1.61 2.15,3.91 2.15,6.91l0 1.54 -5.51 0 0 -1.91c0,-1.27 -0.25,-2.2 -0.74,-2.78 -0.49,-0.58 -1.22,-0.87 -2.17,-0.87 -1.94,0 -2.92,1.18 -2.92,3.55 0,1.34 0.37,2.59 1.09,3.76 0.72,1.16 2.04,2.57 3.95,4.23 2.43,2.12 4.11,4.05 5.03,5.78 0.92,1.73 1.38,3.76 1.38,6.09 0,3.04 -0.75,5.37 -2.26,6.99 -1.5,1.63 -3.68,2.44 -6.54,2.44zm16.69 -32.31l-6.09 0 0 -5.3 18.01 0 0 5.3 -6.09 0 0 31.78 -5.83 0 0 -31.78zm14.73 -5.3l15.89 0 0 5.3 -10.07 0 0 9.8 8 0 0 5.29 -8 0 0 11.39 10.07 0 0 5.3 -15.89 0 0 -37.08zm27.44 37.61c-2.79,0 -4.92,-0.79 -6.39,-2.38 -1.46,-1.59 -2.19,-3.83 -2.19,-6.73l0 -19.92c0,-2.9 0.73,-5.14 2.19,-6.73 1.47,-1.59 3.6,-2.38 6.39,-2.38 2.79,0 4.92,0.79 6.38,2.38 1.47,1.59 2.2,3.83 2.2,6.73l0 3.92 -5.51 0 0 -4.29c0,-2.3 -0.97,-3.44 -2.91,-3.44 -1.95,0 -2.92,1.14 -2.92,3.44l0 20.71c0,2.26 0.97,3.39 2.92,3.39 1.94,0 2.91,-1.13 2.91,-3.39l0 -5.67 5.51 0 0 5.25c0,2.9 -0.73,5.14 -2.2,6.73 -1.46,1.59 -3.59,2.38 -6.38,2.38zm12.08 -37.61l5.82 0 0 37.08 -5.82 0 0 -37.08zm10.17 0l8.32 0 3.7 26.54 0.11 0 3.71 -26.54 8.32 0 0 37.08 -5.51 0 0 -28.08 -0.11 0 -4.24 28.08 -4.87 0 -4.24 -28.08 -0.11 0 0 28.08 -5.08 0 0 -37.08zm28.5 0l15.89 0 0 5.3 -10.06 0 0 9.8 8 0 0 5.29 -8 0 0 11.39 10.06 0 0 5.3 -15.89 0 0 -37.08zm19.23 0l7.31 0 5.67 22.19 0.11 0 0 -22.19 5.19 0 0 37.08 -5.99 0 -6.99 -27.07 -0.11 0 0 27.07 -5.19 0 0 -37.08zm27.18 5.3l-6.1 0 0 -5.3 18.02 0 0 5.3 -6.1 0 0 31.78 -5.82 0 0 -31.78zm22.94 32.31c-2.86,0 -5.05,-0.81 -6.57,-2.44 -1.52,-1.62 -2.28,-3.92 -2.28,-6.88l0 -19.5c0,-2.96 0.76,-5.26 2.28,-6.88 1.52,-1.63 3.71,-2.44 6.57,-2.44 2.86,0 5.05,0.81 6.56,2.44 1.52,1.62 2.28,3.92 2.28,6.88l0 19.5c0,2.96 -0.76,5.26 -2.28,6.88 -1.51,1.63 -3.7,2.44 -6.56,2.44zm0 -5.3c2.01,0 3.02,-1.21 3.02,-3.65l0 -20.24c0,-2.44 -1.01,-3.65 -3.02,-3.65 -2.02,0 -3.02,1.21 -3.02,3.65l0 20.24c0,2.44 1,3.65 3.02,3.65zm20.34 5.3c-2.83,0 -4.96,-0.8 -6.41,-2.41 -1.45,-1.61 -2.17,-3.91 -2.17,-6.91l0 -2.12 5.51 0 0 2.54c0,2.4 1,3.6 3.02,3.6 0.98,0 1.74,-0.29 2.25,-0.87 0.51,-0.58 0.77,-1.53 0.77,-2.83 0,-1.56 -0.36,-2.93 -1.06,-4.11 -0.71,-1.18 -2.02,-2.61 -3.92,-4.27 -2.41,-2.11 -4.08,-4.03 -5.04,-5.74 -0.95,-1.72 -1.43,-3.65 -1.43,-5.8 0,-2.94 0.74,-5.2 2.23,-6.81 1.48,-1.61 3.63,-2.41 6.46,-2.41 2.79,0 4.9,0.8 6.33,2.41 1.43,1.61 2.15,3.91 2.15,6.91l0 1.54 -5.51 0 0 -1.91c0,-1.27 -0.25,-2.2 -0.74,-2.78 -0.5,-0.58 -1.22,-0.87 -2.18,-0.87 -1.94,0 -2.91,1.18 -2.91,3.55 0,1.34 0.36,2.59 1.09,3.76 0.72,1.16 2.04,2.57 3.94,4.23 2.44,2.12 4.12,4.05 5.03,5.78 0.92,1.73 1.38,3.76 1.38,6.09 0,3.04 -0.75,5.37 -2.25,6.99 -1.5,1.63 -3.68,2.44 -6.54,2.44z"/>
  </g>
 </g>
</svg>
