<?xml version="1.0" encoding="UTF-8"?>
<!DOCTYPE svg PUBLIC "-//W3C//DTD SVG 1.1//EN" "http://www.w3.org/Graphics/SVG/1.1/DTD/svg11.dtd">
<!-- Creator: CorelDRAW 2019 (64 Bit) -->
<svg xmlns="http://www.w3.org/2000/svg" xml:space="preserve" width="7.5352mm" height="7.5352mm" version="1.1" style="shape-rendering:geometricPrecision; text-rendering:geometricPrecision; image-rendering:optimizeQuality; fill-rule:evenodd; clip-rule:evenodd"
viewBox="0 0 753.52 753.52"
 xmlns:xlink="http://www.w3.org/1999/xlink">
 <defs>
  <style type="text/css">
   <![CDATA[
    .fil0 {fill:#660066}
    .fil1 {fill:white}
    .fil2 {fill:white;fill-rule:nonzero}
   ]]>
  </style>
 </defs>
 <g id="Camada_x0020_1">
  <metadata id="CorelCorpID_0Corel-Layer"/>
  <g id="_2458303515296">
   <rect class="fil0" x="-4.24" y="4.23" width="753.53" height="753.53"/>
   <g>
    <path class="fil1" d="M550.75 243.07l0 376.93 101.85 0 0 -449.85 -101.85 72.92zm-458.33 328.12l0 48.81 101.85 0 0 -121.72 -101.85 72.91zm152.78 -109.37l0 158.18 101.85 0 0 -231.1 -101.85 72.92zm152.77 -109.38l0 267.56 101.85 0 0 -340.47 -101.85 72.91z"/>
    <path class="fil2" d="M346.48 320.74l177.62 -119.74 12.86 19.08 33.48 -78.08 -84.93 1.75 12.86 19.09 -177.62 119.74 25.73 38.16zm88.81 -59.87m95.24 -50.33m23.17 -29.5m-25.73 -38.16m-36.03 10.41m-82.38 69.42m-75.95 78.95z"/>
    <path class="fil2" d="M161.47 335.64l0 -54.38c-16.91,-4.84 -29.29,-12.16 -37.15,-21.97 -7.9,-9.86 -11.85,-21.75 -11.85,-35.78 0,-14.21 4.48,-26.15 13.4,-35.78 8.93,-9.68 20.78,-15.23 35.6,-16.69l0 -12.79 18.92 0 0 12.79c13.85,1.64 24.85,6.35 33.07,14.11 8.16,7.77 13.4,18.16 15.67,31.17l-33.03 4.26c-2.04,-10.21 -7.28,-17.14 -15.71,-20.78l0 50.74c20.9,5.6 35.15,12.92 42.7,21.84 7.59,8.97 11.36,20.46 11.36,34.5 0,15.66 -4.75,28.85 -14.29,39.59 -9.54,10.74 -22.77,17.4 -39.77,20.06l0 24.24 -18.92 0 0 -23.97c-14.91,-1.82 -27.03,-7.33 -36.39,-16.6 -9.37,-9.28 -15.32,-22.42 -17.94,-39.33l33.82 -3.99c1.38,6.92 4,12.87 7.82,17.88 3.82,5.02 8.03,8.61 12.69,10.88zm0 -136.37c-5.1,1.82 -9.09,4.79 -12.07,8.97 -2.97,4.17 -4.44,8.74 -4.44,13.76 0,4.57 1.33,8.83 4.04,12.78 2.71,3.91 6.88,7.11 12.47,9.5l0 -45.01zm18.92 138.5c6.52,-1.42 11.85,-4.53 15.93,-9.32 4.13,-4.8 6.17,-10.44 6.17,-16.96 0,-5.77 -1.73,-10.79 -5.19,-14.96 -3.42,-4.22 -9.06,-7.41 -16.91,-9.68l0 50.92z"/>
   </g>
  </g>
 </g>
</svg>
