<?xml version="1.0" encoding="UTF-8"?>
<!DOCTYPE svg PUBLIC "-//W3C//DTD SVG 1.1//EN" "http://www.w3.org/Graphics/SVG/1.1/DTD/svg11.dtd">
<!-- Creator: CorelDRAW 2019 (64 Bit) -->
<svg xmlns="http://www.w3.org/2000/svg" xml:space="preserve" width="500px" height="500px" version="1.1" shape-rendering="geometricPrecision" text-rendering="geometricPrecision" image-rendering="optimizeQuality" fill-rule="evenodd" clip-rule="evenodd"
viewBox="0 0 500 500"
 xmlns:xlink="http://www.w3.org/1999/xlink">
 <g id="Camada_x0020_1">
  <metadata id="CorelCorpID_0Corel-Layer"/>
  <g id="_2458215889008">
   <polygon fill="#660066" points="0,500 500,500 500,0 0,0 "/>
   <path fill="white" d="M357.26 130.74l0 226.85 61.29 0 0 -270.73 -61.29 43.88zm-275.84 197.48l0 29.37 61.3 0 0 -73.26 -61.3 43.89zm91.95 -65.83l0 95.2 61.29 0 0 -139.08 -61.29 43.88zm91.94 -65.82l0 161.02 61.3 0 0 -204.91 -61.3 43.89z"/>
   <path fill="white" fill-rule="nonzero" d="M234.32 177.49l106.9 -72.07 7.74 11.49 20.15 -46.99 -51.12 1.05 7.74 11.49 -106.89 72.06 15.48 22.97zm53.45 -36.03m57.32 -30.29m13.94 -17.76m-15.48 -22.96m-21.69 6.26m-49.58 41.78m-45.7 47.52z"/>
   <path fill="white" fill-rule="nonzero" d="M122.98 186.45l0 -32.72c-10.18,-2.91 -17.63,-7.32 -22.36,-13.23 -4.76,-5.93 -7.13,-13.09 -7.13,-21.53 0,-8.55 2.69,-15.74 8.07,-21.53 5.36,-5.83 12.5,-9.17 21.42,-10.05l0 -7.69 11.38 0 0 7.69c8.34,0.99 14.96,3.82 19.9,8.5 4.92,4.67 8.07,10.92 9.43,18.75l-19.87 2.57c-1.23,-6.15 -4.38,-10.31 -9.46,-12.51l0 30.54c12.58,3.37 21.16,7.78 25.7,13.14 4.57,5.4 6.84,12.32 6.84,20.76 0,9.43 -2.86,17.37 -8.6,23.83 -5.74,6.47 -13.71,10.47 -23.94,12.08l0 14.58 -11.38 0 0 -14.42c-8.98,-1.1 -16.27,-4.41 -21.91,-9.99 -5.63,-5.59 -9.21,-13.5 -10.79,-23.67l20.36 -2.41c0.83,4.17 2.4,7.75 4.7,10.77 2.3,3.02 4.83,5.18 7.64,6.54zm0 -82.07c-3.07,1.1 -5.48,2.89 -7.27,5.4 -1.79,2.51 -2.67,5.26 -2.67,8.28 0,2.75 0.8,5.32 2.43,7.7 1.63,2.35 4.14,4.27 7.51,5.71l0 -27.09zm11.38 83.36c3.93,-0.86 7.13,-2.73 9.59,-5.61 2.49,-2.89 3.71,-6.28 3.71,-10.21 0,-3.47 -1.04,-6.49 -3.12,-9 -2.06,-2.54 -5.45,-4.46 -10.18,-5.83l0 30.65z"/>
   <polygon fill="white" points="0,500 500,500 500,414.65 0,414.65 "/>
   <path fill="#660066" fill-rule="nonzero" d="M50.02 441.01l15.41 0 0 5.3 -9.59 0 0 10.33 7.53 0 0 5.3 -7.53 0 0 16.16 -5.82 0 0 -37.09zm18.22 0l5.83 0 0 37.09 -5.83 0 0 -37.09zm10.17 0l7.31 0 5.67 22.2 0.11 0 0 -22.2 5.19 0 0 37.09 -5.99 0 -6.99 -27.07 -0.11 0 0 27.07 -5.19 0 0 -37.09zm27.12 0l7.9 0 6.04 37.09 -5.83 0 -1.06 -7.37 0 0.11 -6.62 0 -1.06 7.26 -5.4 0 6.03 -37.09zm6.36 24.8l-2.59 -18.33 -0.11 0 -2.54 18.33 5.24 0zm10.39 -24.8l7.31 0 5.66 22.2 0.11 0 0 -22.2 5.19 0 0 37.09 -5.98 0 -7 -27.07 -0.1 0 0 27.07 -5.19 0 0 -37.09zm30.83 37.62c-2.79,0 -4.92,-0.8 -6.39,-2.39 -1.46,-1.59 -2.2,-3.83 -2.2,-6.73l0 -19.91c0,-2.9 0.74,-5.14 2.2,-6.73 1.47,-1.59 3.6,-2.39 6.39,-2.39 2.79,0 4.91,0.8 6.38,2.39 1.47,1.59 2.2,3.83 2.2,6.73l0 3.92 -5.51 0 0 -4.3c0,-2.29 -0.97,-3.44 -2.91,-3.44 -1.95,0 -2.92,1.15 -2.92,3.44l0 20.72c0,2.26 0.97,3.39 2.92,3.39 1.94,0 2.91,-1.13 2.91,-3.39l0 -5.67 5.51 0 0 5.24c0,2.9 -0.73,5.14 -2.2,6.73 -1.47,1.59 -3.59,2.39 -6.38,2.39zm12.08 -37.62l15.89 0 0 5.3 -10.07 0 0 9.8 8 0 0 5.3 -8 0 0 11.39 10.07 0 0 5.3 -15.89 0 0 -37.09zm19.23 0l5.82 0 0 37.09 -5.82 0 0 -37.09zm10.17 0l8.63 0c3.01,0 5.2,0.7 6.57,2.1 1.38,1.39 2.07,3.54 2.07,6.43l0 2.28c0,3.85 -1.27,6.29 -3.82,7.31l0 0.11c1.42,0.42 2.41,1.29 3,2.59 0.58,1.31 0.87,3.06 0.87,5.25l0 6.51c0,1.06 0.04,1.92 0.11,2.57 0.07,0.66 0.24,1.3 0.53,1.94l-5.94 0c-0.21,-0.6 -0.35,-1.17 -0.42,-1.7 -0.07,-0.53 -0.11,-1.48 -0.11,-2.86l0 -6.78c0,-1.7 -0.27,-2.88 -0.82,-3.55 -0.54,-0.67 -1.49,-1.01 -2.83,-1.01l-2.01 0 0 15.9 -5.83 0 0 -37.09zm7.94 15.9c1.17,0 2.04,-0.3 2.63,-0.91 0.58,-0.6 0.87,-1.6 0.87,-3.01l0 -2.86c0,-1.35 -0.24,-2.32 -0.71,-2.92 -0.48,-0.6 -1.23,-0.9 -2.26,-0.9l-2.64 0 0 10.6 2.11 0zm21.83 21.72c-2.86,0 -5.05,-0.82 -6.57,-2.44 -1.52,-1.63 -2.28,-3.92 -2.28,-6.89l0 -19.49c0,-2.97 0.76,-5.27 2.28,-6.89 1.52,-1.62 3.71,-2.44 6.57,-2.44 2.86,0 5.05,0.82 6.57,2.44 1.52,1.62 2.28,3.92 2.28,6.89l0 19.49c0,2.97 -0.76,5.26 -2.28,6.89 -1.52,1.62 -3.71,2.44 -6.57,2.44zm0 -5.3c2.01,0 3.02,-1.22 3.02,-3.66l0 -20.23c0,-2.44 -1.01,-3.66 -3.02,-3.66 -2.01,0 -3.02,1.22 -3.02,3.66l0 20.23c0,2.44 1.01,3.66 3.02,3.66zm21.24 -32.32l15.9 0 0 5.3 -10.07 0 0 9.8 8 0 0 5.3 -8 0 0 11.39 10.07 0 0 5.3 -15.9 0 0 -37.09zm27.71 0l8.63 0c3.01,0 5.2,0.7 6.57,2.1 1.38,1.39 2.07,3.54 2.07,6.43l0 2.28c0,3.85 -1.27,6.29 -3.81,7.31l0 0.11c1.41,0.42 2.4,1.29 2.99,2.59 0.58,1.31 0.87,3.06 0.87,5.25l0 6.51c0,1.06 0.04,1.92 0.11,2.57 0.07,0.66 0.25,1.3 0.53,1.94l-5.93 0c-0.22,-0.6 -0.36,-1.17 -0.43,-1.7 -0.07,-0.53 -0.11,-1.48 -0.11,-2.86l0 -6.78c0,-1.7 -0.27,-2.88 -0.82,-3.55 -0.54,-0.67 -1.49,-1.01 -2.83,-1.01l-2.01 0 0 15.9 -5.83 0 0 -37.09zm7.95 15.9c1.16,0 2.04,-0.3 2.62,-0.91 0.58,-0.6 0.87,-1.6 0.87,-3.01l0 -2.86c0,-1.35 -0.24,-2.32 -0.71,-2.92 -0.48,-0.6 -1.23,-0.9 -2.26,-0.9l-2.64 0 0 10.6 2.12 0zm13.4 -15.9l15.89 0 0 5.3 -10.06 0 0 9.8 8 0 0 5.3 -8 0 0 11.39 10.06 0 0 5.3 -15.89 0 0 -37.09zm19.23 0l5.83 0 0 31.79 9.59 0 0 5.3 -15.42 0 0 -37.09zm22.94 0l7.89 0 6.04 37.09 -5.83 0 -1.06 -7.37 0 0.11 -6.62 0 -1.06 7.26 -5.4 0 6.04 -37.09zm6.36 24.8l-2.6 -18.33 -0.11 0 -2.54 18.33 5.25 0zm12.5 -19.5l-6.09 0 0 -5.3 18.01 0 0 5.3 -6.09 0 0 31.79 -5.83 0 0 -31.79zm22.94 32.32c-2.86,0 -5.05,-0.82 -6.57,-2.44 -1.52,-1.63 -2.28,-3.92 -2.28,-6.89l0 -19.49c0,-2.97 0.76,-5.27 2.28,-6.89 1.52,-1.62 3.71,-2.44 6.57,-2.44 2.86,0 5.05,0.82 6.57,2.44 1.51,1.62 2.27,3.92 2.27,6.89l0 19.49c0,2.97 -0.76,5.26 -2.27,6.89 -1.52,1.62 -3.71,2.44 -6.57,2.44zm0 -5.3c2.01,0 3.02,-1.22 3.02,-3.66l0 -20.23c0,-2.44 -1.01,-3.66 -3.02,-3.66 -2.02,0 -3.02,1.22 -3.02,3.66l0 20.23c0,2.44 1,3.66 3.02,3.66zm0.53 -40.9l6.35 0 -5.67 6.09 -4.39 0 3.71 -6.09zm12.23 8.58l8.64 0c3,0 5.19,0.7 6.57,2.1 1.38,1.39 2.06,3.54 2.06,6.43l0 2.28c0,3.85 -1.27,6.29 -3.81,7.31l0 0.11c1.41,0.42 2.41,1.29 2.99,2.59 0.59,1.31 0.88,3.06 0.88,5.25l0 6.51c0,1.06 0.03,1.92 0.1,2.57 0.07,0.66 0.25,1.3 0.53,1.94l-5.93 0c-0.21,-0.6 -0.35,-1.17 -0.42,-1.7 -0.08,-0.53 -0.11,-1.48 -0.11,-2.86l0 -6.78c0,-1.7 -0.27,-2.88 -0.82,-3.55 -0.55,-0.67 -1.49,-1.01 -2.84,-1.01l-2.01 0 0 15.9 -5.83 0 0 -37.09zm7.95 15.9c1.17,0 2.04,-0.3 2.62,-0.91 0.59,-0.6 0.88,-1.6 0.88,-3.01l0 -2.86c0,-1.35 -0.24,-2.32 -0.72,-2.92 -0.48,-0.6 -1.23,-0.9 -2.25,-0.9l-2.65 0 0 10.6 2.12 0zm13.4 -15.9l5.83 0 0 37.09 -5.83 0 0 -37.09zm18.6 37.62c-2.86,0 -5.05,-0.82 -6.57,-2.44 -1.52,-1.63 -2.28,-3.92 -2.28,-6.89l0 -19.49c0,-2.97 0.76,-5.27 2.28,-6.89 1.52,-1.62 3.71,-2.44 6.57,-2.44 2.86,0 5.05,0.82 6.57,2.44 1.52,1.62 2.28,3.92 2.28,6.89l0 19.49c0,2.97 -0.76,5.26 -2.28,6.89 -1.52,1.62 -3.71,2.44 -6.57,2.44zm0 -5.3c2.01,0 3.02,-1.22 3.02,-3.66l0 -20.23c0,-2.44 -1.01,-3.66 -3.02,-3.66 -2.02,0 -3.02,1.22 -3.02,3.66l0 20.23c0,2.44 1,3.66 3.02,3.66zm20.34 5.3c-2.82,0 -4.96,-0.81 -6.41,-2.41 -1.45,-1.61 -2.17,-3.92 -2.17,-6.92l0 -2.12 5.51 0 0 2.55c0,2.4 1.01,3.6 3.02,3.6 0.99,0 1.74,-0.29 2.25,-0.88 0.51,-0.58 0.77,-1.52 0.77,-2.83 0,-1.55 -0.36,-2.92 -1.06,-4.11 -0.71,-1.18 -2.02,-2.6 -3.92,-4.26 -2.4,-2.12 -4.08,-4.04 -5.03,-5.75 -0.96,-1.71 -1.44,-3.64 -1.44,-5.8 0,-2.93 0.75,-5.2 2.23,-6.81 1.48,-1.6 3.64,-2.41 6.46,-2.41 2.79,0 4.9,0.81 6.33,2.41 1.43,1.61 2.15,3.92 2.15,6.92l0 1.53 -5.51 0 0 -1.9c0,-1.28 -0.25,-2.2 -0.74,-2.78 -0.5,-0.59 -1.22,-0.88 -2.17,-0.88 -1.95,0 -2.92,1.18 -2.92,3.55 0,1.34 0.36,2.6 1.09,3.76 0.72,1.17 2.04,2.58 3.94,4.24 2.44,2.12 4.12,4.04 5.04,5.77 0.92,1.73 1.38,3.77 1.38,6.1 0,3.03 -0.76,5.36 -2.26,6.99 -1.5,1.62 -3.68,2.44 -6.54,2.44z"/>
  </g>
 </g>
</svg>
