<?xml version="1.0" encoding="UTF-8"?>
<!DOCTYPE svg PUBLIC "-//W3C//DTD SVG 1.1//EN" "http://www.w3.org/Graphics/SVG/1.1/DTD/svg11.dtd">
<!-- Creator: CorelDRAW 2019 (64 Bit) -->
<svg xmlns="http://www.w3.org/2000/svg" xml:space="preserve" width="500px" height="500px" version="1.1" shape-rendering="geometricPrecision" text-rendering="geometricPrecision" image-rendering="optimizeQuality" fill-rule="evenodd" clip-rule="evenodd"
viewBox="0 0 500 500"
 xmlns:xlink="http://www.w3.org/1999/xlink">
 <g id="Camada_x0020_1">
  <metadata id="CorelCorpID_0Corel-Layer"/>
  <g id="_2458136393632">
   <polygon fill="#330099" points="0,500 499.99,500 499.99,0 0,0 "/>
   <g>
    <path fill="white" d="M332.31 182.27c0,0 13.78,-70.25 15.76,-77.28 1.95,-7.04 3.91,-18.48 17.7,-18.48 13.78,0 77.64,0 77.64,0 0,0 10.71,-5.2 15.27,13.65 4.63,18.89 17.94,76.17 17.94,76.17l0 114.67c0,0 -0.76,13.7 -11.57,13.7 -10.82,0 -13.54,-6.85 -13.54,-13.24 0,-6.4 0,-16.92 0,-16.92l-91.11 0 0 -19.82c0,0 -14.16,-36.02 -19.08,-47.91 -2.26,-5.51 -5.93,-7.76 -9.22,-8.58l0.21 -15.96zm28.2 -75.44l86.59 0 13.13 59.16 -112.62 0 12.9 -59.16zm87.87 126.66c5.79,0 10.5,-7.95 10.5,-17.75 0,-9.79 -4.71,-17.74 -10.5,-17.74 -5.79,0 -10.49,7.95 -10.49,17.74 0,9.8 4.7,17.75 10.49,17.75zm-88.81 0c5.79,0 10.49,-7.95 10.49,-17.75 0,-9.79 -4.7,-17.74 -10.49,-17.74 -5.79,0 -10.49,7.95 -10.49,17.74 0,9.8 4.7,17.75 10.49,17.75z"/>
    <path fill="white" d="M199.79 267.2c0,0 14.66,-44.19 16.77,-48.61 2.08,-4.43 4.16,-11.63 18.83,-11.63 14.66,0 82.59,0 82.59,0 0,0 11.4,-3.27 16.26,8.59 4.91,11.88 19.08,47.92 19.08,47.92l0 72.12c0,0 -0.81,8.62 -12.32,8.62 -11.51,0 -14.4,-4.31 -14.4,-8.33 0,-4.02 0,-10.64 0,-10.64l-101.45 0 0 11.16c0,0 -1.04,7.46 -12.93,7.46 -11.91,0 -13.94,-8.03 -13.94,-8.03l1.51 -68.63zm30.01 -47.46l92.12 0 13.96 37.22 -119.81 0 13.73 -37.22zm93.47 79.68c6.16,0 11.17,-5.01 11.17,-11.17 0,-6.16 -5.01,-11.16 -11.17,-11.16 -6.16,0 -11.16,5 -11.16,11.16 0,6.16 5,11.17 11.16,11.17zm-94.48 0c6.16,0 11.17,-5.01 11.17,-11.17 0,-6.16 -5.01,-11.16 -11.17,-11.16 -6.16,0 -11.16,5 -11.16,11.16 0,6.16 5,11.17 11.16,11.17z"/>
    <path fill="white" d="M141.79 343.4c0.14,-5.41 -0.27,-39.58 0.08,-41.87 0.62,-4.16 5.59,-3.07 11.04,-3.07 3.99,0 10.41,-1.27 11.06,3.07 0.35,2.32 -0.03,36.71 0.07,41.86 3.13,0.19 12.04,0.51 14,-0.74 3.01,-1.92 4.05,-6.14 4.05,-10.8l0 -59.99c0,-4.57 0.44,-9.41 -2.21,-12.65 -2.99,-3.64 -6.63,-2.58 -12.31,-2.56 -0.56,0.39 -2.04,1.95 -2.63,2.58 -5.43,5.89 -17.81,6.13 -23.73,0.33l-2.66 -2.91c-5.54,0 -9.5,-1.12 -12.44,2.41 -2.81,3.38 -2.36,7.7 -2.36,12.47l0 59.99c-0.01,13.57 6.27,12.44 18.04,11.88z"/>
    <path fill="white" d="M146.09 306.19l0 52.66c0,4.8 4.06,3.81 9.82,3.81 2.67,0 3.84,-1.22 3.84,-3.81l0 -52.66c0,-4.92 -3.93,-3.92 -9.84,-3.92 -2.91,0 -3.82,1.05 -3.82,3.92z"/>
    <path fill="white" d="M141.59 247.53c-2.12,-15.17 20.58,-18.05 22.66,-3.3 2.15,15.21 -20.6,17.91 -22.66,3.3zm-3.59 -4.52l-29.75 0c-3.54,0 -6.87,-1.11 -6.87,2.85 0.01,3.96 3.23,2.9 6.53,2.9l30.04 0.03c0.25,1.88 1.02,3.44 1.84,4.85l2.31 3.03c0.05,0.05 0.12,0.12 0.17,0.17l0.66 0.66c5.39,4.89 15.22,4.75 19.92,-0.04 1.83,-1.88 1.5,-0.9 3.19,-3.79 1.36,-2.34 1.6,-4.02 2.2,-4.89l27.64 -0.02 1.99 -5.75 -29.29 0c-1.23,-0.28 -0.76,-2.69 -3.59,-6.57l-1.11 -1.21c-9.18,-9.76 -25.01,-2.69 -25.88,7.78z"/>
    <path fill="white" d="M191.39 210.64c-20.42,0 -18.68,0.83 -18.68,-13.33 0,-7.29 15.92,-3.55 16.9,-3.55 2.1,0 2.83,-0.89 3.99,-0.89 1.94,0 4.9,2.55 4.9,4.89 0,5.89 1.77,12.88 -7.11,12.88zm-168.02 -88.44l0 20.44c0,2.54 3.25,7.56 8,7.56l2.67 0c3.65,0 8,-3.68 8,-7.12l0 -21.33c0,-8.98 -12.96,-8.97 -16.13,-5.46 -1.25,1.39 -2.54,3.42 -2.54,5.91zm175.13 -0.45l0 21.33c0,3.44 4.35,7.12 8,7.12 3.75,0 5.29,0.32 7.91,-2.31 1.08,-1.11 2.75,-3.27 2.75,-5.25l0 -20.44c0,-4.1 -2.97,-8 -8.44,-8 -4.84,0 -10.22,1.25 -10.22,7.55zm-175.13 116.01l0 33.77c0,2.74 0.69,4.45 1.9,6.12 1.1,1.54 2.27,3.22 4.77,3.22l23.56 0c1.18,0 3.42,-2.19 4.09,-3.03 2.46,-3.07 1.68,-8.68 1.68,-13.86l45.32 0 0 -6.4c0,-4.77 -11.78,-9.09 -8.97,-12.46 2.94,-3.53 -0.3,-2.42 5.24,-2.42 0,0 -0.26,-6.28 -0.26,-6.28l-75.99 0c-1.03,0 -1.34,0.31 -1.34,1.34zm36.45 -27.12c-4.48,0 -12.52,0.7 -15.27,-1.17 -3.54,-2.42 -2.51,-4.6 -2.51,-11.71 0,-2.19 3.47,-4 6.23,-4l13.78 0c6.39,0 5.33,7.98 5.33,11.55 0,3.63 -3.8,5.33 -7.56,5.33zm25.78 -11.11l0 -21.34c0,-7.94 3.5,-10.66 11.11,-10.66 8.49,0 46.03,-0.43 51.61,0.39 4.88,0.73 6.61,5.2 6.61,10.27 0,6.27 1.19,25.94 -2.09,29.47 -0.55,0.59 -2.5,1.78 -3.22,2.1 -1.22,0.53 -2.67,0.88 -4.46,0.88l-49.78 0c-7.03,0 -9.78,-4.43 -9.78,-11.11zm29.78 -93.34c13.01,0 39.43,0.36 49.92,5.64 4.83,2.41 3.5,0.19 5.4,11.94l2.27 15.06c0.51,2.82 1.53,7.39 1.53,10.03l-108.46 0c0,-2.66 2.52,-15.62 3.18,-19.49 0.28,-1.6 0.27,-3.3 0.55,-5.22 0.26,-1.82 0.52,-3.1 0.84,-4.94 1.21,-6.99 0.38,-5.31 4.32,-7.24 8.78,-4.3 30.92,-5.78 40.45,-5.78zm-72.01 69.34c-2.3,0 -6.6,0.79 -8.16,1.62 -5.42,2.88 -7.65,5.71 -9.91,10.52 -1.07,2.26 -1.93,5.18 -1.93,8.3l0 32.9 113.3 0c11.61,-21.21 31.81,-10.31 34.91,0l33.84 0c2.2,-6.34 4,-11.36 4.65,-12.71 1.31,-2.79 2.62,-6.69 7.09,-9.18l0 -11.01c0,-3.77 -1.63,-8.38 -3.32,-11.33 -2.88,-5 -9.65,-9.11 -16.68,-9.11 0,-3.02 -5.59,-36.25 -6.48,-41.53 -0.49,-2.91 -0.56,-5.96 -1.11,-8.66 -3.53,-17.1 -0.32,-21.27 -14.21,-29.35 -0.91,-0.54 -2.15,-1.18 -3.26,-1.62l-15.06 -4.07c-1.59,-0.21 -2.92,-0.11 -4.53,-0.35 -18.94,-2.83 -31.71,-2.14 -50.91,-1.53 -6.63,0.2 -19.28,1.85 -25.68,3.64 -1.06,0.3 -2.1,0.67 -3.37,1.09 -6.15,2.01 -7.18,2.04 -12.99,6.56 -7.32,5.68 -6.43,14.9 -8.52,25.27l-2.59 16.95c-0.46,2.84 -1.11,5.5 -1.4,7.93 -0.21,1.65 -0.1,2.91 -0.36,4.55 -0.28,1.74 -0.44,2.5 -0.76,4.11 -0.65,3.29 -2.56,13.88 -2.56,17.01z"/>
   </g>
   <polygon fill="white" points="0,500 500,500 500,414.64 0,414.64 "/>
   <path fill="#330099" fill-rule="nonzero" d="M42.76 478.63c-2.83,0 -4.98,-0.81 -6.47,-2.42 -1.48,-1.6 -2.22,-3.91 -2.22,-6.91l0 -19.49c0,-3.01 0.74,-5.31 2.22,-6.92 1.49,-1.6 3.64,-2.41 6.47,-2.41 2.82,0 4.98,0.81 6.46,2.41 1.48,1.61 2.22,3.91 2.22,6.92l0 3.17 -5.51 0 0 -3.54c0,-2.44 -1,-3.66 -3.01,-3.66 -2.02,0 -3.02,1.22 -3.02,3.66l0 20.28c0,2.41 1,3.61 3.02,3.61 2.01,0 3.01,-1.2 3.01,-3.61l0 -7.25 -2.91 0 0 -5.3 8.42 0 0 12.13c0,3 -0.74,5.31 -2.22,6.91 -1.48,1.61 -3.64,2.42 -6.46,2.42zm12.45 -37.62l15.89 0 0 5.3 -10.07 0 0 9.8 8 0 0 5.3 -8 0 0 11.39 10.07 0 0 5.3 -15.89 0 0 -37.09zm19.23 0l8.63 0c3,0 5.19,0.7 6.57,2.09 1.38,1.4 2.07,3.54 2.07,6.44l0 2.28c0,3.85 -1.27,6.28 -3.82,7.31l0 0.11c1.42,0.42 2.41,1.29 3,2.59 0.58,1.31 0.87,3.06 0.87,5.25l0 6.51c0,1.06 0.04,1.92 0.11,2.57 0.07,0.65 0.24,1.3 0.53,1.94l-5.94 0c-0.21,-0.6 -0.35,-1.17 -0.42,-1.7 -0.07,-0.53 -0.11,-1.48 -0.11,-2.86l0 -6.78c0,-1.7 -0.27,-2.88 -0.82,-3.55 -0.55,-0.67 -1.49,-1.01 -2.83,-1.01l-2.02 0 0 15.9 -5.82 0 0 -37.09zm7.94 15.89c1.17,0 2.04,-0.3 2.63,-0.9 0.58,-0.6 0.87,-1.6 0.87,-3.02l0 -2.86c0,-1.34 -0.24,-2.31 -0.72,-2.91 -0.47,-0.6 -1.22,-0.9 -2.25,-0.9l-2.65 0 0 10.59 2.12 0zm13.41 -15.89l15.89 0 0 5.3 -10.07 0 0 9.8 8 0 0 5.3 -8 0 0 11.39 10.07 0 0 5.3 -15.89 0 0 -37.09zm19.23 0l7.31 0 5.67 22.2 0.1 0 0 -22.2 5.19 0 0 37.09 -5.98 0 -7 -27.08 -0.1 0 0 27.08 -5.19 0 0 -37.09zm30.83 37.62c-2.79,0 -4.92,-0.8 -6.38,-2.39 -1.47,-1.59 -2.2,-3.83 -2.2,-6.73l0 -19.92c0,-2.89 0.73,-5.14 2.2,-6.72 1.46,-1.59 3.59,-2.39 6.38,-2.39 2.79,0 4.92,0.8 6.38,2.39 1.47,1.58 2.2,3.83 2.2,6.72l0 3.92 -5.51 0 0 -4.29c0,-2.29 -0.97,-3.44 -2.91,-3.44 -1.94,0 -2.92,1.15 -2.92,3.44l0 20.72c0,2.26 0.98,3.39 2.92,3.39 1.94,0 2.91,-1.13 2.91,-3.39l0 -5.67 5.51 0 0 5.24c0,2.9 -0.73,5.14 -2.2,6.73 -1.46,1.59 -3.59,2.39 -6.38,2.39zm12.08 -37.62l5.83 0 0 37.09 -5.83 0 0 -37.09zm14.67 0l7.9 0 6.04 37.09 -5.83 0 -1.06 -7.37 0 0.11 -6.62 0 -1.06 7.26 -5.41 0 6.04 -37.09zm6.36 24.79l-2.6 -18.32 -0.1 0 -2.55 18.32 5.25 0zm10.38 -24.79l8.32 0 3.71 26.54 0.1 0 3.71 -26.54 8.32 0 0 37.09 -5.51 0 0 -28.08 -0.1 0 -4.24 28.08 -4.88 0 -4.23 -28.08 -0.11 0 0 28.08 -5.09 0 0 -37.09zm28.5 0l15.9 0 0 5.3 -10.07 0 0 9.8 8 0 0 5.3 -8 0 0 11.39 10.07 0 0 5.3 -15.9 0 0 -37.09zm19.24 0l7.31 0 5.66 22.2 0.11 0 0 -22.2 5.19 0 0 37.09 -5.99 0 -6.99 -27.08 -0.1 0 0 27.08 -5.19 0 0 -37.09zm27.17 5.3l-6.09 0 0 -5.3 18.01 0 0 5.3 -6.09 0 0 31.79 -5.83 0 0 -31.79zm22.94 32.32c-2.86,0 -5.05,-0.82 -6.57,-2.44 -1.52,-1.63 -2.28,-3.92 -2.28,-6.89l0 -19.49c0,-2.97 0.76,-5.27 2.28,-6.89 1.52,-1.63 3.71,-2.44 6.57,-2.44 2.86,0 5.05,0.81 6.57,2.44 1.52,1.62 2.28,3.92 2.28,6.89l0 19.49c0,2.97 -0.76,5.26 -2.28,6.89 -1.52,1.62 -3.71,2.44 -6.57,2.44zm0 -5.3c2.01,0 3.02,-1.22 3.02,-3.66l0 -20.23c0,-2.44 -1.01,-3.66 -3.02,-3.66 -2.01,0 -3.02,1.22 -3.02,3.66l0 20.23c0,2.44 1.01,3.66 3.02,3.66zm21.24 -32.32l8.9 0c2.9,0 5.07,0.78 6.52,2.33 1.45,1.56 2.17,3.84 2.17,6.84l0 18.75c0,3 -0.72,5.28 -2.17,6.83 -1.45,1.56 -3.62,2.34 -6.52,2.34l-8.9 0 0 -37.09zm8.8 31.79c0.95,0 1.68,-0.29 2.19,-0.85 0.52,-0.56 0.77,-1.48 0.77,-2.75l0 -19.29c0,-1.27 -0.25,-2.19 -0.77,-2.75 -0.51,-0.57 -1.24,-0.85 -2.19,-0.85l-2.97 0 0 26.49 2.97 0zm12.71 -31.79l15.89 0 0 5.3 -10.06 0 0 9.8 8 0 0 5.3 -8 0 0 11.39 10.06 0 0 5.3 -15.89 0 0 -37.09zm27.71 0l15.41 0 0 5.3 -9.59 0 0 10.33 7.53 0 0 5.3 -7.53 0 0 16.16 -5.82 0 0 -37.09zm18.22 0l8.63 0c3.01,0 5.2,0.7 6.57,2.09 1.38,1.4 2.07,3.54 2.07,6.44l0 2.28c0,3.85 -1.27,6.28 -3.81,7.31l0 0.11c1.41,0.42 2.41,1.29 2.99,2.59 0.58,1.31 0.87,3.06 0.87,5.25l0 6.51c0,1.06 0.04,1.92 0.11,2.57 0.07,0.65 0.25,1.3 0.53,1.94l-5.93 0c-0.22,-0.6 -0.36,-1.17 -0.43,-1.7 -0.07,-0.53 -0.11,-1.48 -0.11,-2.86l0 -6.78c0,-1.7 -0.27,-2.88 -0.82,-3.55 -0.54,-0.67 -1.49,-1.01 -2.83,-1.01l-2.01 0 0 15.9 -5.83 0 0 -37.09zm7.95 15.89c1.16,0 2.04,-0.3 2.62,-0.9 0.58,-0.6 0.87,-1.6 0.87,-3.02l0 -2.86c0,-1.34 -0.24,-2.31 -0.71,-2.91 -0.48,-0.6 -1.23,-0.9 -2.26,-0.9l-2.64 0 0 10.59 2.12 0zm21.82 21.73c-2.86,0 -5.05,-0.82 -6.57,-2.44 -1.52,-1.63 -2.28,-3.92 -2.28,-6.89l0 -19.49c0,-2.97 0.76,-5.27 2.28,-6.89 1.52,-1.63 3.71,-2.44 6.57,-2.44 2.86,0 5.05,0.81 6.57,2.44 1.52,1.62 2.28,3.92 2.28,6.89l0 19.49c0,2.97 -0.76,5.26 -2.28,6.89 -1.52,1.62 -3.71,2.44 -6.57,2.44zm0 -5.3c2.02,0 3.02,-1.22 3.02,-3.66l0 -20.23c0,-2.44 -1,-3.66 -3.02,-3.66 -2.01,0 -3.02,1.22 -3.02,3.66l0 20.23c0,2.44 1.01,3.66 3.02,3.66zm17.11 -27.02l-6.09 0 0 -5.3 18.01 0 0 5.3 -6.09 0 0 31.79 -5.83 0 0 -31.79zm16.8 -5.3l7.89 0 6.04 37.09 -5.83 0 -1.06 -7.37 0 0.11 -6.62 0 -1.06 7.26 -5.4 0 6.04 -37.09zm6.35 24.79l-2.59 -18.32 -0.11 0 -2.54 18.32 5.24 0zm17.8 12.83c-2.82,0 -4.96,-0.81 -6.41,-2.42 -1.44,-1.6 -2.17,-3.91 -2.17,-6.91l0 -2.12 5.51 0 0 2.54c0,2.41 1.01,3.61 3.02,3.61 0.99,0 1.74,-0.29 2.25,-0.88 0.51,-0.58 0.77,-1.52 0.77,-2.83 0,-1.55 -0.35,-2.92 -1.06,-4.11 -0.71,-1.18 -2.01,-2.6 -3.92,-4.26 -2.4,-2.12 -4.08,-4.04 -5.03,-5.75 -0.96,-1.71 -1.43,-3.65 -1.43,-5.8 0,-2.93 0.74,-5.2 2.22,-6.81 1.49,-1.6 3.64,-2.41 6.46,-2.41 2.8,0 4.91,0.81 6.34,2.41 1.43,1.61 2.14,3.91 2.14,6.92l0 1.53 -5.51 0 0 -1.9c0,-1.28 -0.25,-2.2 -0.74,-2.79 -0.49,-0.58 -1.22,-0.87 -2.17,-0.87 -1.94,0 -2.92,1.18 -2.92,3.55 0,1.34 0.37,2.6 1.09,3.76 0.72,1.17 2.04,2.58 3.95,4.24 2.43,2.12 4.11,4.04 5.03,5.77 0.92,1.73 1.38,3.76 1.38,6.1 0,3.03 -0.75,5.36 -2.25,6.99 -1.51,1.62 -3.69,2.44 -6.55,2.44z"/>
  </g>
 </g>
</svg>
