<?xml version="1.0" encoding="UTF-8"?>
<!DOCTYPE svg PUBLIC "-//W3C//DTD SVG 1.1//EN" "http://www.w3.org/Graphics/SVG/1.1/DTD/svg11.dtd">
<!-- Creator: CorelDRAW 2019 (64 Bit) -->
<svg xmlns="http://www.w3.org/2000/svg" xml:space="preserve" width="7.5352mm" height="7.5352mm" version="1.1" style="shape-rendering:geometricPrecision; text-rendering:geometricPrecision; image-rendering:optimizeQuality; fill-rule:evenodd; clip-rule:evenodd"
viewBox="0 0 753.52 753.52"
 xmlns:xlink="http://www.w3.org/1999/xlink">
 <defs>
  <style type="text/css">
   <![CDATA[
    .fil0 {fill:#330099}
    .fil1 {fill:white}
   ]]>
  </style>
 </defs>
 <g id="Camada_x0020_1">
  <metadata id="CorelCorpID_0Corel-Layer"/>
  <g id="_2458208032416">
   <rect class="fil0" x="-4.24" y="4.22" width="753.53" height="753.53"/>
   <g>
    <path class="fil1" d="M496.58 317.66c0,0 20.77,-105.88 23.76,-116.47 2.94,-10.61 5.89,-27.85 26.66,-27.85 20.77,0 117.01,0 117.01,0 0,0 16.14,-7.83 23.02,20.57 6.97,28.47 27.04,114.8 27.04,114.8l0 172.82c0,0 -1.15,20.64 -17.44,20.64 -16.31,0 -20.41,-10.33 -20.41,-19.96 0,-9.64 0,-25.49 0,-25.49l-137.3 0 0 -29.87c0,0 -21.35,-54.3 -28.76,-72.21 -3.41,-8.31 -8.94,-11.69 -13.89,-12.93l0.31 -24.05zm42.51 -113.7l130.49 0 19.79 89.17 -169.73 0 19.45 -89.17zm132.42 190.89c8.73,0 15.82,-11.99 15.82,-26.76 0,-14.74 -7.09,-26.73 -15.82,-26.73 -8.73,0 -15.82,11.99 -15.82,26.73 0,14.77 7.09,26.76 15.82,26.76zm-133.85 0c8.74,0 15.82,-11.99 15.82,-26.76 0,-14.74 -7.08,-26.73 -15.82,-26.73 -8.72,0 -15.81,11.99 -15.81,26.73 0,14.77 7.09,26.76 15.81,26.76z"/>
    <g>
     <path class="fil1" d="M296.86 445.65c0,0 22.1,-66.6 25.28,-73.26 3.14,-6.68 6.27,-17.53 28.37,-17.53 22.1,0 124.48,0 124.48,0 0,0 17.17,-4.92 24.49,12.95 7.41,17.91 28.77,72.22 28.77,72.22l0 108.7c0,0 -1.22,12.99 -18.57,12.99 -17.34,0 -21.7,-6.5 -21.7,-12.56 0,-6.06 0,-16.03 0,-16.03l-152.9 0 0 16.82c0,0 -1.57,11.24 -19.48,11.24 -17.96,0 -21.01,-12.11 -21.01,-12.11l2.27 -103.43zm45.24 -71.52l138.82 0 21.05 56.09 -180.57 0 20.7 -56.09zm140.87 120.08c9.28,0 16.82,-7.54 16.82,-16.83 0,-9.28 -7.54,-16.82 -16.82,-16.82 -9.29,0 -16.83,7.54 -16.83,16.82 0,9.29 7.54,16.83 16.83,16.83zm-142.4 0c9.29,0 16.83,-7.54 16.83,-16.83 0,-9.28 -7.54,-16.82 -16.83,-16.82 -9.28,0 -16.82,7.54 -16.82,16.82 0,9.29 7.54,16.83 16.82,16.83z"/>
     <g>
      <path class="fil1" d="M209.46 560.5c0.2,-8.16 -0.42,-59.66 0.11,-63.11 0.94,-6.27 8.42,-4.62 16.64,-4.62 6.02,0 15.7,-1.93 16.67,4.62 0.53,3.5 -0.04,55.32 0.11,63.09 4.71,0.29 18.14,0.76 21.09,-1.12 4.54,-2.89 6.11,-9.25 6.1,-16.27l0 -90.42c0,-6.88 0.68,-14.17 -3.32,-19.05 -4.51,-5.5 -10,-3.89 -18.56,-3.87 -0.84,0.59 -3.07,2.94 -3.95,3.9 -8.18,8.87 -26.84,9.24 -35.77,0.49l-4.01 -4.39c-8.35,0 -14.32,-1.68 -18.74,3.64 -4.24,5.09 -3.56,11.61 -3.56,18.78l0 90.42c-0.03,20.45 9.44,18.74 27.19,17.91z"/>
      <path class="fil1" d="M215.93 504.42l0 79.35c0,7.24 6.13,5.74 14.8,5.74 4.03,0 5.79,-1.83 5.79,-5.74l0 -79.35c0,-7.41 -5.92,-5.91 -14.83,-5.91 -4.39,0 -5.76,1.58 -5.76,5.91z"/>
      <path class="fil1" d="M209.16 416.01c-3.21,-22.87 31,-27.21 34.14,-4.97 3.24,22.93 -31.05,26.99 -34.14,4.97zm-5.42 -6.81l-44.84 0c-5.34,0 -10.35,-1.67 -10.35,4.3 0.01,5.96 4.86,4.37 9.85,4.37l45.27 0.03c0.36,2.85 1.54,5.19 2.78,7.32l3.47 4.57c0.07,0.08 0.18,0.17 0.26,0.24l0.98 1.01c8.14,7.36 22.95,7.15 30.02,-0.07 2.77,-2.83 2.27,-1.36 4.82,-5.71 2.05,-3.53 2.41,-6.06 3.32,-7.37l41.65 -0.02 2.99 -8.67 -44.14 0c-1.84,-0.42 -1.14,-4.05 -5.41,-9.91l-1.67 -1.83c-13.84,-14.7 -37.68,-4.05 -39,11.74z"/>
     </g>
    </g>
    <path class="fil1" d="M284.2 360.42c-30.77,0 -28.15,1.24 -28.15,-20.1 0,-10.98 23.99,-5.35 25.47,-5.35 3.16,0 4.27,-1.35 6.02,-1.35 2.91,0 7.38,3.86 7.38,7.38 0,8.88 2.66,19.42 -10.72,19.42zm-253.21 -133.3l0 30.82c0,3.82 4.9,11.38 12.05,11.38l4.02 0c5.51,0 12.05,-5.54 12.05,-10.73l0 -32.15c0,-13.53 -19.53,-13.5 -24.3,-8.22 -1.89,2.09 -3.82,5.16 -3.82,8.9zm263.93 -0.68l0 32.15c0,5.19 6.55,10.73 12.05,10.73 5.65,0 7.98,0.48 11.92,-3.48 1.64,-1.66 4.15,-4.93 4.15,-7.9l0 -30.82c0,-6.17 -4.48,-12.05 -12.73,-12.05 -7.28,0 -15.39,1.88 -15.39,11.37zm-263.93 174.84l0 50.9c0,4.13 1.03,6.7 2.85,9.23 1.66,2.31 3.44,4.85 7.2,4.85l35.5 0c1.78,0 5.16,-3.31 6.17,-4.56 3.7,-4.64 2.53,-13.1 2.53,-20.91l68.3 0 0 -9.64c0,-7.18 -17.75,-13.7 -13.51,-18.78 4.43,-5.32 -0.46,-3.64 7.89,-3.64 0,0 -0.4,-9.47 -0.4,-9.47l-114.51 0c-1.56,0 -2.02,0.47 -2.02,2.02zm54.93 -40.86c-6.76,0 -18.87,1.05 -23.02,-1.78 -5.33,-3.64 -3.79,-6.92 -3.79,-17.64 0,-3.3 5.24,-6.03 9.4,-6.03l20.77 0c9.63,0 8.03,12.03 8.03,17.41 0,5.47 -5.73,8.04 -11.39,8.04zm38.85 -16.75l0 -32.16c0,-11.97 5.28,-16.07 16.75,-16.07 12.79,0 69.36,-0.64 77.77,0.59 7.36,1.09 9.97,7.84 9.97,15.48 0,9.45 1.79,39.09 -3.15,44.4 -0.84,0.9 -3.77,2.7 -4.86,3.17 -1.83,0.81 -4.03,1.34 -6.72,1.34l-75.03 0c-10.58,0 -14.73,-6.68 -14.73,-16.75zm44.87 -140.67c19.62,0 59.43,0.55 75.25,8.49 7.27,3.64 5.27,0.3 8.13,18l3.43 22.7c0.77,4.25 2.3,11.14 2.3,15.11l-163.46 0c0,-4.01 3.8,-23.54 4.79,-29.36 0.42,-2.41 0.42,-4.98 0.84,-7.87 0.39,-2.75 0.78,-4.68 1.25,-7.45 1.83,-10.54 0.58,-8 6.52,-10.9 13.23,-6.49 46.6,-8.72 60.95,-8.72zm-108.51 104.5c-3.47,0 -9.94,1.19 -12.3,2.44 -8.17,4.34 -11.53,8.6 -14.94,15.86 -1.61,3.4 -2.9,7.8 -2.9,12.51l0 49.58 170.75 0c17.49,-31.98 47.93,-15.54 52.61,0l51 0c3.31,-9.55 6.03,-17.13 7,-19.15 1.98,-4.21 3.95,-10.09 10.69,-13.84l0 -16.59c0,-5.69 -2.45,-12.64 -5.01,-17.08 -4.34,-7.53 -14.54,-13.73 -25.13,-13.73 0,-4.55 -8.43,-54.63 -9.76,-62.58 -0.74,-4.39 -0.85,-9 -1.68,-13.06 -5.32,-25.77 -0.48,-32.06 -21.41,-44.23 -1.37,-0.81 -3.25,-1.79 -4.93,-2.45l-22.68 -6.13c-2.4,-0.32 -4.41,-0.17 -6.83,-0.53 -28.55,-4.26 -47.8,-3.22 -76.73,-2.3 -9.99,0.3 -29.06,2.78 -38.7,5.49 -1.59,0.45 -3.17,1 -5.08,1.63 -9.27,3.03 -10.82,3.08 -19.57,9.9 -11.03,8.55 -9.69,22.44 -12.84,38.07l-3.9 25.56c-0.71,4.28 -1.67,8.28 -2.12,11.95 -0.31,2.48 -0.14,4.38 -0.54,6.85 -0.42,2.62 -0.66,3.76 -1.14,6.2 -0.98,4.95 -3.86,20.91 -3.86,25.63z"/>
   </g>
  </g>
 </g>
</svg>
