<?xml version="1.0" encoding="UTF-8"?>
<!DOCTYPE svg PUBLIC "-//W3C//DTD SVG 1.1//EN" "http://www.w3.org/Graphics/SVG/1.1/DTD/svg11.dtd">
<!-- Creator: CorelDRAW 2019 (64 Bit) -->
<svg xmlns="http://www.w3.org/2000/svg" xml:space="preserve" width="7.5352mm" height="7.5352mm" version="1.1" style="shape-rendering:geometricPrecision; text-rendering:geometricPrecision; image-rendering:optimizeQuality; fill-rule:evenodd; clip-rule:evenodd"
viewBox="0 0 753.52 753.52"
 xmlns:xlink="http://www.w3.org/1999/xlink">
 <defs>
  <style type="text/css">
   <![CDATA[
    .fil0 {fill:red}
    .fil1 {fill:white}
   ]]>
  </style>
 </defs>
 <g id="Camada_x0020_1">
  <metadata id="CorelCorpID_0Corel-Layer"/>
  <g id="_2458208043552">
   <rect class="fil0" x="-4.24" y="4.22" width="753.53" height="753.53"/>
   <g>
    <path class="fil1" d="M335.12 463.49l-0.14 18.26c43.98,0.87 92.02,0.02 136.72,0.03 22.24,0 14.53,1.33 36.09,-9.74 13.63,-7 79.62,-42.8 91.8,-45.03 12.51,-2.29 28.52,1.65 35.95,8.66 -29.29,17.84 -64.52,40.57 -93.22,57.19l-46.67 28.53c-5.75,2.77 -226.92,44.07 -251.7,49.12 -14.08,2.87 -58.3,3.53 -72.98,2.18 0,-16.86 -0.01,-33.58 0,-50.42 0,-14.67 -1.52,-11.33 6.31,-19.15 4.47,-4.47 8.3,-8.34 12.82,-12.83l51.43 -51.16c11.95,-9.7 19.5,-12.21 38.68,-12.19 20.53,0.02 144.39,-0.92 153.32,0.23 -2.27,16.18 -16.86,30.69 -31.55,34.78 -12.04,3.35 -51.7,1.44 -66.86,1.54zm99.34 -0.38c3.79,-3.24 11.24,-14.48 14.17,-22.07 3.8,-9.81 4.68,-21.05 4.23,-32.39 -59.24,-0.09 -118.54,-0.16 -177.78,0 -39.39,0.1 -53.47,25.89 -81.36,51.92 -5.67,5.29 -16.98,16.2 -22.07,22.29 -2.72,-2.03 -3.3,-1.28 -10.25,-1.24l-81.43 0.07 0.08 18.31 72.66 -0.05 -0.04 127.42 -72.48 0.23 -0.11 18.38 90.49 -0.07 0.41 -54.48c17.02,-1.71 40.92,-0.04 58.84,-0.22 12.79,-0.12 219.51,-41.85 248.9,-47.43 5.66,-1.07 19.46,-3.01 23.87,-5.11l146.9 -89.93c7.86,-5.1 9.93,-12.53 5.69,-20.2 -4.87,-8.81 -27.33,-18.66 -39.62,-20.13 -21.1,-2.53 -31.13,4.12 -46.26,11.38 -22.5,10.82 -55.38,28.39 -78.47,40.43 -9.48,4.95 -12.05,3.26 -26.83,3.26 -7.68,0 -22.75,0.83 -29.54,-0.37z"/>
    <path class="fil1" d="M501.26 244.07l-36.68 0.12 -0.11 -36 73.03 -0.35 0.43 16.32 17.83 0.19 0.47 -16.51 90.31 0.03 0.14 36.29 -53.86 0.03 -0.11 -18.26 -18.43 0.1 0.04 18.26 -54.47 -0.05 -0.3 -18.25 -17.69 0.03 -0.6 18.05zm-292.01 -91.2l18.21 0.32c0.25,-7.31 3.48,-12.15 7.86,-15.18 5.99,-4.12 12.88,-3.16 20.96,-3.16l141.9 0c13.31,0.03 33.63,-2.68 42.29,4.89 8.4,7.33 5.69,28.27 5.7,41.46 0.04,31.63 0,63.26 0,94.88 0,17.24 3.26,31.13 -8.76,38.33 -6.89,4.13 -11.51,2.78 -20.42,2.8 -7.98,0.01 -15.96,-0.02 -23.94,0.01l-141.9 0.01c-17.59,0.07 -23.82,-6.59 -23.77,-24.04 0.04,-13.65 0.91,-87.7 -0.37,-94.66l-17.55 0.07c-2.06,10.31 -0.42,44.93 -0.42,57.82 0,14.38 -1.93,43.98 2.51,55.82 4.75,12.68 17.3,23.11 34.49,23.23l175.22 -0.02c55.84,-0.51 40.47,-47.31 43.44,-72.96 57.3,1.07 118.92,-0.03 177.11,0.08 25.34,0.05 23.24,-14.38 23.24,-36.92 0,-22.4 2.12,-36.23 -23.24,-36.16 -13.71,0.04 -171.18,0.75 -177.19,-0.28 -2.2,-23.33 8.61,-54.99 -21.46,-69.33 -12.3,-5.87 -69.77,-3.33 -87.72,-3.33 -30.49,0 -60.98,-0.02 -91.47,0 -21.23,0.01 -37.44,-1.99 -49.77,18.25 -3.51,5.75 -4.59,10.11 -4.95,18.07z"/>
    <path class="fil1" d="M263.86 239.69l17.75 0.09 0.47 40.89 -18.34 -0.03 0.12 -40.95zm-68.51 86.6l0.05 -18.19c-63.01,-3.87 -88.52,-69.26 -50.53,-114.37 13.48,-16.02 44.26,-30.09 74.26,-18.12 6.76,2.7 10.77,5.03 16.09,8.75 13.11,9.16 28.09,29.83 27.8,47.89l-17.49 0.13 0.03 66.32 54.66 0.26 0.11 -145.52 -45.46 -0.34 -0.23 18.12 27.02 0.17 0.37 57.14c-3.81,-7.32 -3.54,-25.11 -19.74,-43.95 -8.43,-9.8 -20.2,-20.43 -36.97,-26.29 -16.84,-5.9 -36.17,-6.88 -54.35,-1.75 -14.64,4.14 -29.27,13.62 -39.6,24.56 -24.15,25.56 -28.56,65.19 -14.06,96.32 11.27,24.2 40.03,49.23 78.04,48.87z"/>
    <path class="fil1" d="M388.66 235.5c10.71,-1.71 19.37,5.85 20.74,14.97 1.65,11.03 -5.95,19.45 -15.04,20.84 -23.68,3.61 -29.42,-32.04 -5.7,-35.81zm-4.62 -17.71c-17.9,3.62 -33.56,21.67 -28.12,44.1 11.12,45.77 81.17,31.12 71.21,-16.42 -4.01,-19.17 -23.15,-31.72 -43.09,-27.68z"/>
    <path class="fil1" d="M343.59 180.97c12.08,-3.45 14.79,14.64 4.81,17.21 -11.56,2.97 -16.66,-13.82 -4.81,-17.21zm-3.53 -18.05c-36.24,8.41 -22.94,61.18 11.95,53.29 35.32,-7.99 22.77,-61.35 -11.95,-53.29z"/>
    <polygon class="fil1" points="116.48,609.01 134.58,609.29 134.77,572.29 116.58,572.17 "/>
   </g>
  </g>
 </g>
</svg>
