<?xml version="1.0" encoding="UTF-8"?>
<!DOCTYPE svg PUBLIC "-//W3C//DTD SVG 1.1//EN" "http://www.w3.org/Graphics/SVG/1.1/DTD/svg11.dtd">
<!-- Creator: CorelDRAW 2019 (64 Bit) -->
<svg xmlns="http://www.w3.org/2000/svg" xml:space="preserve" width="500px" height="500px" version="1.1" shape-rendering="geometricPrecision" text-rendering="geometricPrecision" image-rendering="optimizeQuality" fill-rule="evenodd" clip-rule="evenodd"
viewBox="0 0 500 500"
 xmlns:xlink="http://www.w3.org/1999/xlink">
 <g id="Camada_x0020_1">
  <metadata id="CorelCorpID_0Corel-Layer"/>
  <g id="_2458220426016">
   <polygon fill="red" points="0,500 500,500 500,0 0,0 "/>
   <g>
    <path fill="white" d="M227.65 267.27l-0.09 10.91c26.28,0.51 54.98,0.01 81.69,0.01 13.29,0 8.68,0.8 21.56,-5.82 8.14,-4.18 47.57,-25.57 54.85,-26.9 7.48,-1.37 17.04,0.99 21.48,5.17 -17.5,10.66 -38.55,24.24 -55.7,34.18l-27.88 17.04c-3.44,1.65 -135.58,26.33 -150.38,29.35 -8.42,1.71 -34.84,2.1 -43.61,1.3 0,-10.07 0,-20.06 0,-30.12 0,-8.77 -0.91,-6.78 3.77,-11.45 2.67,-2.67 4.96,-4.98 7.66,-7.66l30.73 -30.57c7.14,-5.8 11.65,-7.29 23.11,-7.28 12.26,0.01 86.27,-0.55 91.6,0.13 -1.35,9.67 -10.07,18.34 -18.85,20.79 -7.19,2 -30.89,0.86 -39.94,0.92zm59.35 -0.23c2.26,-1.94 6.72,-8.65 8.47,-13.18 2.27,-5.87 2.79,-12.58 2.52,-19.36 -35.39,-0.05 -70.82,-0.1 -106.21,0 -23.54,0.06 -31.95,15.47 -48.62,31.02 -3.38,3.16 -10.14,9.68 -13.18,13.32 -1.63,-1.21 -1.97,-0.77 -6.13,-0.74l-48.65 0.04 0.05 10.94 43.41 -0.03 -0.02 76.13 -43.3 0.14 -0.07 10.98 54.07 -0.04 0.24 -32.55c10.17,-1.02 24.45,-0.03 35.15,-0.13 7.65,-0.08 131.16,-25.01 148.72,-28.34 3.37,-0.65 11.62,-1.8 14.26,-3.06l87.76 -53.73c4.7,-3.04 5.94,-7.48 3.4,-12.06 -2.9,-5.27 -16.33,-11.16 -23.67,-12.03 -12.61,-1.51 -18.59,2.46 -27.63,6.8 -13.45,6.46 -33.09,16.96 -46.89,24.15 -5.66,2.96 -7.2,1.95 -16.03,1.95 -4.59,0 -13.59,0.5 -17.65,-0.22z"/>
    <path fill="white" d="M326.91 136.17l-21.91 0.07 -0.07 -21.51 43.64 -0.2 0.25 9.74 10.66 0.12 0.28 -9.87 53.95 0.02 0.08 21.68 -32.17 0.02 -0.07 -10.91 -11.01 0.06 0.03 10.91 -32.55 -0.03 -0.18 -10.9 -10.57 0.01 -0.36 10.79zm-174.47 -54.49l10.88 0.19c0.15,-4.37 2.08,-7.26 4.7,-9.07 3.58,-2.46 7.7,-1.89 12.52,-1.89l84.78 0c7.96,0.02 20.09,-1.6 25.27,2.93 5.02,4.38 3.4,16.89 3.41,24.77 0.02,18.89 0,37.79 0,56.69 0,10.29 1.94,18.59 -5.23,22.89 -4.12,2.47 -6.88,1.67 -12.21,1.68 -4.77,0.01 -9.53,-0.01 -14.3,0l-84.78 0.01c-10.51,0.04 -14.23,-3.93 -14.21,-14.37 0.03,-8.15 0.55,-52.39 -0.21,-56.55l-10.49 0.04c-1.23,6.16 -0.25,26.85 -0.25,34.55 0,8.59 -1.15,26.28 1.5,33.35 2.84,7.58 10.34,13.8 20.6,13.88l104.69 -0.01c33.37,-0.31 24.18,-28.27 25.96,-43.59 34.23,0.64 71.05,-0.02 105.82,0.04 15.14,0.03 13.88,-8.59 13.88,-22.06 0,-13.38 1.27,-21.64 -13.88,-21.6 -8.19,0.02 -102.28,0.45 -105.87,-0.17 -1.32,-13.94 5.14,-32.85 -12.82,-41.42 -7.35,-3.51 -41.69,-1.99 -52.41,-1.99 -18.22,0 -36.43,-0.01 -54.65,0 -12.69,0.01 -22.37,-1.19 -29.74,10.9 -2.09,3.44 -2.74,6.05 -2.96,10.8z"/>
    <path fill="white" d="M185.07 133.55l10.61 0.05 0.28 24.44 -10.96 -0.02 0.07 -24.47zm-40.93 51.74l0.03 -10.86c-37.65,-2.31 -52.89,-41.38 -30.19,-68.34 8.06,-9.57 26.44,-17.97 44.37,-10.82 4.04,1.61 6.43,3 9.61,5.22 7.83,5.48 16.78,17.83 16.61,28.62l-10.45 0.07 0.02 39.63 32.66 0.15 0.06 -86.94 -27.16 -0.2 -0.14 10.82 16.15 0.11 0.22 34.13c-2.28,-4.37 -2.12,-15 -11.79,-26.25 -5.04,-5.86 -12.08,-12.21 -22.09,-15.71 -10.07,-3.53 -21.62,-4.12 -32.48,-1.05 -8.75,2.47 -17.48,8.14 -23.66,14.67 -14.43,15.27 -17.06,38.96 -8.4,57.55 6.74,14.46 23.92,29.42 46.63,29.2z"/>
    <path fill="white" d="M259.64 131.05c6.39,-1.02 11.57,3.49 12.39,8.94 0.99,6.6 -3.56,11.63 -8.99,12.45 -14.15,2.16 -17.57,-19.14 -3.4,-21.39zm-2.76 -10.58c-10.69,2.16 -20.06,12.95 -16.8,26.35 6.64,27.34 48.49,18.59 42.54,-9.82 -2.4,-11.45 -13.83,-18.94 -25.74,-16.53z"/>
    <path fill="white" d="M232.71 98.47c7.22,-2.06 8.84,8.75 2.87,10.28 -6.9,1.78 -9.95,-8.26 -2.87,-10.28zm-2.11 -10.79c-21.65,5.03 -13.71,36.56 7.14,31.85 21.1,-4.78 13.61,-36.66 -7.14,-31.85z"/>
    <polygon fill="white" points="97.02,354.21 107.83,354.38 107.95,332.27 97.08,332.2 "/>
   </g>
   <polygon fill="white" points="0,500 500,500 500,414.65 0,414.65 "/>
   <path fill="red" fill-rule="nonzero" d="M77.62 441.02l5.83 0 0 31.78 9.58 0 0 5.3 -15.41 0 0 -37.08zm26.43 37.61c-2.86,0 -5.05,-0.81 -6.57,-2.44 -1.52,-1.62 -2.27,-3.92 -2.27,-6.88l0 -19.5c0,-2.96 0.75,-5.26 2.27,-6.88 1.52,-1.63 3.71,-2.44 6.57,-2.44 2.86,0 5.05,0.81 6.57,2.44 1.52,1.62 2.28,3.92 2.28,6.88l0 19.5c0,2.96 -0.76,5.26 -2.28,6.88 -1.52,1.63 -3.71,2.44 -6.57,2.44zm0 -5.3c2.02,0 3.02,-1.21 3.02,-3.65l0 -20.24c0,-2.44 -1,-3.65 -3.02,-3.65 -2.01,0 -3.02,1.21 -3.02,3.65l0 20.24c0,2.44 1.01,3.65 3.02,3.65zm20.98 5.3c-2.79,0 -4.92,-0.79 -6.38,-2.38 -1.47,-1.59 -2.2,-3.83 -2.2,-6.73l0 -19.92c0,-2.9 0.73,-5.14 2.2,-6.73 1.46,-1.59 3.59,-2.38 6.38,-2.38 2.79,0 4.92,0.79 6.38,2.38 1.47,1.59 2.2,3.83 2.2,6.73l0 3.92 -5.51 0 0 -4.29c0,-2.3 -0.97,-3.44 -2.91,-3.44 -1.94,0 -2.91,1.14 -2.91,3.44l0 20.71c0,2.26 0.97,3.39 2.91,3.39 1.94,0 2.91,-1.13 2.91,-3.39l0 -5.67 5.51 0 0 5.25c0,2.9 -0.73,5.14 -2.2,6.73 -1.46,1.59 -3.59,2.38 -6.38,2.38zm16.58 -37.61l7.9 0 6.04 37.08 -5.83 0 -1.06 -7.36 0 0.1 -6.62 0 -1.06 7.26 -5.41 0 6.04 -37.08zm6.36 24.79l-2.6 -18.33 -0.1 0 -2.55 18.33 5.25 0zm18.49 12.82c-2.79,0 -4.92,-0.79 -6.39,-2.38 -1.46,-1.59 -2.19,-3.83 -2.19,-6.73l0 -19.92c0,-2.9 0.73,-5.14 2.19,-6.73 1.47,-1.59 3.6,-2.38 6.39,-2.38 2.79,0 4.92,0.79 6.38,2.38 1.47,1.59 2.2,3.83 2.2,6.73l0 3.92 -5.51 0 0 -4.29c0,-2.3 -0.97,-3.44 -2.91,-3.44 -1.95,0 -2.92,1.14 -2.92,3.44l0 20.71c0,2.26 0.97,3.39 2.92,3.39 1.94,0 2.91,-1.13 2.91,-3.39l0 -5.67 5.51 0 0 5.25c0,2.9 -0.73,5.14 -2.2,6.73 -1.46,1.59 -3.59,2.38 -6.38,2.38zm-0.37 7.26c-1.63,0 -2.88,-0.23 -3.76,-0.69 -0.89,-0.46 -1.33,-1.25 -1.33,-2.38l0 -0.53 3.92 0 0 0.42c0,0.35 0.12,0.62 0.35,0.79 0.23,0.18 0.5,0.27 0.82,0.27 0.49,0 0.85,-0.1 1.06,-0.29 0.21,-0.2 0.31,-0.52 0.31,-0.98 0,-0.5 -0.15,-0.85 -0.47,-1.06 -0.32,-0.21 -0.81,-0.32 -1.49,-0.32l-0.26 0 0 -3.76 2.6 0 0 2.81c1.2,0 2.11,0.19 2.72,0.58 0.62,0.39 0.93,1.02 0.93,1.91 0,1.3 -0.44,2.17 -1.32,2.59 -0.89,0.43 -2.25,0.64 -4.08,0.64zm16.95 -44.87l7.89 0 6.04 37.08 -5.82 0 -1.06 -7.36 0 0.1 -6.63 0 -1.06 7.26 -5.4 0 6.04 -37.08zm6.36 24.79l-2.6 -18.33 -0.1 0 -2.55 18.33 5.25 0zm-9.75 -28.77c0.67,-1.51 1.39,-2.64 2.17,-3.36 0.78,-0.72 1.66,-1.09 2.65,-1.09 0.64,0 1.19,0.09 1.67,0.27 0.48,0.18 0.98,0.42 1.51,0.74 0.32,0.18 0.63,0.34 0.93,0.48 0.3,0.14 0.59,0.21 0.87,0.21 0.42,0 0.79,-0.16 1.11,-0.48 0.32,-0.31 0.66,-0.84 1.01,-1.59l2.81 1.7c-0.67,1.52 -1.4,2.64 -2.18,3.36 -0.77,0.73 -1.65,1.09 -2.64,1.09 -0.64,0 -1.2,-0.09 -1.67,-0.27 -0.48,-0.17 -0.98,-0.42 -1.51,-0.74 -0.32,-0.17 -0.63,-0.33 -0.93,-0.47 -0.3,-0.15 -0.59,-0.22 -0.87,-0.22 -0.43,0 -0.8,0.16 -1.12,0.48 -0.31,0.32 -0.65,0.85 -1,1.59l-2.81 -1.7zm28.45 41.59c-2.86,0 -5.05,-0.81 -6.57,-2.44 -1.52,-1.62 -2.28,-3.92 -2.28,-6.88l0 -19.5c0,-2.96 0.76,-5.26 2.28,-6.88 1.52,-1.63 3.71,-2.44 6.57,-2.44 2.86,0 5.05,0.81 6.57,2.44 1.51,1.62 2.27,3.92 2.27,6.88l0 19.5c0,2.96 -0.76,5.26 -2.27,6.88 -1.52,1.63 -3.71,2.44 -6.57,2.44zm0 -5.3c2.01,0 3.02,-1.21 3.02,-3.65l0 -20.24c0,-2.44 -1.01,-3.65 -3.02,-3.65 -2.02,0 -3.02,1.21 -3.02,3.65l0 20.24c0,2.44 1,3.65 3.02,3.65zm21.24 -32.31l8.9 0c2.9,0 5.07,0.78 6.52,2.33 1.44,1.55 2.17,3.83 2.17,6.83l0 18.76c0,3 -0.73,5.28 -2.17,6.83 -1.45,1.55 -3.62,2.33 -6.52,2.33l-8.9 0 0 -37.08zm8.79 31.78c0.96,0 1.69,-0.28 2.2,-0.84 0.52,-0.57 0.77,-1.49 0.77,-2.76l0 -19.28c0,-1.27 -0.25,-2.19 -0.77,-2.76 -0.51,-0.56 -1.24,-0.84 -2.2,-0.84l-2.96 0 0 26.48 2.96 0zm12.72 -31.78l15.89 0 0 5.3 -10.07 0 0 9.8 8 0 0 5.29 -8 0 0 11.39 10.07 0 0 5.3 -15.89 0 0 -37.08zm26.17 0l5.88 0 3.81 28.76 0.11 0 3.81 -28.76 5.35 0 -5.61 37.08 -7.74 0 -5.61 -37.08zm21.77 0l15.89 0 0 5.3 -10.06 0 0 9.8 8 0 0 5.29 -8 0 0 11.39 10.06 0 0 5.3 -15.89 0 0 -37.08zm19.23 0l5.83 0 0 37.08 -5.83 0 0 -37.08zm3.44 -8.58l6.36 0 -5.67 6.09 -4.39 0 3.7 -6.09zm14.94 46.19c-2.79,0 -4.91,-0.79 -6.38,-2.38 -1.47,-1.59 -2.2,-3.83 -2.2,-6.73l0 -19.92c0,-2.9 0.73,-5.14 2.2,-6.73 1.47,-1.59 3.59,-2.38 6.38,-2.38 2.79,0 4.92,0.79 6.39,2.38 1.46,1.59 2.2,3.83 2.2,6.73l0 3.92 -5.51 0 0 -4.29c0,-2.3 -0.97,-3.44 -2.92,-3.44 -1.94,0 -2.91,1.14 -2.91,3.44l0 20.71c0,2.26 0.97,3.39 2.91,3.39 1.95,0 2.92,-1.13 2.92,-3.39l0 -5.67 5.51 0 0 5.25c0,2.9 -0.74,5.14 -2.2,6.73 -1.47,1.59 -3.6,2.38 -6.39,2.38zm20.56 0c-2.83,0 -4.98,-0.8 -6.46,-2.41 -1.49,-1.61 -2.23,-3.91 -2.23,-6.91l0 -28.29 5.83 0 0 28.71c0,1.27 0.25,2.19 0.77,2.76 0.51,0.56 1.24,0.84 2.19,0.84 0.96,0 1.69,-0.28 2.2,-0.84 0.52,-0.57 0.77,-1.49 0.77,-2.76l0 -28.71 5.62 0 0 28.29c0,3 -0.74,5.3 -2.23,6.91 -1.48,1.61 -3.64,2.41 -6.46,2.41zm12.82 -37.61l5.83 0 0 31.78 9.59 0 0 5.3 -15.42 0 0 -37.08zm26.44 37.61c-2.87,0 -5.06,-0.81 -6.57,-2.44 -1.52,-1.62 -2.28,-3.92 -2.28,-6.88l0 -19.5c0,-2.96 0.76,-5.26 2.28,-6.88 1.51,-1.63 3.7,-2.44 6.57,-2.44 2.86,0 5.05,0.81 6.56,2.44 1.52,1.62 2.28,3.92 2.28,6.88l0 19.5c0,2.96 -0.76,5.26 -2.28,6.88 -1.51,1.63 -3.7,2.44 -6.56,2.44zm0 -5.3c2.01,0 3.01,-1.21 3.01,-3.65l0 -20.24c0,-2.44 -1,-3.65 -3.01,-3.65 -2.02,0 -3.03,1.21 -3.03,3.65l0 20.24c0,2.44 1.01,3.65 3.03,3.65zm20.34 5.3c-2.83,0 -4.96,-0.8 -6.41,-2.41 -1.45,-1.61 -2.17,-3.91 -2.17,-6.91l0 -2.12 5.5 0 0 2.54c0,2.4 1.01,3.6 3.02,3.6 0.99,0 1.74,-0.29 2.26,-0.87 0.51,-0.58 0.76,-1.53 0.76,-2.83 0,-1.56 -0.35,-2.93 -1.06,-4.11 -0.7,-1.18 -2.01,-2.61 -3.92,-4.27 -2.4,-2.11 -4.07,-4.03 -5.03,-5.74 -0.95,-1.72 -1.43,-3.65 -1.43,-5.8 0,-2.94 0.74,-5.2 2.23,-6.81 1.48,-1.61 3.63,-2.41 6.46,-2.41 2.79,0 4.9,0.8 6.33,2.41 1.43,1.61 2.15,3.91 2.15,6.91l0 1.54 -5.51 0 0 -1.91c0,-1.27 -0.25,-2.2 -0.75,-2.78 -0.49,-0.58 -1.21,-0.87 -2.17,-0.87 -1.94,0 -2.91,1.18 -2.91,3.55 0,1.34 0.36,2.59 1.08,3.76 0.73,1.16 2.04,2.57 3.95,4.23 2.44,2.12 4.12,4.05 5.03,5.78 0.92,1.73 1.38,3.76 1.38,6.09 0,3.04 -0.75,5.37 -2.25,6.99 -1.5,1.63 -3.68,2.44 -6.54,2.44z"/>
  </g>
 </g>
</svg>
