<?xml version="1.0" encoding="UTF-8"?>
<!DOCTYPE svg PUBLIC "-//W3C//DTD SVG 1.1//EN" "http://www.w3.org/Graphics/SVG/1.1/DTD/svg11.dtd">
<!-- Creator: CorelDRAW 2019 (64 Bit) -->
<svg xmlns="http://www.w3.org/2000/svg" xml:space="preserve" width="500px" height="500px" version="1.1" shape-rendering="geometricPrecision" text-rendering="geometricPrecision" image-rendering="optimizeQuality" fill-rule="evenodd" clip-rule="evenodd"
viewBox="0 0 500 500"
 xmlns:xlink="http://www.w3.org/1999/xlink">
 <g id="Camada_x0020_1">
  <metadata id="CorelCorpID_0Corel-Layer"/>
  <g id="_2458210638960">
   <polygon fill="#FF6600" points="0,500 500,500 500,0 0,0 "/>
   <path fill="white" d="M103.59 279.34c-1.41,1.15 -2.87,2.19 -4.35,3.62 -1.43,1.4 -2.66,2.66 -4.13,4.05 -3.19,3.04 -3.85,5.89 -6.61,9.12l0 3.36c1.28,1.28 1.83,2.31 3.82,3.06 6.65,1.2 29.58,-1.38 33.15,0.97 1.82,1.2 2.88,3.13 4.11,4.6 2.14,2.56 10.67,10.8 11.94,13.7 -1.07,1.13 -3.68,3.87 -4.62,4.54 -1.01,2.18 -2.45,2.76 -4.01,4.83 -1.51,1.99 -2.42,2.5 -3.92,4.25 -4.8,5.59 -2.06,4.6 -11.9,4.59 -5.44,0 -10.89,0.01 -16.33,0 -6.51,0 -9.1,-1.17 -12.24,3.73l0 2.96c4.42,4.73 7.22,15.66 27.74,23.15 4.13,1.51 10.81,2 13.82,3.23l6.64 0c3.32,-1.24 8.22,-1.27 11.8,-2.33 3.6,-1.07 6.89,-2.58 9.92,-4.12 8.42,-4.26 11.25,-8.72 15.76,-12.63l7.61 -10.94 136.14 0c1.93,0.42 4.58,6.63 7.83,11.05 1.37,0.9 2.05,2.33 3.24,3.52 15.05,15.14 28.85,13.38 34.23,15.45l6.22 0c4.89,-2.1 12.63,-0.46 25.41,-9.05 10.34,-6.94 11.62,-11.79 16.65,-17.78l0 -3.33c-3.51,-4.5 -6.9,-3.36 -13.41,-3.36 -29.92,0 -19.01,3.16 -34.6,-12.9l-4.91 -5.41 9.76 -11.16c1.24,-1.39 1.14,-1.25 2.71,-2.53 5.58,-4.54 0.83,-4.28 11.73,-4.19 5.48,-0.07 10.99,-0.02 16.47,-0.02 5.95,0.01 12.25,1.31 11.88,-5.42 -0.36,-6.6 -10.56,-15.06 -14.72,-18.65l-9.87 -5.46c-14.19,-6.74 -34.1,-5.3 -47.2,3.18 -7.57,4.9 -13.74,10.36 -18.19,18.57 -1.01,1.88 -1.09,3.16 -2.65,4.24l-137.31 0c-2.37,-0.64 -7.74,-19.62 -31.29,-27.24 -11.47,-3.71 -25.41,-3.49 -36.72,1.56 -1.91,0.84 -3.23,1.53 -5.07,2.53 -1.61,0.89 -2.95,1.93 -4.53,2.66zm171.59 46.51l10.18 0.2 -0.07 -10.19 -10.06 0.09 -0.05 9.9zm-60.5 0.2l10.16 -0.08 -0.04 -9.93 -10.05 -0.16 -0.07 10.17zm30.28 -0.27l10.12 0.2 -0.06 -9.86 -10.08 -0.18 0.02 9.84z"/>
   <path fill="white" d="M133.8 117.72c0.94,5.43 5.75,4.21 14.47,8.32 0.47,2.36 0.3,4.83 1.03,7.92 0.35,1.5 0.49,1.33 0.62,2.75 -2.33,2.92 -9.53,6.21 -11.02,9.43 -1.34,2.91 3.13,8.91 5.49,12.98 7.05,12.13 5.48,12.63 14.87,7.8l6.34 -2.89c10.57,7.39 9.64,4.39 8.6,12.95 -0.22,1.7 -0.72,5.1 -0.66,6.74 0.05,1.15 0.28,1.86 1.24,2.65 2.17,1.82 0.98,0.53 3.45,0.84 1.94,0.25 5.11,1.24 7.12,1.72 20.02,4.83 12.82,5.13 20.73,-11.36l11.03 -1.53c1.28,2 7.27,10.15 9.41,11.01 2.46,0.98 4.55,-0.87 6.45,-2.11l11.82 -7.22c7.03,-4.37 5.04,-4.89 3.38,-8.6 -0.65,-1.44 -0.59,-1.74 -1.41,-3.2l-3.06 -6.21 6.66 -9.17c17.81,1.55 15.47,4.28 19.08,-10.3 0.76,-3.04 3.46,-11.47 2.58,-13.7 -1.27,-3.25 -10.64,-4.8 -14.08,-6.62l-1.45 -11.19c1.85,-1.02 10.21,-7.26 10.99,-9.23 1.08,-2.79 -0.85,-4.38 -2.14,-6.5l-7.22 -11.81c-3.68,-6.42 -4.24,-5.83 -14.74,-0.72 -1.35,0.65 -1.75,1.15 -3.14,1.62l-9.34 -6.49 0.69 -5.83c0.79,-12.02 3.33,-9.63 -14,-14 -3.38,-0.86 -9.68,-3.26 -11.81,-1.17 -2.06,2 -4,10.44 -6.09,13.67l-10.96 1.47c-0.93,-1.62 -7.43,-10.14 -9.04,-10.88 -3.02,-1.43 -8.28,2.82 -12.66,5.56 -13.95,8.75 -12.37,5.69 -6.33,18.6 0.52,1.11 0.92,2.21 1.37,3.23 -2.51,3.28 -4.09,5.1 -5.96,9.22 -2.96,-0.32 -6.07,-0.61 -9.2,-0.97 -3.75,-0.43 -6.52,-1.62 -7.94,2.61 -2.13,6.31 -3.06,13.97 -5.17,20.61zm75.62 -18.92c-8.7,-1.17 -12.73,-1.14 -18.51,2.34 -5.49,3.3 -10.15,8.25 -12.09,16 -3.53,14.2 5.13,33.08 27.82,31.19 9.15,-0.76 18.94,-7.9 21.36,-18.9 2.51,-11.46 -4.18,-28.7 -18.58,-30.63z"/>
   <path fill="white" d="M350.92 228.61c2.03,-3.81 3.92,-4 1.93,-8l-6.82 -6.98 1.74 -7.15c1.08,-0.84 6.11,-2.07 7.74,-1.98 6.32,-2.75 4.54,-2.29 3.54,-11.46 -0.57,-5.18 -0.72,-11.05 -4,-12.82 -14.85,-0.46 -7.61,1.2 -14.94,-6.94 6.48,-12.31 9.43,-9.17 -2.96,-18.33 -8.81,-6.52 -7.84,-9.01 -18.15,2.45l-7.39 -2.25c-0.72,-1.92 -2.1,-9.12 -3,-10.38 -1.86,-2.62 -6.46,-1.22 -11.24,-0.53 -13.98,2.04 -11.75,0.35 -12.11,14.73l-6.81 4.01c-13.07,-6.36 -9.37,-8.92 -18.76,3.33 -10.27,13.41 -3.42,8.28 2.89,18.05l-2.12 7.47c-1.07,0.08 -9.75,2.24 -10.4,2.71 -2.01,1.44 -1.56,3.92 -1.24,5.71l1.63 11.31c1.09,10.01 5.89,4.97 14,6.49 1.19,1.94 2.05,4.44 3.98,6.45 -6.26,12.59 -9.18,9.8 2.9,18.74 8.14,6.03 8.71,9.16 17.5,-2.55l8.06 2.29c-0.07,1.84 0.55,3.44 1.01,5.38 1.73,7.24 1.6,7.19 13.22,5.34 2.72,-0.44 9.15,-0.52 10.8,-2.89 1.55,-2.22 0.51,-9.03 0.99,-12.07 1.18,-0.48 2.18,-0.96 3.46,-1.69 0.78,-0.44 2.15,-1.5 3.18,-2.04 3.67,2.08 9.76,7.03 12.78,4.41 2.47,-2.13 6.44,-9.52 8.59,-10.81zm-42.52 -47.96c-24.67,-5.38 -32.94,32.01 -7.94,37.03 8.84,1.78 20.02,-3.13 22.47,-14.22 2.14,-9.69 -3.05,-20.31 -14.53,-22.81z"/>
   <path fill="white" d="M353.57 110.59c1.49,-2.78 2.87,-2.92 1.41,-5.84l-4.98 -5.1 1.27 -5.23c0.79,-0.61 4.46,-1.51 5.66,-1.44 4.61,-2.01 3.32,-1.68 2.58,-8.38 -0.41,-3.78 -0.52,-8.07 -2.92,-9.37 -10.85,-0.33 -5.56,0.88 -10.92,-5.07 4.74,-8.99 6.89,-6.7 -2.16,-13.39 -6.44,-4.76 -5.73,-6.58 -13.26,1.79l-5.4 -1.64c-0.52,-1.4 -1.53,-6.67 -2.19,-7.59 -1.36,-1.91 -4.72,-0.89 -8.21,-0.38 -10.22,1.49 -8.59,0.25 -8.85,10.76l-4.98 2.93c-9.55,-4.65 -6.84,-6.52 -13.7,2.43 -7.5,9.8 -2.5,6.05 2.11,13.19l-1.55 5.46c-0.78,0.06 -7.12,1.63 -7.6,1.98 -1.47,1.05 -1.14,2.86 -0.91,4.17l1.19 8.26c0.8,7.32 4.31,3.63 10.24,4.74 0.87,1.42 1.49,3.25 2.9,4.72 -4.57,9.2 -6.7,7.16 2.12,13.69 5.95,4.41 6.36,6.69 12.79,-1.87l5.88 1.68c-0.04,1.34 0.41,2.51 0.75,3.93 1.26,5.29 1.17,5.26 9.65,3.9 1.99,-0.32 6.69,-0.38 7.9,-2.11 1.13,-1.62 0.36,-6.6 0.72,-8.82 0.86,-0.35 1.59,-0.7 2.53,-1.23 0.56,-0.32 1.57,-1.1 2.32,-1.49 2.68,1.52 7.13,5.13 9.34,3.22 1.8,-1.56 4.7,-6.96 6.27,-7.9zm-31.06 -35.04c-18.03,-3.93 -24.07,23.39 -5.8,27.06 6.45,1.29 14.62,-2.29 16.41,-10.39 1.57,-7.09 -2.23,-14.85 -10.61,-16.67z"/>
   <polygon fill="white" points="0,500 500,500 500,414.65 0,414.65 "/>
   <path fill="#FF6600" fill-rule="nonzero" d="M133.72 439.14l9.15 0 4.09 29.23 0.11 0 4.09 -29.23 9.16 0 0 40.83 -6.07 0 0 -30.91 -0.12 0 -4.66 30.91 -5.37 0 -4.67 -30.91 -0.11 0 0 30.91 -5.6 0 0 -40.83zm36.34 0l8.69 0 6.65 40.83 -6.42 0 -1.16 -8.11 0 0.12 -7.3 0 -1.16 7.99 -5.95 0 6.65 -40.83zm7 27.3l-2.86 -20.18 -0.12 0 -2.8 20.18 5.78 0zm11.43 -27.3l8.05 0 6.24 24.44 0.12 0 0 -24.44 5.72 0 0 40.83 -6.6 0 -7.69 -29.81 -0.12 0 0 29.81 -5.72 0 0 -40.83zm34.24 41.42c-3.11,0 -5.48,-0.89 -7.11,-2.66 -1.64,-1.77 -2.45,-4.3 -2.45,-7.61l0 -31.15 6.41 0 0 31.62c0,1.4 0.29,2.41 0.85,3.03 0.56,0.62 1.37,0.93 2.42,0.93 1.05,0 1.86,-0.31 2.42,-0.93 0.56,-0.62 0.85,-1.63 0.85,-3.03l0 -31.62 6.18 0 0 31.15c0,3.31 -0.82,5.84 -2.45,7.61 -1.63,1.77 -4.01,2.66 -7.12,2.66zm19.14 -35.59l-6.71 0 0 -5.83 19.83 0 0 5.83 -6.71 0 0 35 -6.41 0 0 -35zm16.21 -5.83l17.5 0 0 5.83 -11.08 0 0 10.8 8.81 0 0 5.83 -8.81 0 0 12.54 11.08 0 0 5.83 -17.5 0 0 -40.83zm21.18 0l8.05 0 6.24 24.44 0.12 0 0 -24.44 5.71 0 0 40.83 -6.59 0 -7.7 -29.81 -0.12 0 0 29.81 -5.71 0 0 -40.83zm33.95 41.42c-3.07,0 -5.42,-0.88 -7.03,-2.63 -1.62,-1.75 -2.42,-4.22 -2.42,-7.41l0 -21.93c0,-3.19 0.8,-5.66 2.42,-7.41 1.61,-1.75 3.96,-2.62 7.03,-2.62 3.07,0 5.41,0.87 7.03,2.62 1.61,1.75 2.42,4.22 2.42,7.41l0 4.32 -6.07 0 0 -4.73c0,-2.53 -1.07,-3.79 -3.21,-3.79 -2.14,0 -3.21,1.26 -3.21,3.79l0 22.81c0,2.49 1.07,3.73 3.21,3.73 2.14,0 3.21,-1.24 3.21,-3.73l0 -6.24 6.07 0 0 5.77c0,3.19 -0.81,5.66 -2.42,7.41 -1.62,1.75 -3.96,2.63 -7.03,2.63zm-0.41 7.99c-1.79,0 -3.17,-0.25 -4.14,-0.76 -0.97,-0.51 -1.46,-1.38 -1.46,-2.62l0 -0.59 4.32 0 0 0.47c0,0.39 0.12,0.68 0.38,0.87 0.25,0.2 0.55,0.3 0.9,0.3 0.54,0 0.93,-0.11 1.17,-0.33 0.23,-0.21 0.35,-0.57 0.35,-1.08 0,-0.54 -0.18,-0.93 -0.53,-1.16 -0.35,-0.24 -0.89,-0.35 -1.63,-0.35l-0.29 0 0 -4.14 2.85 0 0 3.09c1.33,0 2.33,0.21 3.01,0.64 0.68,0.43 1.02,1.13 1.02,2.1 0,1.44 -0.49,2.39 -1.46,2.86 -0.97,0.47 -2.47,0.7 -4.49,0.7zm18.67 -49.41l8.69 0 6.65 40.83 -6.42 0 -1.16 -8.11 0 0.12 -7.3 0 -1.16 7.99 -5.95 0 6.65 -40.83zm7 27.3l-2.86 -20.18 -0.12 0 -2.8 20.18 5.78 0zm-10.74 -31.67c0.74,-1.68 1.54,-2.91 2.4,-3.71 0.85,-0.8 1.82,-1.2 2.91,-1.2 0.7,0 1.31,0.1 1.84,0.3 0.52,0.19 1.08,0.46 1.66,0.81 0.35,0.2 0.69,0.37 1.02,0.53 0.33,0.15 0.65,0.23 0.97,0.23 0.46,0 0.87,-0.17 1.22,-0.52 0.35,-0.35 0.72,-0.94 1.11,-1.75l3.09 1.86c-0.74,1.67 -1.54,2.91 -2.39,3.71 -0.86,0.79 -1.83,1.19 -2.92,1.19 -0.7,0 -1.31,-0.09 -1.84,-0.29 -0.52,-0.19 -1.08,-0.47 -1.66,-0.82 -0.35,-0.19 -0.69,-0.36 -1.02,-0.52 -0.33,-0.16 -0.65,-0.23 -0.96,-0.23 -0.47,0 -0.88,0.17 -1.23,0.52 -0.35,0.35 -0.72,0.94 -1.1,1.75l-3.1 -1.86zm31.33 45.79c-3.15,0 -5.56,-0.9 -7.23,-2.69 -1.68,-1.79 -2.51,-4.31 -2.51,-7.58l0 -21.47c0,-3.26 0.83,-5.79 2.51,-7.58 1.67,-1.79 4.08,-2.68 7.23,-2.68 3.15,0 5.56,0.89 7.23,2.68 1.67,1.79 2.51,4.32 2.51,7.58l0 21.47c0,3.27 -0.84,5.79 -2.51,7.58 -1.67,1.79 -4.08,2.69 -7.23,2.69zm0 -5.84c2.22,0 3.32,-1.34 3.32,-4.02l0 -22.28c0,-2.69 -1.1,-4.03 -3.32,-4.03 -2.22,0 -3.33,1.34 -3.33,4.03l0 22.28c0,2.68 1.11,4.02 3.33,4.02z"/>
  </g>
 </g>
</svg>
