<?xml version="1.0" encoding="UTF-8"?>
<!DOCTYPE svg PUBLIC "-//W3C//DTD SVG 1.1//EN" "http://www.w3.org/Graphics/SVG/1.1/DTD/svg11.dtd">
<!-- Creator: CorelDRAW 2019 (64 Bit) -->
<svg xmlns="http://www.w3.org/2000/svg" xml:space="preserve" width="7.5352mm" height="7.5352mm" version="1.1" style="shape-rendering:geometricPrecision; text-rendering:geometricPrecision; image-rendering:optimizeQuality; fill-rule:evenodd; clip-rule:evenodd"
viewBox="0 0 753.52 753.52"
 xmlns:xlink="http://www.w3.org/1999/xlink">
 <defs>
  <style type="text/css">
   <![CDATA[
    .fil0 {fill:#FF6600}
    .fil1 {fill:white}
   ]]>
  </style>
 </defs>
 <g id="Camada_x0020_1">
  <metadata id="CorelCorpID_0Corel-Layer"/>
  <rect class="fil0" x="-4.23" y="4.23" width="753.53" height="753.53"/>
  <g id="_2458299877440">
   <path class="fil1" d="M143.69 488.34c-2.2,1.8 -4.5,3.43 -6.8,5.67 -2.23,2.17 -4.17,4.15 -6.45,6.33 -4.99,4.74 -6.03,9.2 -10.34,14.25l0 5.25c2,2 2.86,3.61 5.98,4.79 10.38,1.87 46.23,-2.16 51.8,1.51 2.85,1.87 4.5,4.89 6.42,7.19 3.36,4 16.69,16.87 18.67,21.41 -1.68,1.76 -5.74,6.06 -7.21,7.09 -1.58,3.41 -3.83,4.32 -6.29,7.56 -2.35,3.1 -3.77,3.9 -6.11,6.63 -7.51,8.74 -3.23,7.2 -18.61,7.19 -8.5,-0.01 -17.01,0 -25.52,0 -10.17,-0.01 -14.22,-1.84 -19.13,5.83l0 4.62c6.91,7.38 11.29,24.47 43.36,36.18 6.46,2.35 16.89,3.12 21.6,5.05l10.38 0c5.18,-1.93 12.85,-1.98 18.44,-3.64 5.63,-1.67 10.78,-4.03 15.51,-6.43 13.16,-6.67 17.58,-13.64 24.62,-19.75l11.9 -17.1 212.79 0c3.01,0.66 7.15,10.37 12.23,17.27 2.14,1.41 3.22,3.64 5.08,5.51 23.52,23.65 45.09,20.91 53.5,24.14l9.72 0c7.64,-3.28 19.74,-0.72 39.72,-14.14 16.16,-10.85 18.15,-18.42 26.01,-27.8l0 -5.2c-5.47,-7.02 -10.78,-5.25 -20.96,-5.25 -46.76,0 -29.71,4.93 -54.08,-20.16l-7.66 -8.46 15.25 -17.44c1.93,-2.18 1.77,-1.96 4.24,-3.96 8.72,-7.09 1.29,-6.68 18.32,-6.55 8.57,-0.1 17.18,-0.03 25.76,-0.03 9.3,0.01 19.14,2.04 18.56,-8.47 -0.56,-10.31 -16.5,-23.53 -23.01,-29.15l-15.43 -8.53c-22.18,-10.54 -53.29,-8.29 -73.76,4.96 -11.84,7.67 -21.48,16.2 -28.44,29.04 -1.58,2.94 -1.7,4.94 -4.14,6.63l-214.61 0c-3.71,-1.01 -12.11,-30.68 -48.92,-42.58 -17.93,-5.8 -39.71,-5.46 -57.39,2.42 -2.98,1.33 -5.05,2.4 -7.92,3.97 -2.53,1.39 -4.61,3.02 -7.08,4.15zm268.19 72.7l15.91 0.31 -0.11 -15.92 -15.72 0.14 -0.08 15.47zm-94.56 0.31l15.88 -0.13 -0.06 -15.52 -15.72 -0.25 -0.1 15.9zm47.32 -0.43l15.83 0.32 -0.1 -15.41 -15.76 -0.28 0.03 15.37z"/>
   <path class="fil1" d="M190.9 235.72c1.48,8.49 8.99,6.59 22.63,13.01 0.73,3.7 0.47,7.55 1.6,12.39 0.55,2.34 0.76,2.07 0.98,4.29 -3.65,4.56 -14.91,9.7 -17.23,14.74 -2.1,4.55 4.89,13.93 8.58,20.29 11.02,18.96 8.57,19.75 23.24,12.18l9.91 -4.51c16.51,11.56 15.07,6.87 13.43,20.24 -0.33,2.66 -1.12,7.97 -1.02,10.54 0.07,1.79 0.43,2.91 1.93,4.15 3.39,2.83 1.54,0.82 5.39,1.31 3.04,0.39 8,1.93 11.13,2.69 31.3,7.55 20.05,8.01 32.41,-17.76l17.23 -2.4c2.01,3.13 11.38,15.87 14.72,17.21 3.84,1.53 7.11,-1.35 10.08,-3.3l18.48 -11.27c10.99,-6.84 7.87,-7.65 5.27,-13.46 -1.01,-2.25 -0.92,-2.71 -2.2,-4.99l-4.78 -9.7 10.41 -14.35c27.83,2.43 24.17,6.7 29.82,-16.09 1.19,-4.76 5.4,-17.93 4.03,-21.42 -1.98,-5.07 -16.63,-7.5 -22,-10.35l-2.26 -17.47c2.89,-1.61 15.95,-11.35 17.17,-14.44 1.69,-4.36 -1.33,-6.84 -3.35,-10.16l-11.28 -18.45c-5.76,-10.05 -6.63,-9.11 -23.04,-1.13 -2.11,1.02 -2.73,1.79 -4.9,2.53l-14.61 -10.15 1.08 -9.1c1.23,-18.79 5.2,-15.05 -21.89,-21.89 -5.28,-1.34 -15.12,-5.09 -18.45,-1.83 -3.21,3.13 -6.25,16.32 -9.52,21.38l-17.13 2.28c-1.45,-2.53 -11.61,-15.83 -14.12,-17 -4.73,-2.23 -12.96,4.41 -19.79,8.69 -21.82,13.68 -19.33,8.89 -9.89,29.07 0.8,1.73 1.43,3.46 2.14,5.04 -3.93,5.14 -6.41,7.98 -9.33,14.42 -4.62,-0.5 -9.49,-0.95 -14.38,-1.51 -5.86,-0.68 -10.19,-2.54 -12.41,4.08 -3.33,9.86 -4.78,21.84 -8.08,32.2zm118.2 -29.57c-13.6,-1.82 -19.9,-1.77 -28.94,3.66 -8.58,5.16 -15.85,12.9 -18.88,25.02 -5.53,22.18 8,51.69 43.47,48.75 14.31,-1.19 29.6,-12.35 33.38,-29.55 3.93,-17.9 -6.53,-44.86 -29.03,-47.88z"/>
   <path class="fil1" d="M530.26 409.05c3.18,-5.95 6.14,-6.25 3.01,-12.5l-10.65 -10.91 2.72 -11.18c1.68,-1.31 9.55,-3.24 12.1,-3.09 9.87,-4.3 7.1,-3.59 5.53,-17.92 -0.88,-8.09 -1.12,-17.26 -6.24,-20.04 -23.22,-0.71 -11.9,1.88 -23.37,-10.84 10.13,-19.23 14.75,-14.33 -4.62,-28.65 -13.78,-10.18 -12.26,-14.09 -28.37,3.83l-11.55 -3.51c-1.12,-3 -3.28,-14.26 -4.68,-16.23 -2.92,-4.1 -10.1,-1.91 -17.57,-0.83 -21.86,3.2 -18.38,0.55 -18.93,23.02l-10.65 6.28c-20.43,-9.95 -14.64,-13.95 -29.31,5.2 -16.06,20.95 -5.35,12.94 4.51,28.21l-3.32 11.67c-1.67,0.14 -15.23,3.5 -16.25,4.24 -3.14,2.26 -2.43,6.13 -1.94,8.93l2.55 17.67c1.71,15.65 9.21,7.76 21.88,10.14 1.87,3.04 3.21,6.95 6.22,10.09 -9.77,19.68 -14.35,15.32 4.53,29.29 12.73,9.42 13.61,14.31 27.35,-3.99l12.6 3.59c-0.1,2.87 0.87,5.37 1.59,8.41 2.71,11.32 2.5,11.24 20.65,8.34 4.26,-0.69 14.31,-0.82 16.89,-4.52 2.42,-3.47 0.79,-14.12 1.54,-18.86 1.84,-0.76 3.42,-1.51 5.42,-2.65 1.21,-0.68 3.36,-2.35 4.97,-3.18 5.72,3.25 15.25,10.98 19.97,6.89 3.86,-3.34 10.06,-14.89 13.42,-16.9zm-66.45 -74.96c-38.56,-8.4 -51.49,50.03 -12.41,57.88 13.81,2.77 31.29,-4.9 35.12,-22.22 3.35,-15.16 -4.78,-31.76 -22.71,-35.66z"/>
   <path class="fil1" d="M534.41 224.58c2.32,-4.34 4.48,-4.56 2.2,-9.12l-7.78 -7.98 1.98 -8.17c1.23,-0.96 6.98,-2.36 8.85,-2.25 7.21,-3.14 5.18,-2.63 4.04,-13.1 -0.65,-5.91 -0.82,-12.61 -4.57,-14.64 -16.96,-0.52 -8.69,1.37 -17.07,-7.92 7.4,-14.05 10.78,-10.47 -3.38,-20.93 -10.06,-7.45 -8.95,-10.3 -20.73,2.79l-8.43 -2.56c-0.82,-2.2 -2.39,-10.42 -3.42,-11.86 -2.13,-2.99 -7.38,-1.39 -12.84,-0.6 -15.97,2.33 -13.43,0.4 -13.83,16.81l-7.78 4.59c-14.93,-7.27 -10.7,-10.19 -21.42,3.8 -11.73,15.31 -3.9,9.45 3.3,20.62l-2.43 8.52c-1.21,0.1 -11.12,2.56 -11.87,3.1 -2.29,1.65 -1.78,4.48 -1.42,6.52l1.86 12.91c1.25,11.44 6.73,5.68 16,7.41 1.36,2.22 2.34,5.08 4.54,7.38 -7.14,14.37 -10.49,11.19 3.31,21.39 9.3,6.89 9.94,10.46 19.98,-2.91l9.21 2.62c-0.07,2.1 0.63,3.93 1.16,6.14 1.97,8.27 1.83,8.22 15.09,6.1 3.11,-0.5 10.45,-0.6 12.34,-3.31 1.77,-2.53 0.57,-10.31 1.12,-13.77 1.35,-0.56 2.5,-1.11 3.96,-1.93 0.88,-0.5 2.46,-1.72 3.63,-2.33 4.18,2.37 11.15,8.02 14.6,5.04 2.82,-2.45 7.34,-10.88 9.8,-12.36zm-48.55 -54.77c-28.18,-6.13 -37.62,36.56 -9.07,42.3 10.09,2.02 22.86,-3.58 25.66,-16.24 2.45,-11.07 -3.49,-23.2 -16.59,-26.06z"/>
  </g>
 </g>
</svg>
